<svg xmlns="http://www.w3.org/2000/svg" xmlns:xlink="http://www.w3.org/1999/xlink" width="158" zoomAndPan="magnify" viewBox="0 0 118.5 116.999995" height="156" preserveAspectRatio="xMidYMid meet" version="1.0"><defs><clipPath id="bf2f38e1bc"><path d="M 21 32 L 57 32 L 57 85 L 21 85 Z M 21 32 " clip-rule="nonzero"/></clipPath><clipPath id="161b83b1b9"><path d="M 19.667969 80.628906 L 48.5625 30.351562 L 59.011719 36.355469 L 30.117188 86.632812 Z M 19.667969 80.628906 " clip-rule="nonzero"/></clipPath><clipPath id="8b43a2406d"><path d="M 45.550781 35.589844 C 47.210938 32.703125 50.894531 31.707031 53.777344 33.367188 C 56.664062 35.023438 57.65625 38.707031 56 41.59375 L 33.117188 81.410156 C 31.460938 84.296875 27.777344 85.289062 24.890625 83.632812 C 22.007812 81.972656 21.011719 78.292969 22.671875 75.40625 Z M 45.550781 35.589844 " clip-rule="nonzero"/></clipPath><clipPath id="f0c7018943"><path d="M 41 32 L 77 32 L 77 85 L 41 85 Z M 41 32 " clip-rule="nonzero"/></clipPath><clipPath id="2c562c8011"><path d="M 39.335938 80.628906 L 68.230469 30.351562 L 78.675781 36.355469 L 49.78125 86.632812 Z M 39.335938 80.628906 " clip-rule="nonzero"/></clipPath><clipPath id="421398b17a"><path d="M 65.21875 35.589844 C 66.878906 32.703125 70.558594 31.707031 73.445312 33.367188 C 76.332031 35.023438 77.324219 38.707031 75.667969 41.59375 L 52.785156 81.410156 C 51.125 84.296875 47.445312 85.289062 44.558594 83.632812 C 41.671875 81.972656 40.679688 78.292969 42.335938 75.40625 Z M 65.21875 35.589844 " clip-rule="nonzero"/></clipPath><clipPath id="f19b00b700"><path d="M 2 32 L 38 32 L 38 85 L 2 85 Z M 2 32 " clip-rule="nonzero"/></clipPath><clipPath id="8ad3783616"><path d="M 0 80.628906 L 28.894531 30.351562 L 39.34375 36.355469 L 10.449219 86.632812 Z M 0 80.628906 " clip-rule="nonzero"/></clipPath><clipPath id="bd914f188d"><path d="M 25.886719 35.589844 C 27.542969 32.703125 31.226562 31.707031 34.109375 33.367188 C 36.996094 35.023438 37.992188 38.707031 36.332031 41.59375 L 13.449219 81.410156 C 11.792969 84.296875 8.109375 85.289062 5.226562 83.632812 C 2.339844 81.972656 1.34375 78.292969 3.003906 75.40625 Z M 25.886719 35.589844 " clip-rule="nonzero"/></clipPath><clipPath id="c81f4cdac3"><path d="M 61 32 L 97 32 L 97 85 L 61 85 Z M 61 32 " clip-rule="nonzero"/></clipPath><clipPath id="a8274343d8"><path d="M 59 80.628906 L 87.894531 30.351562 L 98.34375 36.355469 L 69.449219 86.632812 Z M 59 80.628906 " clip-rule="nonzero"/></clipPath><clipPath id="6a71d758bd"><path d="M 84.886719 35.589844 C 86.542969 32.703125 90.226562 31.707031 93.113281 33.367188 C 95.996094 35.023438 96.992188 38.707031 95.332031 41.59375 L 72.453125 81.410156 C 70.792969 84.296875 67.109375 85.289062 64.226562 83.632812 C 61.339844 81.972656 60.347656 78.292969 62.003906 75.40625 Z M 84.886719 35.589844 " clip-rule="nonzero"/></clipPath><clipPath id="9f21ca53c9"><path d="M 80 32 L 116 32 L 116 85 L 80 85 Z M 80 32 " clip-rule="nonzero"/></clipPath><clipPath id="549d406702"><path d="M 78.667969 80.628906 L 107.5625 30.351562 L 118.011719 36.355469 L 89.117188 86.632812 Z M 78.667969 80.628906 " clip-rule="nonzero"/></clipPath><clipPath id="ca41fffd35"><path d="M 104.554688 35.589844 C 106.210938 32.703125 109.894531 31.707031 112.777344 33.367188 C 115.664062 35.023438 116.660156 38.707031 115 41.59375 L 92.117188 81.410156 C 90.460938 84.296875 86.777344 85.289062 83.894531 83.632812 C 81.007812 81.972656 80.011719 78.292969 81.671875 75.40625 Z M 104.554688 35.589844 " clip-rule="nonzero"/></clipPath></defs><g clip-path="url(#bf2f38e1bc)"><g clip-path="url(#161b83b1b9)"><g clip-path="url(#8b43a2406d)"><path fill="#ffbd59" d="M 19.667969 80.628906 L 48.5625 30.351562 L 59.011719 36.355469 L 30.117188 86.632812 Z M 19.667969 80.628906 " fill-opacity="1" fill-rule="nonzero"/></g></g></g><g clip-path="url(#f0c7018943)"><g clip-path="url(#2c562c8011)"><g clip-path="url(#421398b17a)"><path fill="#0cc0df" d="M 39.335938 80.628906 L 68.230469 30.351562 L 78.675781 36.355469 L 49.78125 86.632812 Z M 39.335938 80.628906 " fill-opacity="1" fill-rule="nonzero"/></g></g></g><g clip-path="url(#f19b00b700)"><g clip-path="url(#8ad3783616)"><g clip-path="url(#bd914f188d)"><path fill="#8c52ff" d="M 0 80.628906 L 28.894531 30.351562 L 39.34375 36.355469 L 10.449219 86.632812 Z M 0 80.628906 " fill-opacity="1" fill-rule="nonzero"/></g></g></g><g clip-path="url(#c81f4cdac3)"><g clip-path="url(#a8274343d8)"><g clip-path="url(#6a71d758bd)"><path fill="#7ed957" d="M 59 80.628906 L 87.894531 30.351562 L 98.34375 36.355469 L 69.449219 86.632812 Z M 59 80.628906 " fill-opacity="1" fill-rule="nonzero"/></g></g></g><g clip-path="url(#9f21ca53c9)"><g clip-path="url(#549d406702)"><g clip-path="url(#ca41fffd35)"><path fill="#ff5757" d="M 78.667969 80.628906 L 107.5625 30.351562 L 118.011719 36.355469 L 89.117188 86.632812 Z M 78.667969 80.628906 " fill-opacity="1" fill-rule="nonzero"/></g></g></g></svg>