<svg xmlns="http://www.w3.org/2000/svg" xmlns:xlink="http://www.w3.org/1999/xlink" width="158" zoomAndPan="magnify" viewBox="0 0 118.5 116.999995" height="156" preserveAspectRatio="xMidYMid meet" version="1.0"><path fill="#000000" d="M 114.28125 44.964844 C 116.675781 42.570312 118 39.386719 118 35.996094 C 118 32.601562 116.675781 29.425781 114.28125 27.03125 C 109.332031 22.082031 101.28125 22.082031 96.328125 27.023438 L 60.488281 62.785156 C 59.664062 63.609375 58.332031 63.609375 57.507812 62.785156 L 21.671875 27.023438 C 16.722656 22.082031 8.664062 22.082031 3.71875 27.03125 C 1.316406 29.425781 -0.00390625 32.601562 -0.00390625 35.996094 C -0.00390625 39.386719 1.316406 42.570312 3.71875 44.964844 L 50.019531 91.226562 C 52.421875 93.628906 55.609375 94.953125 59 94.953125 C 62.390625 94.953125 65.574219 93.628906 67.972656 91.226562 L 114.28125 44.964844 " fill-opacity="1" fill-rule="nonzero"/></svg>