<svg xmlns="http://www.w3.org/2000/svg" xmlns:xlink="http://www.w3.org/1999/xlink" width="158" zoomAndPan="magnify" viewBox="0 0 118.5 116.999995" height="156" preserveAspectRatio="xMidYMid meet" version="1.0"><defs><g/><clipPath id="47c092b264"><path d="M 0 40.808594 L 32.71875 40.808594 L 32.71875 76.234375 L 0 76.234375 Z M 0 40.808594 " clip-rule="nonzero"/></clipPath></defs><g clip-path="url(#47c092b264)"><path fill="#ffffff" d="M 5.96875 59.335938 C 8.171875 59.328125 10.09375 58.132812 11.128906 56.355469 L 11.144531 56.328125 C 11.382812 56.75 11.648438 57.109375 11.953125 57.441406 L 11.949219 57.433594 C 13.0625 58.605469 14.632812 59.335938 16.375 59.335938 C 18.113281 59.335938 19.683594 58.605469 20.796875 57.4375 L 20.800781 57.433594 C 21.097656 57.109375 21.363281 56.75 21.589844 56.355469 L 21.601562 56.328125 C 22.660156 58.125 24.582031 59.3125 26.78125 59.3125 C 30.085938 59.3125 32.765625 56.632812 32.765625 53.324219 C 32.765625 52.910156 32.722656 52.503906 32.644531 52.113281 L 32.652344 52.152344 L 31.085938 44.320312 C 30.683594 42.394531 29.003906 40.964844 26.988281 40.960938 L 5.746094 40.960938 C 3.730469 40.964844 2.050781 42.394531 1.65625 44.292969 L 1.648438 44.320312 L 0.0820312 52.152344 C 0.0078125 52.507812 -0.0351562 52.917969 -0.0351562 53.335938 C -0.0351562 56.648438 2.652344 59.332031 5.964844 59.332031 C 5.964844 59.332031 5.964844 59.332031 5.96875 59.332031 Z M 26.988281 42.632812 C 28.199219 42.632812 29.207031 43.492188 29.441406 44.632812 L 29.445312 44.648438 L 31.011719 52.488281 C 31.066406 52.742188 31.097656 53.035156 31.097656 53.335938 C 31.097656 55.726562 29.15625 57.664062 26.765625 57.664062 C 24.476562 57.664062 22.601562 55.890625 22.445312 53.640625 L 22.445312 53.625 L 22.398438 52.941406 L 21.710938 42.632812 Z M 12.691406 42.632812 L 20.042969 42.632812 L 20.734375 53.046875 C 20.742188 53.136719 20.746094 53.246094 20.746094 53.351562 C 20.746094 54.492188 20.300781 55.527344 19.574219 56.292969 L 19.578125 56.292969 C 18.78125 57.140625 17.65625 57.664062 16.40625 57.664062 C 16.378906 57.664062 16.347656 57.664062 16.320312 57.664062 L 16.324219 57.664062 C 13.929688 57.664062 11.992188 55.726562 11.992188 53.335938 C 11.992188 53.234375 11.996094 53.132812 12.003906 53.035156 L 12 53.046875 Z M 1.71875 52.488281 L 3.289062 44.652344 C 3.523438 43.492188 4.535156 42.632812 5.746094 42.632812 L 11.023438 42.632812 L 10.339844 52.933594 L 10.289062 53.621094 C 10.132812 55.886719 8.257812 57.667969 5.964844 57.667969 C 3.574219 57.667969 1.636719 55.726562 1.636719 53.335938 C 1.636719 53.035156 1.667969 52.742188 1.722656 52.460938 Z M 2.171875 60.941406 L 2.171875 71.859375 C 2.171875 74.164062 4.039062 76.035156 6.347656 76.035156 L 26.386719 76.035156 C 28.695312 76.035156 30.5625 74.164062 30.5625 71.859375 L 30.5625 60.9375 C 30.085938 61.183594 29.53125 61.394531 28.953125 61.546875 L 28.894531 61.5625 L 28.894531 71.859375 C 28.894531 73.242188 27.773438 74.367188 26.386719 74.367188 L 20.542969 74.367188 L 20.542969 68.519531 C 20.542969 66.214844 18.671875 64.34375 16.367188 64.34375 C 14.0625 64.34375 12.191406 66.214844 12.191406 68.519531 L 12.191406 74.367188 L 6.347656 74.367188 C 4.960938 74.367188 3.839844 73.242188 3.839844 71.859375 L 3.839844 61.5625 C 3.203125 61.394531 2.648438 61.183594 2.125 60.917969 L 2.171875 60.9375 Z M 13.863281 68.519531 C 13.863281 67.136719 14.984375 66.015625 16.367188 66.015625 C 17.75 66.015625 18.871094 67.136719 18.871094 68.519531 L 18.871094 74.367188 L 13.863281 74.367188 Z M 13.863281 68.519531 " fill-opacity="1" fill-rule="nonzero"/></g><g fill="#ffffff" fill-opacity="1"><g transform="translate(47.509687, 53.818611)"><g><path d="M 10.3125 0 L 10.296875 -6.96875 L 6.84375 -1.15625 L 6.203125 -1.15625 L 2.75 -6.9375 L 2.75 0 L 1.4375 0 L 1.4375 -9.578125 L 2.5625 -9.578125 L 6.546875 -2.84375 L 10.484375 -9.578125 L 11.609375 -9.578125 L 11.625 0 Z M 10.3125 0 "/></g></g></g><g fill="#ffffff" fill-opacity="1"><g transform="translate(60.565927, 53.818611)"><g><path d="M 1.25 -7.25 L 2.5625 -7.25 L 2.5625 0 L 1.25 0 Z M 1.890625 -8.640625 C 1.640625 -8.640625 1.429688 -8.722656 1.265625 -8.890625 C 1.097656 -9.054688 1.015625 -9.253906 1.015625 -9.484375 C 1.015625 -9.722656 1.097656 -9.925781 1.265625 -10.09375 C 1.429688 -10.257812 1.640625 -10.34375 1.890625 -10.34375 C 2.148438 -10.34375 2.363281 -10.265625 2.53125 -10.109375 C 2.695312 -9.953125 2.78125 -9.753906 2.78125 -9.515625 C 2.78125 -9.265625 2.695312 -9.054688 2.53125 -8.890625 C 2.363281 -8.722656 2.148438 -8.640625 1.890625 -8.640625 Z M 1.890625 -8.640625 "/></g></g></g><g fill="#ffffff" fill-opacity="1"><g transform="translate(47.509687, 72.87852)"><g><path d="M 10.3125 0 L 10.296875 -6.96875 L 6.84375 -1.15625 L 6.203125 -1.15625 L 2.75 -6.9375 L 2.75 0 L 1.4375 0 L 1.4375 -9.578125 L 2.5625 -9.578125 L 6.546875 -2.84375 L 10.484375 -9.578125 L 11.609375 -9.578125 L 11.625 0 Z M 10.3125 0 "/></g></g></g><g fill="#ffffff" fill-opacity="1"><g transform="translate(60.565927, 72.87852)"><g><path d="M 7.796875 -3.578125 C 7.796875 -3.484375 7.785156 -3.351562 7.765625 -3.1875 L 1.890625 -3.1875 C 1.972656 -2.550781 2.253906 -2.035156 2.734375 -1.640625 C 3.210938 -1.253906 3.804688 -1.0625 4.515625 -1.0625 C 5.378906 -1.0625 6.078125 -1.351562 6.609375 -1.9375 L 7.328125 -1.09375 C 7.003906 -0.707031 6.597656 -0.414062 6.109375 -0.21875 C 5.617188 -0.0195312 5.070312 0.078125 4.46875 0.078125 C 3.707031 0.078125 3.03125 -0.078125 2.4375 -0.390625 C 1.84375 -0.703125 1.382812 -1.140625 1.0625 -1.703125 C 0.738281 -2.273438 0.578125 -2.914062 0.578125 -3.625 C 0.578125 -4.320312 0.734375 -4.953125 1.046875 -5.515625 C 1.359375 -6.085938 1.789062 -6.53125 2.34375 -6.84375 C 2.894531 -7.15625 3.519531 -7.3125 4.21875 -7.3125 C 4.90625 -7.3125 5.519531 -7.15625 6.0625 -6.84375 C 6.601562 -6.53125 7.023438 -6.085938 7.328125 -5.515625 C 7.640625 -4.953125 7.796875 -4.304688 7.796875 -3.578125 Z M 4.21875 -6.203125 C 3.582031 -6.203125 3.050781 -6.007812 2.625 -5.625 C 2.207031 -5.25 1.960938 -4.75 1.890625 -4.125 L 6.53125 -4.125 C 6.457031 -4.738281 6.207031 -5.238281 5.78125 -5.625 C 5.363281 -6.007812 4.84375 -6.203125 4.21875 -6.203125 Z M 4.21875 -6.203125 "/></g></g></g><g fill="#ffffff" fill-opacity="1"><g transform="translate(68.932858, 72.87852)"><g><path d="M 2.5 -6.03125 C 2.726562 -6.445312 3.066406 -6.765625 3.515625 -6.984375 C 3.960938 -7.203125 4.503906 -7.3125 5.140625 -7.3125 L 5.140625 -6.046875 C 5.066406 -6.054688 4.96875 -6.0625 4.84375 -6.0625 C 4.132812 -6.0625 3.578125 -5.847656 3.171875 -5.421875 C 2.765625 -4.992188 2.5625 -4.390625 2.5625 -3.609375 L 2.5625 0 L 1.25 0 L 1.25 -7.25 L 2.5 -7.25 Z M 2.5 -6.03125 "/></g></g></g><g fill="#ffffff" fill-opacity="1"><g transform="translate(74.538155, 72.87852)"><g><path d="M 4.40625 0.078125 C 3.664062 0.078125 3.003906 -0.078125 2.421875 -0.390625 C 1.847656 -0.710938 1.394531 -1.15625 1.0625 -1.71875 C 0.738281 -2.28125 0.578125 -2.914062 0.578125 -3.625 C 0.578125 -4.332031 0.738281 -4.96875 1.0625 -5.53125 C 1.394531 -6.09375 1.847656 -6.53125 2.421875 -6.84375 C 3.003906 -7.15625 3.664062 -7.3125 4.40625 -7.3125 C 5.0625 -7.3125 5.644531 -7.175781 6.15625 -6.90625 C 6.675781 -6.644531 7.078125 -6.265625 7.359375 -5.765625 L 6.359375 -5.125 C 6.128906 -5.46875 5.84375 -5.726562 5.5 -5.90625 C 5.164062 -6.082031 4.796875 -6.171875 4.390625 -6.171875 C 3.910156 -6.171875 3.484375 -6.0625 3.109375 -5.84375 C 2.734375 -5.632812 2.4375 -5.335938 2.21875 -4.953125 C 2.007812 -4.566406 1.90625 -4.125 1.90625 -3.625 C 1.90625 -3.113281 2.007812 -2.664062 2.21875 -2.28125 C 2.4375 -1.894531 2.734375 -1.59375 3.109375 -1.375 C 3.484375 -1.164062 3.910156 -1.0625 4.390625 -1.0625 C 4.796875 -1.0625 5.164062 -1.148438 5.5 -1.328125 C 5.84375 -1.503906 6.128906 -1.765625 6.359375 -2.109375 L 7.359375 -1.484375 C 7.078125 -0.972656 6.675781 -0.582031 6.15625 -0.3125 C 5.644531 -0.0507812 5.0625 0.078125 4.40625 0.078125 Z M 4.40625 0.078125 "/></g></g></g><g fill="#ffffff" fill-opacity="1"><g transform="translate(82.344556, 72.87852)"><g><path d="M 3.890625 -7.3125 C 4.890625 -7.3125 5.65625 -7.066406 6.1875 -6.578125 C 6.71875 -6.085938 6.984375 -5.351562 6.984375 -4.375 L 6.984375 0 L 5.75 0 L 5.75 -0.953125 C 5.53125 -0.617188 5.21875 -0.363281 4.8125 -0.1875 C 4.40625 -0.0078125 3.921875 0.078125 3.359375 0.078125 C 2.546875 0.078125 1.894531 -0.113281 1.40625 -0.5 C 0.925781 -0.894531 0.6875 -1.410156 0.6875 -2.046875 C 0.6875 -2.691406 0.914062 -3.207031 1.375 -3.59375 C 1.84375 -3.976562 2.582031 -4.171875 3.59375 -4.171875 L 5.671875 -4.171875 L 5.671875 -4.4375 C 5.671875 -5 5.503906 -5.429688 5.171875 -5.734375 C 4.847656 -6.035156 4.367188 -6.1875 3.734375 -6.1875 C 3.304688 -6.1875 2.882812 -6.113281 2.46875 -5.96875 C 2.0625 -5.820312 1.71875 -5.632812 1.4375 -5.40625 L 0.890625 -6.390625 C 1.265625 -6.691406 1.710938 -6.921875 2.234375 -7.078125 C 2.753906 -7.234375 3.304688 -7.3125 3.890625 -7.3125 Z M 3.578125 -0.9375 C 4.078125 -0.9375 4.507812 -1.046875 4.875 -1.265625 C 5.238281 -1.484375 5.503906 -1.800781 5.671875 -2.21875 L 5.671875 -3.234375 L 3.65625 -3.234375 C 2.539062 -3.234375 1.984375 -2.859375 1.984375 -2.109375 C 1.984375 -1.742188 2.125 -1.457031 2.40625 -1.25 C 2.6875 -1.039062 3.078125 -0.9375 3.578125 -0.9375 Z M 3.578125 -0.9375 "/></g></g></g><g fill="#ffffff" fill-opacity="1"><g transform="translate(90.520088, 72.87852)"><g><path d="M 8.078125 -10.140625 L 8.078125 0 L 6.828125 0 L 6.828125 -1.15625 C 6.535156 -0.75 6.164062 -0.441406 5.71875 -0.234375 C 5.269531 -0.0234375 4.773438 0.078125 4.234375 0.078125 C 3.535156 0.078125 2.90625 -0.0703125 2.34375 -0.375 C 1.789062 -0.6875 1.359375 -1.125 1.046875 -1.6875 C 0.734375 -2.25 0.578125 -2.894531 0.578125 -3.625 C 0.578125 -4.351562 0.734375 -4.992188 1.046875 -5.546875 C 1.359375 -6.109375 1.789062 -6.539062 2.34375 -6.84375 C 2.90625 -7.15625 3.535156 -7.3125 4.234375 -7.3125 C 4.753906 -7.3125 5.234375 -7.210938 5.671875 -7.015625 C 6.109375 -6.828125 6.472656 -6.539062 6.765625 -6.15625 L 6.765625 -10.140625 Z M 4.34375 -1.0625 C 4.800781 -1.0625 5.21875 -1.164062 5.59375 -1.375 C 5.96875 -1.59375 6.257812 -1.894531 6.46875 -2.28125 C 6.675781 -2.675781 6.78125 -3.125 6.78125 -3.625 C 6.78125 -4.125 6.675781 -4.566406 6.46875 -4.953125 C 6.257812 -5.335938 5.96875 -5.632812 5.59375 -5.84375 C 5.21875 -6.0625 4.800781 -6.171875 4.34375 -6.171875 C 3.882812 -6.171875 3.46875 -6.0625 3.09375 -5.84375 C 2.726562 -5.632812 2.4375 -5.335938 2.21875 -4.953125 C 2.007812 -4.566406 1.90625 -4.125 1.90625 -3.625 C 1.90625 -3.125 2.007812 -2.675781 2.21875 -2.28125 C 2.4375 -1.894531 2.726562 -1.59375 3.09375 -1.375 C 3.46875 -1.164062 3.882812 -1.0625 4.34375 -1.0625 Z M 4.34375 -1.0625 "/></g></g></g><g fill="#ffffff" fill-opacity="1"><g transform="translate(99.844019, 72.87852)"><g><path d="M 1.25 -7.25 L 2.5625 -7.25 L 2.5625 0 L 1.25 0 Z M 1.890625 -8.640625 C 1.640625 -8.640625 1.429688 -8.722656 1.265625 -8.890625 C 1.097656 -9.054688 1.015625 -9.253906 1.015625 -9.484375 C 1.015625 -9.722656 1.097656 -9.925781 1.265625 -10.09375 C 1.429688 -10.257812 1.640625 -10.34375 1.890625 -10.34375 C 2.148438 -10.34375 2.363281 -10.265625 2.53125 -10.109375 C 2.695312 -9.953125 2.78125 -9.753906 2.78125 -9.515625 C 2.78125 -9.265625 2.695312 -9.054688 2.53125 -8.890625 C 2.363281 -8.722656 2.148438 -8.640625 1.890625 -8.640625 Z M 1.890625 -8.640625 "/></g></g></g><g fill="#ffffff" fill-opacity="1"><g transform="translate(103.658356, 72.87852)"><g><path d="M 5.3125 -0.421875 C 5.125 -0.253906 4.890625 -0.128906 4.609375 -0.046875 C 4.328125 0.0351562 4.035156 0.078125 3.734375 0.078125 C 3.003906 0.078125 2.4375 -0.113281 2.03125 -0.5 C 1.632812 -0.894531 1.4375 -1.457031 1.4375 -2.1875 L 1.4375 -6.171875 L 0.203125 -6.171875 L 0.203125 -7.25 L 1.4375 -7.25 L 1.4375 -8.828125 L 2.75 -8.828125 L 2.75 -7.25 L 4.828125 -7.25 L 4.828125 -6.171875 L 2.75 -6.171875 L 2.75 -2.25 C 2.75 -1.851562 2.847656 -1.550781 3.046875 -1.34375 C 3.242188 -1.132812 3.523438 -1.03125 3.890625 -1.03125 C 4.285156 -1.03125 4.625 -1.144531 4.90625 -1.375 Z M 5.3125 -0.421875 "/></g></g></g><g fill="#ffffff" fill-opacity="1"><g transform="translate(109.318338, 72.87852)"><g><path d="M 4.34375 0.078125 C 3.625 0.078125 2.976562 -0.078125 2.40625 -0.390625 C 1.832031 -0.710938 1.382812 -1.15625 1.0625 -1.71875 C 0.738281 -2.28125 0.578125 -2.914062 0.578125 -3.625 C 0.578125 -4.332031 0.738281 -4.96875 1.0625 -5.53125 C 1.382812 -6.09375 1.832031 -6.53125 2.40625 -6.84375 C 2.976562 -7.15625 3.625 -7.3125 4.34375 -7.3125 C 5.0625 -7.3125 5.707031 -7.15625 6.28125 -6.84375 C 6.851562 -6.53125 7.300781 -6.09375 7.625 -5.53125 C 7.945312 -4.96875 8.109375 -4.332031 8.109375 -3.625 C 8.109375 -2.914062 7.945312 -2.28125 7.625 -1.71875 C 7.300781 -1.15625 6.851562 -0.710938 6.28125 -0.390625 C 5.707031 -0.078125 5.0625 0.078125 4.34375 0.078125 Z M 4.34375 -1.0625 C 4.8125 -1.0625 5.226562 -1.164062 5.59375 -1.375 C 5.96875 -1.59375 6.257812 -1.894531 6.46875 -2.28125 C 6.675781 -2.675781 6.78125 -3.125 6.78125 -3.625 C 6.78125 -4.125 6.675781 -4.566406 6.46875 -4.953125 C 6.257812 -5.335938 5.96875 -5.632812 5.59375 -5.84375 C 5.226562 -6.0625 4.8125 -6.171875 4.34375 -6.171875 C 3.882812 -6.171875 3.46875 -6.0625 3.09375 -5.84375 C 2.726562 -5.632812 2.4375 -5.335938 2.21875 -4.953125 C 2.007812 -4.566406 1.90625 -4.125 1.90625 -3.625 C 1.90625 -3.125 2.007812 -2.675781 2.21875 -2.28125 C 2.4375 -1.894531 2.726562 -1.59375 3.09375 -1.375 C 3.46875 -1.164062 3.882812 -1.0625 4.34375 -1.0625 Z M 4.34375 -1.0625 "/></g></g></g><path stroke-linecap="butt" transform="matrix(0.000000000363708, -0.208389, 0.208389, 0.000000000363708, 39.747897, 68.378943)" fill="none" stroke-linejoin="miter" d="M 0.000177 1.997059 L 94.812288 1.997058 " stroke="#ffffff" stroke-width="4" stroke-opacity="1" stroke-miterlimit="4"/></svg>