<svg xmlns="http://www.w3.org/2000/svg" xmlns:xlink="http://www.w3.org/1999/xlink" width="158" zoomAndPan="magnify" viewBox="0 0 118.5 116.999995" height="156" preserveAspectRatio="xMidYMid meet" version="1.0"><defs><clipPath id="6ecbb44f1b"><path d="M 11.761719 0.246094 L 106.164062 0.246094 L 106.164062 116.484375 L 11.761719 116.484375 Z M 11.761719 0.246094 " clip-rule="nonzero"/></clipPath><clipPath id="9e4c7a69f5"><path d="M 45.496094 65 L 65 65 L 65 85.226562 L 45.496094 85.226562 Z M 45.496094 65 " clip-rule="nonzero"/></clipPath><clipPath id="e0c82d64d9"><path d="M 68 31.925781 L 82 31.925781 L 82 45 L 68 45 Z M 68 31.925781 " clip-rule="nonzero"/></clipPath><clipPath id="972eba2f2b"><path d="M 97 43 L 106.507812 43 L 106.507812 78 L 97 78 Z M 97 43 " clip-rule="nonzero"/></clipPath></defs><g clip-path="url(#6ecbb44f1b)"><path fill="#000000" d="M 69.792969 19.414062 L 69.707031 19.414062 L 69.523438 19.417969 L 69.417969 19.417969 L 69.25 19.421875 L 69.140625 19.425781 L 68.980469 19.429688 L 68.871094 19.433594 L 68.703125 19.4375 L 68.597656 19.441406 L 68.421875 19.449219 L 68.328125 19.453125 L 68.109375 19.460938 L 68.0625 19.464844 L 67.792969 19.480469 L 67.714844 19.484375 L 67.527344 19.496094 L 67.425781 19.5 C 67.425781 19.5 67.304688 19.511719 67.257812 19.511719 C 67.222656 19.515625 67.1875 19.519531 67.148438 19.523438 C 67.105469 19.523438 67.035156 19.53125 66.992188 19.535156 C 66.953125 19.535156 66.917969 19.539062 66.878906 19.542969 C 66.835938 19.546875 66.765625 19.550781 66.722656 19.554688 C 66.683594 19.558594 66.648438 19.5625 66.613281 19.566406 C 66.566406 19.566406 66.492188 19.574219 66.445312 19.578125 C 66.414062 19.582031 66.382812 19.585938 66.347656 19.589844 C 66.300781 19.59375 66.199219 19.605469 66.152344 19.609375 C 66.132812 19.609375 66.105469 19.613281 66.082031 19.613281 C 66.027344 19.621094 65.875 19.636719 65.820312 19.640625 C 65.796875 19.644531 65.773438 19.648438 65.75 19.648438 C 65.707031 19.65625 65.605469 19.667969 65.554688 19.671875 C 65.523438 19.675781 65.488281 19.679688 65.457031 19.683594 C 65.414062 19.6875 65.339844 19.699219 65.292969 19.703125 C 65.257812 19.707031 65.21875 19.710938 65.183594 19.714844 C 65.140625 19.722656 65.074219 19.730469 65.03125 19.738281 C 64.992188 19.742188 64.957031 19.746094 64.917969 19.75 C 64.875 19.757812 64.808594 19.765625 64.765625 19.769531 C 64.726562 19.777344 64.691406 19.78125 64.65625 19.785156 C 64.609375 19.792969 64.542969 19.800781 64.496094 19.808594 C 64.464844 19.8125 64.429688 19.816406 64.390625 19.824219 C 64.347656 19.832031 64.265625 19.84375 64.222656 19.847656 C 64.191406 19.855469 64.160156 19.859375 64.132812 19.863281 C 64.074219 19.871094 63.925781 19.894531 63.875 19.902344 C 63.855469 19.90625 63.839844 19.90625 63.820312 19.910156 C 63.777344 19.917969 63.667969 19.9375 63.617188 19.945312 C 63.582031 19.949219 63.550781 19.957031 63.515625 19.960938 C 63.472656 19.96875 63.402344 19.980469 63.359375 19.988281 C 63.320312 19.996094 63.285156 20 63.246094 20.007812 C 63.203125 20.015625 63.140625 20.027344 63.097656 20.035156 C 63.0625 20.039062 63.023438 20.046875 62.984375 20.054688 C 62.941406 20.0625 62.882812 20.074219 62.839844 20.082031 C 62.800781 20.089844 62.761719 20.097656 62.726562 20.105469 C 62.683594 20.113281 62.621094 20.125 62.578125 20.132812 C 62.542969 20.140625 62.503906 20.144531 62.46875 20.152344 C 62.421875 20.164062 62.355469 20.175781 62.3125 20.183594 C 62.28125 20.191406 62.246094 20.199219 62.210938 20.203125 C 62.160156 20.214844 62.054688 20.238281 62.011719 20.246094 C 61.996094 20.25 61.972656 20.253906 61.957031 20.257812 C 61.949219 20.261719 61.9375 20.261719 61.929688 20.261719 C 61.886719 20.273438 61.761719 20.300781 61.707031 20.3125 C 61.671875 20.320312 61.640625 20.328125 61.605469 20.332031 C 61.5625 20.34375 61.496094 20.359375 61.453125 20.367188 C 61.414062 20.375 61.378906 20.386719 61.339844 20.394531 C 61.300781 20.402344 61.242188 20.414062 61.199219 20.425781 C 61.160156 20.433594 61.121094 20.445312 61.085938 20.453125 C 61.042969 20.464844 60.988281 20.476562 60.945312 20.484375 C 60.90625 20.496094 60.867188 20.503906 60.832031 20.515625 C 60.789062 20.523438 60.734375 20.539062 60.691406 20.546875 C 60.652344 20.558594 60.617188 20.566406 60.578125 20.578125 C 60.535156 20.585938 60.476562 20.601562 60.433594 20.613281 C 60.398438 20.621094 60.363281 20.628906 60.324219 20.640625 C 60.28125 20.652344 60.207031 20.671875 60.164062 20.683594 C 60.132812 20.691406 60.105469 20.695312 60.074219 20.703125 C 60.019531 20.71875 59.890625 20.753906 59.832031 20.769531 C 59.800781 20.777344 59.765625 20.789062 59.734375 20.796875 C 59.691406 20.808594 59.628906 20.828125 59.582031 20.839844 C 59.546875 20.847656 59.507812 20.859375 59.472656 20.871094 C 59.429688 20.882812 59.375 20.894531 59.335938 20.910156 C 59.296875 20.917969 59.257812 20.929688 59.21875 20.941406 C 59.179688 20.953125 59.128906 20.96875 59.085938 20.980469 C 59.046875 20.992188 59.007812 21.003906 58.96875 21.015625 C 58.929688 21.027344 58.878906 21.042969 58.835938 21.054688 C 58.796875 21.066406 58.761719 21.078125 58.722656 21.089844 C 58.679688 21.101562 58.625 21.117188 58.585938 21.128906 C 58.550781 21.140625 58.511719 21.152344 58.476562 21.164062 C 58.433594 21.179688 58.367188 21.199219 58.324219 21.210938 C 58.292969 21.222656 58.261719 21.230469 58.230469 21.242188 C 58.175781 21.257812 58.046875 21.300781 57.992188 21.316406 C 57.964844 21.328125 57.9375 21.335938 57.910156 21.34375 C 57.867188 21.359375 57.792969 21.382812 57.75 21.398438 C 57.714844 21.410156 57.679688 21.421875 57.644531 21.433594 C 57.605469 21.445312 57.546875 21.464844 57.503906 21.480469 C 57.46875 21.492188 57.433594 21.503906 57.398438 21.515625 C 57.355469 21.53125 57.300781 21.550781 57.261719 21.566406 C 57.222656 21.578125 57.152344 21.601562 57.152344 21.601562 L 57.015625 21.652344 L 56.910156 21.6875 L 56.769531 21.738281 L 56.667969 21.773438 L 56.511719 21.832031 L 56.429688 21.863281 L 56.1875 21.953125 L 56.164062 21.960938 L 55.949219 22.046875 L 55.871094 22.074219 L 55.710938 22.140625 L 55.621094 22.175781 L 55.46875 22.234375 L 55.378906 22.273438 L 55.226562 22.335938 L 55.140625 22.371094 L 54.980469 22.4375 L 54.90625 22.46875 L 54.722656 22.546875 L 54.671875 22.566406 L 54.433594 22.671875 L 54.1875 22.78125 L 54.171875 22.789062 L 53.953125 22.886719 L 53.90625 22.90625 L 53.714844 22.996094 L 53.664062 23.019531 L 53.476562 23.105469 L 53.425781 23.128906 L 53.230469 23.222656 L 53.195312 23.238281 L 52.964844 23.351562 C 39.960938 29.699219 30.996094 43.050781 30.996094 58.480469 C 30.996094 73.925781 39.976562 87.285156 52.996094 93.628906 L 53.230469 93.738281 L 53.25 93.75 L 53.46875 93.851562 L 53.492188 93.863281 L 53.710938 93.96875 L 53.734375 93.976562 L 53.972656 94.085938 C 54.054688 94.121094 54.136719 94.160156 54.21875 94.195312 L 54.457031 94.300781 L 54.5 94.320312 L 54.6875 94.402344 L 54.761719 94.433594 L 54.921875 94.5 L 55.007812 94.539062 L 55.160156 94.601562 L 55.25 94.636719 L 55.398438 94.695312 L 55.488281 94.734375 L 55.640625 94.792969 L 55.730469 94.832031 L 55.902344 94.898438 L 55.972656 94.925781 L 56.199219 95.015625 L 56.304688 95.050781 L 56.4375 95.101562 L 56.554688 95.144531 L 56.675781 95.191406 L 57.039062 95.320312 L 57.15625 95.363281 L 57.28125 95.40625 L 57.398438 95.445312 L 57.523438 95.488281 L 57.636719 95.527344 L 57.765625 95.570312 L 57.996094 95.648438 L 58.128906 95.6875 L 58.238281 95.722656 L 58.371094 95.765625 L 58.480469 95.800781 L 58.613281 95.839844 L 58.726562 95.875 L 58.859375 95.914062 L 58.972656 95.949219 L 59.105469 95.988281 L 59.21875 96.019531 L 59.351562 96.058594 L 59.464844 96.089844 L 59.601562 96.128906 L 59.707031 96.160156 L 59.839844 96.195312 L 59.96875 96.230469 L 60.078125 96.261719 L 60.214844 96.292969 L 60.332031 96.324219 L 60.464844 96.359375 L 60.582031 96.386719 L 60.714844 96.421875 L 60.832031 96.449219 L 60.964844 96.480469 L 61.085938 96.511719 L 61.214844 96.539062 L 61.339844 96.570312 L 61.46875 96.597656 L 61.601562 96.628906 L 61.71875 96.65625 L 61.960938 96.707031 L 62.078125 96.730469 L 62.21875 96.757812 L 62.339844 96.785156 L 62.472656 96.8125 L 62.597656 96.835938 L 62.730469 96.859375 L 62.851562 96.882812 L 62.988281 96.910156 L 63.109375 96.929688 L 63.25 96.957031 L 63.367188 96.976562 L 63.519531 97.003906 L 63.625 97.019531 L 63.875 97.0625 L 63.953125 97.074219 L 64.136719 97.101562 L 64.242188 97.117188 L 64.398438 97.140625 L 64.511719 97.15625 L 64.660156 97.175781 L 64.773438 97.195312 L 64.921875 97.210938 L 65.039062 97.226562 L 65.1875 97.246094 L 65.300781 97.261719 L 65.460938 97.28125 L 65.5625 97.292969 L 65.769531 97.316406 L 65.824219 97.320312 L 66.085938 97.347656 L 66.171875 97.359375 L 66.351562 97.375 L 66.457031 97.382812 L 66.617188 97.398438 L 66.726562 97.410156 L 66.882812 97.421875 L 66.996094 97.429688 L 67.152344 97.441406 L 67.261719 97.449219 L 67.429688 97.460938 L 67.53125 97.46875 L 67.722656 97.480469 L 67.796875 97.484375 L 68.0625 97.5 L 68.121094 97.5 L 68.332031 97.511719 L 68.429688 97.515625 L 68.601562 97.523438 L 68.707031 97.527344 L 68.871094 97.53125 L 68.980469 97.535156 L 69.144531 97.539062 L 69.253906 97.542969 L 69.417969 97.542969 L 69.523438 97.546875 L 69.707031 97.546875 L 69.792969 97.550781 L 70.066406 97.550781 C 70.066406 97.550781 70.316406 97.550781 70.316406 97.550781 L 70.382812 97.546875 L 70.636719 97.546875 L 70.886719 97.542969 L 70.949219 97.539062 L 71.167969 97.535156 L 71.207031 97.535156 L 71.453125 97.523438 L 71.515625 97.523438 L 71.726562 97.515625 L 71.773438 97.511719 L 72.019531 97.5 L 72.074219 97.5 L 72.285156 97.488281 L 72.335938 97.484375 L 72.582031 97.46875 L 72.632812 97.464844 L 72.839844 97.453125 L 72.898438 97.449219 L 73.144531 97.429688 L 73.183594 97.425781 L 73.398438 97.410156 L 73.457031 97.402344 L 73.707031 97.382812 L 73.726562 97.378906 L 73.957031 97.359375 L 74.011719 97.351562 L 74.261719 97.328125 L 74.511719 97.300781 L 74.566406 97.292969 L 74.8125 97.261719 L 75.066406 97.230469 L 75.113281 97.226562 L 75.363281 97.191406 L 75.617188 97.15625 L 75.660156 97.152344 L 75.898438 97.117188 L 75.910156 97.113281 L 76.167969 97.074219 L 76.199219 97.070312 L 76.441406 97.03125 L 76.457031 97.027344 L 76.714844 96.984375 L 76.730469 96.980469 L 76.980469 96.9375 L 76.996094 96.933594 L 77.261719 96.886719 L 77.523438 96.835938 L 77.535156 96.835938 L 77.800781 96.785156 L 78.0625 96.730469 L 78.070312 96.726562 L 78.332031 96.671875 L 78.601562 96.613281 C 81.523438 95.960938 84.324219 94.980469 86.964844 93.710938 C 88.710938 92.871094 90.382812 91.90625 91.972656 90.824219 C 92.15625 90.699219 92.375 90.632812 92.59375 90.632812 C 94.21875 90.632812 101.226562 90.632812 105.03125 90.632812 C 105.472656 90.632812 105.871094 90.894531 106.046875 91.300781 C 106.222656 91.703125 106.140625 92.175781 105.839844 92.496094 C 104.277344 94.144531 102.601562 95.6875 100.824219 97.113281 C 100.824219 97.113281 102.03125 100.742188 102.890625 103.324219 C 103.398438 104.851562 102.8125 106.53125 101.464844 107.410156 C 99.839844 108.449219 98.167969 109.417969 96.453125 110.296875 C 95.019531 111.023438 93.277344 110.691406 92.207031 109.492188 C 90.398438 107.457031 87.855469 104.597656 87.855469 104.597656 C 86.984375 104.9375 86.105469 105.253906 85.214844 105.542969 C 85.015625 105.648438 84.804688 105.738281 84.585938 105.808594 C 82.285156 106.507812 79.933594 107.046875 77.550781 107.410156 C 77.550781 107.410156 76.78125 111.15625 76.230469 113.824219 C 75.90625 115.398438 74.5625 116.554688 72.957031 116.644531 C 71.960938 116.691406 70.964844 116.714844 69.972656 116.714844 C 68.976562 116.714844 67.980469 116.691406 66.984375 116.644531 C 65.378906 116.554688 64.035156 115.398438 63.710938 113.824219 C 63.160156 111.15625 62.390625 107.410156 62.390625 107.410156 C 60.007812 107.046875 57.660156 106.507812 55.355469 105.808594 C 55.136719 105.738281 54.925781 105.648438 54.726562 105.542969 C 53.839844 105.253906 52.957031 104.9375 52.085938 104.597656 C 52.085938 104.597656 49.546875 107.457031 47.734375 109.492188 C 46.667969 110.691406 44.921875 111.023438 43.488281 110.296875 C 41.773438 109.417969 40.101562 108.449219 38.476562 107.410156 C 37.128906 106.53125 36.542969 104.851562 37.050781 103.324219 C 37.910156 100.742188 39.117188 97.113281 39.117188 97.113281 C 36.28125 94.839844 33.707031 92.265625 31.4375 89.429688 C 31.4375 89.429688 27.804688 90.636719 25.222656 91.492188 C 23.695312 92 22.019531 91.414062 21.144531 90.066406 C 20.097656 88.445312 19.128906 86.773438 18.246094 85.058594 C 17.515625 83.625 17.847656 81.878906 19.050781 80.808594 C 21.089844 79 23.949219 76.460938 23.949219 76.460938 C 22.628906 73.078125 21.6875 69.558594 21.136719 65.96875 C 21.136719 65.96875 17.390625 65.199219 14.722656 64.648438 C 13.148438 64.324219 11.992188 62.980469 11.902344 61.375 C 11.808594 59.445312 11.808594 57.515625 11.898438 55.589844 C 11.984375 53.980469 13.144531 52.636719 14.722656 52.3125 C 17.390625 51.761719 21.136719 50.996094 21.136719 50.996094 C 21.6875 47.40625 22.628906 43.886719 23.949219 40.5 C 23.949219 40.5 21.089844 37.960938 19.054688 36.152344 C 17.855469 35.082031 17.523438 33.339844 18.25 31.90625 C 19.128906 30.1875 20.097656 28.515625 21.136719 26.894531 C 22.015625 25.542969 23.695312 24.960938 25.222656 25.46875 C 27.804688 26.324219 31.4375 27.535156 31.4375 27.535156 C 33.707031 24.699219 36.28125 22.121094 39.117188 19.851562 C 39.117188 19.851562 37.910156 16.222656 37.054688 13.636719 C 36.546875 12.113281 37.132812 10.4375 38.480469 9.558594 C 40.101562 8.511719 41.773438 7.546875 43.488281 6.660156 C 44.921875 5.933594 46.667969 6.265625 47.738281 7.46875 C 48.609375 8.449219 49.648438 9.621094 50.496094 10.566406 C 51.441406 11.632812 52.9375 12.027344 54.285156 11.566406 C 54.441406 11.511719 54.601562 11.460938 54.757812 11.410156 C 54.949219 11.308594 55.148438 11.226562 55.359375 11.160156 C 57.140625 10.613281 58.953125 10.167969 60.785156 9.824219 C 61.578125 9.542969 62.234375 8.988281 62.652344 8.273438 L 63.707031 3.140625 C 64.03125 1.5625 65.375 0.402344 66.984375 0.316406 C 67.980469 0.269531 68.976562 0.246094 69.972656 0.25 C 70.964844 0.246094 71.964844 0.269531 72.957031 0.316406 C 74.566406 0.402344 75.914062 1.5625 76.234375 3.140625 L 77.289062 8.273438 C 77.707031 8.988281 78.367188 9.542969 79.15625 9.824219 C 80.992188 10.167969 82.800781 10.613281 84.585938 11.160156 C 84.792969 11.226562 84.996094 11.308594 85.183594 11.410156 C 85.339844 11.460938 85.5 11.511719 85.65625 11.566406 C 87.003906 12.027344 88.5 11.632812 89.445312 10.566406 C 90.292969 9.621094 91.335938 8.449219 92.203125 7.46875 C 93.273438 6.265625 95.019531 5.933594 96.457031 6.660156 C 98.167969 7.546875 99.839844 8.511719 101.460938 9.558594 C 102.808594 10.4375 103.394531 12.113281 102.886719 13.636719 C 102.03125 16.222656 100.824219 19.851562 100.824219 19.851562 C 102.601562 21.273438 104.277344 22.816406 105.835938 24.46875 C 106.136719 24.789062 106.21875 25.257812 106.042969 25.664062 C 105.867188 26.066406 105.472656 26.328125 105.03125 26.328125 C 101.226562 26.328125 94.21875 26.328125 92.59375 26.328125 C 92.375 26.328125 92.15625 26.261719 91.972656 26.136719 C 90.394531 25.066406 88.730469 24.105469 86.996094 23.269531 C 86.835938 23.191406 86.679688 23.117188 86.519531 23.042969 L 86.515625 23.039062 L 86.273438 22.929688 L 86.042969 22.824219 L 86.019531 22.816406 L 85.785156 22.710938 L 85.5625 22.609375 L 85.523438 22.597656 L 85.296875 22.5 L 85.074219 22.40625 L 85.027344 22.386719 L 84.800781 22.292969 L 84.578125 22.203125 L 84.523438 22.179688 L 84.3125 22.097656 L 84.300781 22.09375 L 84.078125 22.007812 L 84.019531 21.984375 L 83.828125 21.910156 L 83.792969 21.898438 L 83.578125 21.816406 L 83.511719 21.792969 L 83.332031 21.726562 L 83.285156 21.710938 L 83.070312 21.632812 L 83.003906 21.609375 L 82.832031 21.550781 L 82.773438 21.53125 L 82.558594 21.457031 L 82.492188 21.433594 L 82.324219 21.378906 L 82.257812 21.355469 L 82.042969 21.285156 L 81.976562 21.265625 L 81.808594 21.210938 L 81.738281 21.191406 L 81.523438 21.125 L 81.464844 21.105469 L 81.292969 21.054688 L 81.21875 21.03125 L 80.945312 20.953125 L 80.769531 20.902344 L 80.695312 20.878906 L 80.476562 20.820312 L 80.429688 20.804688 L 80.246094 20.753906 L 80.167969 20.734375 L 79.96875 20.679688 L 79.941406 20.675781 L 79.921875 20.667969 L 79.714844 20.617188 L 79.640625 20.597656 L 79.449219 20.550781 L 79.40625 20.539062 L 79.183594 20.484375 L 79.109375 20.46875 L 78.925781 20.425781 L 78.871094 20.414062 L 78.648438 20.363281 L 78.574219 20.34375 L 78.394531 20.304688 L 78.335938 20.292969 L 78.109375 20.246094 L 78.042969 20.230469 L 77.859375 20.195312 L 77.796875 20.179688 L 77.570312 20.132812 L 77.503906 20.121094 L 77.320312 20.085938 L 77.253906 20.074219 L 77.027344 20.03125 L 76.96875 20.023438 L 76.777344 19.988281 L 76.710938 19.976562 L 76.480469 19.9375 L 76.429688 19.929688 L 76.234375 19.898438 L 76.164062 19.886719 L 75.929688 19.851562 L 75.894531 19.847656 L 75.683594 19.816406 L 75.617188 19.804688 L 75.378906 19.773438 L 75.359375 19.769531 L 75.132812 19.738281 L 75.066406 19.730469 L 74.839844 19.703125 L 74.820312 19.699219 L 74.578125 19.671875 L 74.515625 19.664062 L 74.300781 19.640625 L 74.265625 19.636719 L 74.023438 19.613281 L 73.960938 19.605469 L 73.75 19.585938 L 73.707031 19.582031 L 73.464844 19.558594 L 73.402344 19.554688 L 73.148438 19.535156 L 72.90625 19.515625 L 72.847656 19.511719 L 72.640625 19.496094 L 72.585938 19.492188 L 72.339844 19.480469 L 72.289062 19.476562 L 72.082031 19.464844 L 72.019531 19.460938 L 71.773438 19.449219 L 71.730469 19.449219 L 71.519531 19.441406 L 71.457031 19.4375 L 71.207031 19.429688 L 71.171875 19.429688 L 70.953125 19.421875 L 70.886719 19.421875 L 70.636719 19.417969 L 70.617188 19.417969 L 70.382812 19.414062 Z M 69.792969 19.414062 " fill-opacity="1" fill-rule="evenodd"/></g><path fill="#000000" d="M 61.792969 48.539062 L 69.125 44.644531 C 67.980469 43.566406 67.15625 42.199219 66.738281 40.6875 L 59.671875 45.566406 C 60.648438 46.335938 61.378906 47.371094 61.792969 48.539062 Z M 61.792969 48.539062 " fill-opacity="1" fill-rule="nonzero"/><path fill="#000000" d="M 53.113281 54.457031 C 54.148438 55.144531 55.347656 55.375 56.714844 55.035156 C 58.640625 54.519531 59.996094 52.757812 59.996094 50.753906 C 59.996094 50.59375 59.984375 50.445312 59.972656 50.285156 C 59.800781 48.664062 58.753906 47.269531 57.234375 46.640625 C 56.707031 46.417969 56.140625 46.308594 55.542969 46.308594 C 53.09375 46.308594 51.101562 48.300781 51.101562 50.753906 C 51.101562 52.265625 51.855469 53.648438 53.113281 54.457031 Z M 53.113281 54.457031 " fill-opacity="1" fill-rule="nonzero"/><g clip-path="url(#9e4c7a69f5)"><path fill="#000000" d="M 51.976562 84.660156 L 49.082031 75.902344 C 48.964844 75.550781 49.03125 75.167969 49.261719 74.878906 L 54.039062 68.863281 C 54.066406 68.832031 54.105469 68.8125 54.136719 68.785156 C 54.164062 68.753906 54.183594 68.714844 54.214844 68.6875 C 54.242188 68.667969 54.273438 68.664062 54.300781 68.644531 C 54.363281 68.601562 54.425781 68.574219 54.492188 68.546875 C 54.558594 68.519531 54.625 68.496094 54.691406 68.484375 C 54.757812 68.472656 54.824219 68.46875 54.890625 68.46875 C 54.964844 68.46875 55.03125 68.472656 55.101562 68.484375 C 55.171875 68.5 55.230469 68.519531 55.296875 68.546875 C 55.363281 68.574219 55.429688 68.605469 55.492188 68.644531 C 55.519531 68.664062 55.550781 68.667969 55.574219 68.6875 C 55.609375 68.714844 55.628906 68.753906 55.65625 68.785156 C 55.6875 68.816406 55.726562 68.832031 55.753906 68.867188 L 60.53125 74.882812 C 60.761719 75.171875 60.828125 75.554688 60.714844 75.902344 L 57.816406 84.660156 L 58.472656 85.316406 L 64.273438 74.359375 L 55.351562 65.078125 L 53.050781 65.078125 L 45.492188 74.300781 L 51.320312 85.3125 Z M 51.976562 84.660156 " fill-opacity="1" fill-rule="nonzero"/></g><g clip-path="url(#e0c82d64d9)"><path fill="#000000" d="M 71.699219 43.878906 C 73.28125 44.851562 75.363281 45.0625 77.121094 44.445312 C 79.695312 43.550781 81.421875 41.117188 81.421875 38.386719 C 81.421875 38.15625 81.410156 37.925781 81.375 37.707031 C 81.007812 34.425781 78.277344 31.988281 75.011719 31.988281 C 71.472656 31.988281 68.589844 34.855469 68.589844 38.386719 C 68.589844 38.457031 68.585938 38.527344 68.597656 38.601562 C 68.609375 38.652344 68.617188 38.707031 68.617188 38.761719 C 68.726562 40.867188 69.875 42.78125 71.699219 43.878906 Z M 71.699219 43.878906 " fill-opacity="1" fill-rule="nonzero"/></g><path fill="#000000" d="M 53.617188 57.082031 L 53.617188 62.890625 L 55.234375 62.890625 L 55.757812 57.355469 C 55.6875 57.359375 55.613281 57.371094 55.539062 57.371094 C 54.878906 57.371094 54.234375 57.273438 53.617188 57.082031 Z M 53.617188 57.082031 " fill-opacity="1" fill-rule="nonzero"/><g clip-path="url(#972eba2f2b)"><path fill="#000000" d="M 97.996094 44.9375 L 97.996094 49.914062 C 97.996094 49.914062 97.996094 49.917969 97.996094 49.917969 L 97.996094 64.085938 C 97.996094 64.097656 97.996094 64.105469 97.996094 64.117188 L 97.996094 76.144531 C 97.996094 77.039062 98.726562 77.765625 99.621094 77.765625 L 106.503906 77.765625 L 106.503906 43.316406 L 99.621094 43.316406 C 98.726562 43.316406 97.996094 44.042969 97.996094 44.941406 Z M 97.996094 44.9375 " fill-opacity="1" fill-rule="nonzero"/></g><path fill="#000000" d="M 95.808594 50.492188 L 83.472656 39.851562 C 83.042969 42.335938 81.535156 44.496094 79.375 45.773438 L 95.808594 61.550781 Z M 95.808594 50.492188 " fill-opacity="1" fill-rule="nonzero"/></svg>