<svg xmlns="http://www.w3.org/2000/svg" xmlns:xlink="http://www.w3.org/1999/xlink" width="1500" zoomAndPan="magnify" viewBox="0 0 1125 374.999991" height="500" preserveAspectRatio="xMidYMid meet" version="1.0"><defs><g/></defs><g fill="#8c52ff" fill-opacity="1"><g transform="translate(22.296726, 214.815903)"><g><path d="M 134.953125 -98.34375 C 132.929688 -106.71875 129.210938 -113.320312 123.796875 -118.15625 C 118.378906 -123 112.238281 -126.46875 105.375 -128.5625 C 98.519531 -130.65625 91.773438 -131.703125 85.140625 -131.703125 C 75.023438 -131.703125 65.921875 -129.28125 57.828125 -124.4375 C 49.742188 -119.601562 43.316406 -112.960938 38.546875 -104.515625 C 33.785156 -96.066406 31.40625 -86.429688 31.40625 -75.609375 C 31.40625 -64.773438 33.785156 -55.0625 38.546875 -46.46875 C 43.316406 -37.875 49.742188 -31.117188 57.828125 -26.203125 C 65.921875 -21.296875 75.023438 -18.84375 85.140625 -18.84375 C 91.492188 -18.84375 97.8125 -20.035156 104.09375 -22.421875 C 110.375 -24.804688 116.113281 -28.414062 121.3125 -33.25 C 126.507812 -38.09375 130.625 -44.265625 133.65625 -51.765625 L 76.46875 -51.765625 L 76.46875 -74.078125 L 159.875 -74.078125 C 159.289062 -67.585938 158.707031 -62.140625 158.125 -57.734375 C 157.550781 -53.328125 156.6875 -49.820312 155.53125 -47.21875 L 155.53125 -47.4375 C 152.070312 -37.613281 146.550781 -28.945312 138.96875 -21.4375 C 131.382812 -13.9375 122.863281 -8.054688 113.40625 -3.796875 C 103.945312 0.460938 94.523438 2.59375 85.140625 2.59375 C 74.304688 2.59375 64.265625 0.679688 55.015625 -3.140625 C 45.773438 -6.960938 37.722656 -12.375 30.859375 -19.375 C 24.003906 -26.382812 18.660156 -34.65625 14.828125 -44.1875 C 11.003906 -53.71875 9.09375 -64.191406 9.09375 -75.609375 C 9.09375 -87.015625 11.039062 -97.519531 14.9375 -107.125 C 18.84375 -116.726562 24.257812 -125.03125 31.1875 -132.03125 C 38.125 -139.039062 46.175781 -144.457031 55.34375 -148.28125 C 64.519531 -152.101562 74.453125 -154.015625 85.140625 -154.015625 C 92.503906 -154.015625 100.082031 -153.039062 107.875 -151.09375 C 115.675781 -149.144531 123.039062 -146.003906 129.96875 -141.671875 C 136.90625 -137.335938 142.9375 -131.597656 148.0625 -124.453125 C 153.1875 -117.304688 156.757812 -108.601562 158.78125 -98.34375 Z M 134.953125 -98.34375 "/></g></g></g><g fill="#ffbd59" fill-opacity="1"><g transform="translate(235.878086, 214.815903)"><g><path d="M 73.875 -76.90625 C 80.082031 -76.90625 85.207031 -78.203125 89.25 -80.796875 C 93.289062 -83.398438 96.320312 -86.722656 98.34375 -90.765625 C 100.363281 -94.804688 101.375 -98.992188 101.375 -103.328125 C 101.375 -107.660156 100.363281 -111.992188 98.34375 -116.328125 C 96.320312 -120.660156 93.289062 -124.269531 89.25 -127.15625 C 85.207031 -130.039062 80.082031 -131.484375 73.875 -131.484375 L 40.296875 -131.484375 L 40.296875 0 L 18.625 0 L 18.625 -153.59375 L 73.875 -153.59375 C 82.101562 -153.59375 89.320312 -152.109375 95.53125 -149.140625 C 101.738281 -146.179688 106.898438 -142.28125 111.015625 -137.4375 C 115.128906 -132.601562 118.195312 -127.222656 120.21875 -121.296875 C 122.25 -115.378906 123.265625 -109.390625 123.265625 -103.328125 C 123.265625 -96.253906 121.816406 -89.429688 118.921875 -82.859375 C 116.035156 -76.285156 111.664062 -70.722656 105.8125 -66.171875 C 99.96875 -61.628906 92.710938 -58.5625 84.046875 -56.96875 L 131.921875 0 L 103.546875 0 L 48.3125 -66.5 L 48.3125 -76.90625 Z M 73.875 -76.90625 "/></g></g></g><g fill="#0cc0df" fill-opacity="1"><g transform="translate(407.237439, 214.815903)"><g><path d="M 37.46875 -38.34375 L 22.75 0 L -0.859375 0 L 60 -153.59375 L 76.03125 -153.59375 L 136.90625 0 L 113.515625 0 L 99 -38.34375 Z M 90.984375 -58.921875 L 68.234375 -118.703125 L 45.484375 -58.921875 Z M 90.984375 -58.921875 "/></g></g></g><g fill="#7ed957" fill-opacity="1"><g transform="translate(586.848514, 214.815903)"><g><path d="M 73 -152.9375 C 85.414062 -152.9375 96.28125 -150.734375 105.59375 -146.328125 C 114.914062 -141.921875 122.679688 -136 128.890625 -128.5625 C 135.097656 -121.125 139.753906 -112.820312 142.859375 -103.65625 C 145.960938 -94.488281 147.515625 -85.140625 147.515625 -75.609375 C 147.515625 -66.078125 145.960938 -56.832031 142.859375 -47.875 C 139.753906 -38.914062 135.097656 -30.828125 128.890625 -23.609375 C 122.679688 -16.390625 114.914062 -10.648438 105.59375 -6.390625 C 96.28125 -2.128906 85.414062 0 73 0 L 18.625 0 L 18.625 -152.9375 Z M 73 -21.875 C 84.695312 -21.875 94.476562 -24.472656 102.34375 -29.671875 C 110.21875 -34.867188 116.101562 -41.582031 120 -49.8125 C 123.90625 -58.050781 125.859375 -66.648438 125.859375 -75.609375 C 125.859375 -82.390625 124.738281 -89.03125 122.5 -95.53125 C 120.257812 -102.03125 116.9375 -107.988281 112.53125 -113.40625 C 108.125 -118.820312 102.632812 -123.117188 96.0625 -126.296875 C 89.5 -129.472656 81.8125 -131.0625 73 -131.0625 L 40.515625 -131.0625 L 40.515625 -21.875 Z M 73 -21.875 "/></g></g></g><g fill="#ff5757" fill-opacity="1"><g transform="translate(786.146437, 214.815903)"><g><path d="M 72.78125 1.515625 C 66.144531 1.515625 59.503906 0.503906 52.859375 -1.515625 C 46.210938 -3.535156 40.179688 -6.492188 34.765625 -10.390625 C 29.347656 -14.296875 24.976562 -19.171875 21.65625 -25.015625 C 18.34375 -30.867188 16.6875 -37.691406 16.6875 -45.484375 L 16.6875 -153.15625 L 38.78125 -153.15625 L 38.78125 -45.28125 C 38.78125 -39.789062 40.507812 -35.164062 43.96875 -31.40625 C 47.4375 -27.65625 51.769531 -24.875 56.96875 -23.0625 C 62.164062 -21.257812 67.4375 -20.359375 72.78125 -20.359375 C 78.125 -20.359375 83.359375 -21.296875 88.484375 -23.171875 C 93.617188 -25.054688 97.914062 -27.875 101.375 -31.625 C 104.84375 -35.382812 106.578125 -40.003906 106.578125 -45.484375 L 106.578125 -153.15625 L 128.671875 -153.15625 L 128.671875 -45.28125 C 128.671875 -37.625 127.007812 -30.867188 123.6875 -25.015625 C 120.363281 -19.171875 115.957031 -14.296875 110.46875 -10.390625 C 104.988281 -6.492188 98.960938 -3.535156 92.390625 -1.515625 C 85.816406 0.503906 79.28125 1.515625 72.78125 1.515625 Z M 72.78125 1.515625 "/></g></g></g><g fill="#000000" fill-opacity="1"><g transform="translate(973.757925, 214.815903)"><g><path d="M 94.453125 -112.421875 C 93.441406 -116.898438 91.347656 -120.546875 88.171875 -123.359375 C 84.992188 -126.179688 81.273438 -128.273438 77.015625 -129.640625 C 72.753906 -131.015625 68.457031 -131.703125 64.125 -131.703125 C 58.925781 -131.703125 53.722656 -130.800781 48.515625 -129 C 43.316406 -127.195312 39.128906 -124.273438 35.953125 -120.234375 C 34.660156 -118.640625 33.722656 -116.796875 33.140625 -114.703125 C 32.566406 -112.609375 32.28125 -110.476562 32.28125 -108.3125 C 32.28125 -102.53125 33.972656 -98.195312 37.359375 -95.3125 C 40.753906 -92.425781 45.085938 -90.476562 50.359375 -89.46875 C 55.628906 -88.457031 61.082031 -87.660156 66.71875 -87.078125 C 71.914062 -86.503906 77.257812 -85.601562 82.75 -84.375 C 88.238281 -83.144531 93.472656 -81.375 98.453125 -79.0625 C 103.429688 -76.757812 107.765625 -73.65625 111.453125 -69.75 C 115.140625 -65.851562 117.703125 -60.875 119.140625 -54.8125 C 119.867188 -51.195312 120.234375 -47.875 120.234375 -44.84375 C 120.234375 -37.476562 118.609375 -30.941406 115.359375 -25.234375 C 112.109375 -19.535156 107.773438 -14.695312 102.359375 -10.71875 C 96.941406 -6.75 90.875 -3.753906 84.15625 -1.734375 C 77.4375 0.285156 70.6875 1.296875 63.90625 1.296875 C 58.125 1.296875 52.164062 0.429688 46.03125 -1.296875 C 39.894531 -3.035156 34.191406 -5.597656 28.921875 -8.984375 C 23.648438 -12.378906 19.242188 -16.640625 15.703125 -21.765625 C 12.160156 -26.898438 10.03125 -32.859375 9.3125 -39.640625 L 9.09375 -43.765625 L 31.1875 -44.1875 L 31.40625 -40.9375 L 31.40625 -41.8125 C 31.988281 -37.1875 33.972656 -33.25 37.359375 -30 C 40.753906 -26.75 44.90625 -24.328125 49.8125 -22.734375 C 54.726562 -21.148438 59.5 -20.359375 64.125 -20.359375 C 69.613281 -20.359375 74.957031 -21.332031 80.15625 -23.28125 C 85.351562 -25.238281 89.644531 -28.054688 93.03125 -31.734375 C 96.425781 -35.421875 98.125 -39.863281 98.125 -45.0625 C 98.125 -46.644531 97.910156 -48.375 97.484375 -50.25 C 96.617188 -54.15625 94.488281 -57.082031 91.09375 -59.03125 C 87.695312 -60.976562 83.613281 -62.382812 78.84375 -63.25 C 74.082031 -64.113281 69.175781 -64.765625 64.125 -65.203125 C 58.195312 -65.785156 52.203125 -66.6875 46.140625 -67.90625 C 40.078125 -69.132812 34.445312 -71.117188 29.25 -73.859375 C 24.050781 -76.609375 19.753906 -80.398438 16.359375 -85.234375 C 12.960938 -90.078125 10.972656 -96.46875 10.390625 -104.40625 L 10.390625 -104.203125 C 10.390625 -104.921875 10.351562 -105.566406 10.28125 -106.140625 C 10.21875 -106.722656 10.1875 -107.300781 10.1875 -107.875 C 10.1875 -117.257812 13 -125.632812 18.625 -133 C 23.6875 -139.644531 30.40625 -144.664062 38.78125 -148.0625 C 47.15625 -151.457031 55.742188 -153.15625 64.546875 -153.15625 C 72.347656 -153.15625 79.96875 -151.742188 87.40625 -148.921875 C 94.84375 -146.109375 101.160156 -141.773438 106.359375 -135.921875 C 111.554688 -130.078125 114.804688 -122.535156 116.109375 -113.296875 Z M 94.453125 -112.421875 "/></g></g></g><g fill="#000000" fill-opacity="1"><g transform="translate(301.178776, 343.409996)"><g><path d="M 20.59375 -52.296875 L 2.078125 -52.296875 L 2.078125 -53.984375 L 40.71875 -53.984375 L 40.71875 -52.296875 L 22.21875 -52.296875 L 22.21875 0 L 20.59375 0 Z M 20.59375 -52.296875 "/></g></g></g><g fill="#000000" fill-opacity="1"><g transform="translate(344.440879, 343.409996)"><g><path d="M 5.46875 -20.828125 C 5.46875 -19.429688 5.582031 -18.050781 5.8125 -16.6875 C 6.050781 -15.332031 6.425781 -14.007812 6.9375 -12.71875 C 8.226562 -9.476562 10.320312 -6.753906 13.21875 -4.546875 C 16.125 -2.335938 19.84375 -1.234375 24.375 -1.234375 C 28.175781 -1.234375 31.554688 -2.117188 34.515625 -3.890625 C 37.472656 -5.671875 39.75 -8.28125 41.34375 -11.71875 L 42.953125 -11.71875 C 41.359375 -7.8125 38.925781 -4.828125 35.65625 -2.765625 C 32.394531 -0.710938 28.632812 0.3125 24.375 0.3125 C 19.4375 0.3125 15.398438 -0.894531 12.265625 -3.3125 C 9.128906 -5.726562 6.863281 -8.6875 5.46875 -12.1875 C 4.957031 -13.519531 4.570312 -14.921875 4.3125 -16.390625 C 4.0625 -17.859375 3.9375 -19.335938 3.9375 -20.828125 C 3.9375 -22.316406 4.0625 -23.78125 4.3125 -25.21875 C 4.570312 -26.65625 4.957031 -28.046875 5.46875 -29.390625 C 6.863281 -32.878906 9.128906 -35.832031 12.265625 -38.25 C 15.398438 -40.664062 19.4375 -41.875 24.375 -41.875 C 28.4375 -41.875 31.992188 -40.960938 35.046875 -39.140625 C 38.109375 -37.316406 40.5 -34.820312 42.21875 -31.65625 C 43.945312 -28.5 44.785156 -24.890625 44.734375 -20.828125 Z M 43.1875 -22.296875 C 42.976562 -25.835938 42.050781 -28.96875 40.40625 -31.6875 C 38.769531 -34.414062 36.585938 -36.539062 33.859375 -38.0625 C 31.128906 -39.582031 27.96875 -40.34375 24.375 -40.34375 C 19.84375 -40.34375 16.125 -39.234375 13.21875 -37.015625 C 10.320312 -34.804688 8.226562 -32.082031 6.9375 -28.84375 C 6.53125 -27.8125 6.207031 -26.742188 5.96875 -25.640625 C 5.738281 -24.535156 5.570312 -23.421875 5.46875 -22.296875 Z M 43.1875 -22.296875 "/></g></g></g><g fill="#000000" fill-opacity="1"><g transform="translate(393.101098, 343.409996)"><g><path d="M 25.140625 -40.40625 C 20.617188 -40.40625 16.90625 -39.300781 14 -37.09375 C 11.09375 -34.882812 9 -32.160156 7.71875 -28.921875 C 7.195312 -27.640625 6.820312 -26.316406 6.59375 -24.953125 C 6.363281 -23.585938 6.25 -22.238281 6.25 -20.90625 C 6.25 -19.507812 6.363281 -18.128906 6.59375 -16.765625 C 6.820312 -15.410156 7.195312 -14.085938 7.71875 -12.796875 C 9 -9.554688 11.09375 -6.832031 14 -4.625 C 16.90625 -2.414062 20.617188 -1.3125 25.140625 -1.3125 C 29.566406 -1.3125 33.304688 -2.300781 36.359375 -4.28125 C 39.421875 -6.257812 41.519531 -9.4375 42.65625 -13.8125 L 44.265625 -13.8125 C 43.140625 -8.976562 40.890625 -5.425781 37.515625 -3.15625 C 34.148438 -0.894531 30.023438 0.234375 25.140625 0.234375 C 20.253906 0.234375 16.226562 -0.972656 13.0625 -3.390625 C 9.90625 -5.804688 7.632812 -8.765625 6.25 -12.265625 C 5.21875 -15.035156 4.703125 -17.914062 4.703125 -20.90625 C 4.703125 -23.832031 5.21875 -26.6875 6.25 -29.46875 C 7.632812 -32.957031 9.90625 -35.910156 13.0625 -38.328125 C 16.226562 -40.742188 20.253906 -41.953125 25.140625 -41.953125 C 30.484375 -41.898438 34.722656 -40.640625 37.859375 -38.171875 C 41.003906 -35.703125 43.113281 -32.390625 44.1875 -28.234375 L 42.578125 -28.234375 C 41.546875 -31.984375 39.601562 -34.9375 36.75 -37.09375 C 33.894531 -39.257812 30.023438 -40.363281 25.140625 -40.40625 Z M 25.140625 -40.40625 "/></g></g></g><g fill="#000000" fill-opacity="1"><g transform="translate(441.607099, 343.409996)"><g><path d="M 7.5625 -53.90625 L 9.09375 -53.90625 L 9.03125 -30.234375 C 9.75 -32.753906 10.828125 -34.8125 12.265625 -36.40625 C 14.066406 -38.300781 16.148438 -39.671875 18.515625 -40.515625 C 20.878906 -41.367188 23.320312 -41.796875 25.84375 -41.796875 C 29.695312 -41.796875 32.957031 -40.957031 35.625 -39.28125 C 38.300781 -37.613281 40.347656 -35.34375 41.765625 -32.46875 C 43.179688 -29.59375 43.890625 -26.273438 43.890625 -22.515625 L 43.890625 0 L 42.34375 0 L 42.34375 -22.515625 C 42.34375 -25.960938 41.695312 -29.007812 40.40625 -31.65625 C 39.125 -34.300781 37.257812 -36.394531 34.8125 -37.9375 C 32.375 -39.488281 29.359375 -40.265625 25.765625 -40.265625 C 23.453125 -40.265625 21.226562 -39.878906 19.09375 -39.109375 C 16.957031 -38.335938 15.066406 -37.078125 13.421875 -35.328125 C 12.128906 -33.929688 11.097656 -32.21875 10.328125 -30.1875 C 9.554688 -28.15625 9.144531 -25.726562 9.09375 -22.90625 L 9.09375 0 L 7.5625 0 Z M 7.5625 -53.90625 "/></g></g></g><g fill="#000000" fill-opacity="1"><g transform="translate(492.889277, 343.409996)"><g><path d="M 7.5625 -41.71875 L 9.09375 -41.71875 L 9.03125 -30.234375 C 9.75 -32.753906 10.851562 -34.8125 12.34375 -36.40625 C 14.09375 -38.300781 16.148438 -39.671875 18.515625 -40.515625 C 20.878906 -41.367188 23.320312 -41.796875 25.84375 -41.796875 C 29.75 -41.796875 33.035156 -40.957031 35.703125 -39.28125 C 38.378906 -37.613281 40.410156 -35.328125 41.796875 -32.421875 C 43.191406 -29.523438 43.890625 -26.195312 43.890625 -22.4375 L 43.890625 0 L 42.34375 0 L 42.34375 -22.4375 C 42.34375 -25.882812 41.722656 -28.941406 40.484375 -31.609375 C 39.253906 -34.285156 37.40625 -36.394531 34.9375 -37.9375 C 32.46875 -39.488281 29.410156 -40.265625 25.765625 -40.265625 C 23.492188 -40.265625 21.28125 -39.878906 19.125 -39.109375 C 16.96875 -38.335938 15.066406 -37.078125 13.421875 -35.328125 C 12.128906 -33.929688 11.109375 -32.21875 10.359375 -30.1875 C 9.617188 -28.15625 9.222656 -25.726562 9.171875 -22.90625 L 9.171875 0 L 7.5625 0 Z M 7.5625 -41.71875 "/></g></g></g><g fill="#000000" fill-opacity="1"><g transform="translate(544.248564, 343.409996)"><g><path d="M 25.140625 0.234375 C 20.828125 0.234375 17.023438 -0.832031 13.734375 -2.96875 C 10.441406 -5.101562 7.972656 -8.203125 6.328125 -12.265625 C 5.242188 -15.035156 4.703125 -17.914062 4.703125 -20.90625 C 4.703125 -23.882812 5.242188 -26.757812 6.328125 -29.53125 C 7.921875 -33.539062 10.375 -36.625 13.6875 -38.78125 C 17.007812 -40.945312 20.828125 -42.03125 25.140625 -42.03125 C 29.566406 -42.03125 33.5 -40.972656 36.9375 -38.859375 C 40.382812 -36.753906 42.90625 -33.644531 44.5 -29.53125 C 45.0625 -28.144531 45.457031 -26.734375 45.6875 -25.296875 C 45.925781 -23.859375 46.046875 -22.394531 46.046875 -20.90625 C 46.046875 -19.457031 45.925781 -18 45.6875 -16.53125 C 45.457031 -15.070312 45.0625 -13.648438 44.5 -12.265625 C 42.90625 -8.148438 40.398438 -5.035156 36.984375 -2.921875 C 33.566406 -0.816406 29.617188 0.234375 25.140625 0.234375 Z M 7.71875 -28.921875 C 7.25 -27.640625 6.882812 -26.328125 6.625 -24.984375 C 6.375 -23.648438 6.25 -22.289062 6.25 -20.90625 C 6.25 -18.175781 6.738281 -15.5 7.71875 -12.875 C 9.207031 -9.125 11.476562 -6.242188 14.53125 -4.234375 C 17.59375 -2.234375 21.128906 -1.234375 25.140625 -1.234375 C 29.253906 -1.234375 32.890625 -2.207031 36.046875 -4.15625 C 39.210938 -6.113281 41.539062 -9.019531 43.03125 -12.875 C 43.550781 -14.113281 43.925781 -15.410156 44.15625 -16.765625 C 44.382812 -18.128906 44.5 -19.507812 44.5 -20.90625 C 44.5 -23.78125 44.007812 -26.453125 43.03125 -28.921875 C 41.539062 -32.773438 39.238281 -35.675781 36.125 -37.625 C 33.019531 -39.582031 29.4375 -40.5625 25.375 -40.5625 C 21.3125 -40.5625 17.722656 -39.582031 14.609375 -37.625 C 11.503906 -35.675781 9.207031 -32.773438 7.71875 -28.921875 Z M 7.71875 -28.921875 "/></g></g></g><g fill="#000000" fill-opacity="1"><g transform="translate(595.068034, 343.409996)"><g><path d="M 8.015625 0 L 6.484375 0 L 6.484375 -53.90625 L 8.015625 -53.90625 Z M 8.015625 0 "/></g></g></g><g fill="#000000" fill-opacity="1"><g transform="translate(610.645496, 343.409996)"><g><path d="M 25.140625 0.234375 C 20.828125 0.234375 17.023438 -0.832031 13.734375 -2.96875 C 10.441406 -5.101562 7.972656 -8.203125 6.328125 -12.265625 C 5.242188 -15.035156 4.703125 -17.914062 4.703125 -20.90625 C 4.703125 -23.882812 5.242188 -26.757812 6.328125 -29.53125 C 7.921875 -33.539062 10.375 -36.625 13.6875 -38.78125 C 17.007812 -40.945312 20.828125 -42.03125 25.140625 -42.03125 C 29.566406 -42.03125 33.5 -40.972656 36.9375 -38.859375 C 40.382812 -36.753906 42.90625 -33.644531 44.5 -29.53125 C 45.0625 -28.144531 45.457031 -26.734375 45.6875 -25.296875 C 45.925781 -23.859375 46.046875 -22.394531 46.046875 -20.90625 C 46.046875 -19.457031 45.925781 -18 45.6875 -16.53125 C 45.457031 -15.070312 45.0625 -13.648438 44.5 -12.265625 C 42.90625 -8.148438 40.398438 -5.035156 36.984375 -2.921875 C 33.566406 -0.816406 29.617188 0.234375 25.140625 0.234375 Z M 7.71875 -28.921875 C 7.25 -27.640625 6.882812 -26.328125 6.625 -24.984375 C 6.375 -23.648438 6.25 -22.289062 6.25 -20.90625 C 6.25 -18.175781 6.738281 -15.5 7.71875 -12.875 C 9.207031 -9.125 11.476562 -6.242188 14.53125 -4.234375 C 17.59375 -2.234375 21.128906 -1.234375 25.140625 -1.234375 C 29.253906 -1.234375 32.890625 -2.207031 36.046875 -4.15625 C 39.210938 -6.113281 41.539062 -9.019531 43.03125 -12.875 C 43.550781 -14.113281 43.925781 -15.410156 44.15625 -16.765625 C 44.382812 -18.128906 44.5 -19.507812 44.5 -20.90625 C 44.5 -23.78125 44.007812 -26.453125 43.03125 -28.921875 C 41.539062 -32.773438 39.238281 -35.675781 36.125 -37.625 C 33.019531 -39.582031 29.4375 -40.5625 25.375 -40.5625 C 21.3125 -40.5625 17.722656 -39.582031 14.609375 -37.625 C 11.503906 -35.675781 9.207031 -32.773438 7.71875 -28.921875 Z M 7.71875 -28.921875 "/></g></g></g><g fill="#000000" fill-opacity="1"><g transform="translate(661.464949, 343.409996)"><g><path d="M 25.140625 -41.953125 C 29.671875 -41.953125 33.644531 -40.804688 37.0625 -38.515625 C 40.476562 -36.234375 42.828125 -32.878906 44.109375 -28.453125 L 44.109375 -41.71875 L 45.578125 -41.71875 L 45.578125 -4.9375 C 45.578125 -0.976562 44.710938 2.566406 42.984375 5.703125 C 41.265625 8.835938 38.875 11.289062 35.8125 13.0625 C 32.757812 14.84375 29.203125 15.734375 25.140625 15.734375 C 20.828125 15.734375 16.972656 14.691406 13.578125 12.609375 C 10.179688 10.523438 7.738281 7.375 6.25 3.15625 L 7.859375 3.15625 C 9.148438 6.601562 11.335938 9.300781 14.421875 11.25 C 17.503906 13.207031 21.078125 14.1875 25.140625 14.1875 C 28.890625 14.1875 32.175781 13.363281 35 11.71875 C 37.832031 10.070312 40.046875 7.804688 41.640625 4.921875 C 43.234375 2.046875 44.03125 -1.210938 44.03125 -4.859375 L 44.109375 -13.5 C 42.773438 -9.125 40.421875 -5.738281 37.046875 -3.34375 C 33.679688 -0.957031 29.710938 0.234375 25.140625 0.234375 C 20.253906 0.234375 16.226562 -0.972656 13.0625 -3.390625 C 9.90625 -5.804688 7.632812 -8.765625 6.25 -12.265625 C 5.21875 -15.035156 4.703125 -17.914062 4.703125 -20.90625 C 4.703125 -23.832031 5.21875 -26.6875 6.25 -29.46875 C 7.632812 -32.957031 9.90625 -35.910156 13.0625 -38.328125 C 16.226562 -40.742188 20.253906 -41.953125 25.140625 -41.953125 Z M 42.578125 -12.796875 C 43.085938 -14.085938 43.457031 -15.410156 43.6875 -16.765625 C 43.914062 -18.128906 44.03125 -19.507812 44.03125 -20.90625 C 44.03125 -22.238281 43.914062 -23.585938 43.6875 -24.953125 C 43.457031 -26.316406 43.085938 -27.640625 42.578125 -28.921875 C 41.285156 -32.160156 39.195312 -34.882812 36.3125 -37.09375 C 33.4375 -39.300781 29.710938 -40.40625 25.140625 -40.40625 C 20.617188 -40.40625 16.90625 -39.300781 14 -37.09375 C 11.09375 -34.882812 9 -32.160156 7.71875 -28.921875 C 7.195312 -27.640625 6.820312 -26.316406 6.59375 -24.953125 C 6.363281 -23.585938 6.25 -22.238281 6.25 -20.90625 C 6.25 -19.507812 6.363281 -18.128906 6.59375 -16.765625 C 6.820312 -15.410156 7.195312 -14.085938 7.71875 -12.796875 C 9 -9.554688 11.09375 -6.832031 14 -4.625 C 16.90625 -2.414062 20.617188 -1.3125 25.140625 -1.3125 C 29.710938 -1.3125 33.4375 -2.414062 36.3125 -4.625 C 39.195312 -6.832031 41.285156 -9.554688 42.578125 -12.796875 Z M 42.578125 -12.796875 "/></g></g></g><g fill="#000000" fill-opacity="1"><g transform="translate(714.520778, 343.409996)"><g><path d="M 8.015625 -52.296875 C 8.429688 -52.296875 8.789062 -52.140625 9.09375 -51.828125 C 9.40625 -51.515625 9.5625 -51.15625 9.5625 -50.75 C 9.5625 -50.332031 9.40625 -49.96875 9.09375 -49.65625 C 8.789062 -49.351562 8.429688 -49.203125 8.015625 -49.203125 C 7.609375 -49.203125 7.25 -49.351562 6.9375 -49.65625 C 6.632812 -49.96875 6.484375 -50.332031 6.484375 -50.75 C 6.484375 -51.15625 6.632812 -51.515625 6.9375 -51.828125 C 7.25 -52.140625 7.609375 -52.296875 8.015625 -52.296875 Z M 8.796875 -41.875 L 7.25 -41.875 L 7.25 0 L 8.796875 0 Z M 8.796875 -41.875 "/></g></g></g><g fill="#000000" fill-opacity="1"><g transform="translate(730.869402, 343.409996)"><g><path d="M 5.46875 -20.828125 C 5.46875 -19.429688 5.582031 -18.050781 5.8125 -16.6875 C 6.050781 -15.332031 6.425781 -14.007812 6.9375 -12.71875 C 8.226562 -9.476562 10.320312 -6.753906 13.21875 -4.546875 C 16.125 -2.335938 19.84375 -1.234375 24.375 -1.234375 C 28.175781 -1.234375 31.554688 -2.117188 34.515625 -3.890625 C 37.472656 -5.671875 39.75 -8.28125 41.34375 -11.71875 L 42.953125 -11.71875 C 41.359375 -7.8125 38.925781 -4.828125 35.65625 -2.765625 C 32.394531 -0.710938 28.632812 0.3125 24.375 0.3125 C 19.4375 0.3125 15.398438 -0.894531 12.265625 -3.3125 C 9.128906 -5.726562 6.863281 -8.6875 5.46875 -12.1875 C 4.957031 -13.519531 4.570312 -14.921875 4.3125 -16.390625 C 4.0625 -17.859375 3.9375 -19.335938 3.9375 -20.828125 C 3.9375 -22.316406 4.0625 -23.78125 4.3125 -25.21875 C 4.570312 -26.65625 4.957031 -28.046875 5.46875 -29.390625 C 6.863281 -32.878906 9.128906 -35.832031 12.265625 -38.25 C 15.398438 -40.664062 19.4375 -41.875 24.375 -41.875 C 28.4375 -41.875 31.992188 -40.960938 35.046875 -39.140625 C 38.109375 -37.316406 40.5 -34.820312 42.21875 -31.65625 C 43.945312 -28.5 44.785156 -24.890625 44.734375 -20.828125 Z M 43.1875 -22.296875 C 42.976562 -25.835938 42.050781 -28.96875 40.40625 -31.6875 C 38.769531 -34.414062 36.585938 -36.539062 33.859375 -38.0625 C 31.128906 -39.582031 27.96875 -40.34375 24.375 -40.34375 C 19.84375 -40.34375 16.125 -39.234375 13.21875 -37.015625 C 10.320312 -34.804688 8.226562 -32.082031 6.9375 -28.84375 C 6.53125 -27.8125 6.207031 -26.742188 5.96875 -25.640625 C 5.738281 -24.535156 5.570312 -23.421875 5.46875 -22.296875 Z M 43.1875 -22.296875 "/></g></g></g><g fill="#000000" fill-opacity="1"><g transform="translate(779.529622, 343.409996)"><g><path d="M 36.171875 -30.625 C 36.171875 -32.988281 35.347656 -34.941406 33.703125 -36.484375 C 32.054688 -38.023438 30.023438 -39.128906 27.609375 -39.796875 C 25.609375 -40.359375 23.601562 -40.640625 21.59375 -40.640625 C 20.613281 -40.640625 19.609375 -40.578125 18.578125 -40.453125 C 17.554688 -40.328125 16.582031 -40.132812 15.65625 -39.875 C 13.394531 -39.207031 11.476562 -38.125 9.90625 -36.625 C 8.34375 -35.132812 7.5625 -33.179688 7.5625 -30.765625 C 7.5625 -28.554688 8.253906 -26.898438 9.640625 -25.796875 C 11.023438 -24.691406 12.820312 -23.921875 15.03125 -23.484375 C 17.25 -23.046875 19.566406 -22.671875 21.984375 -22.359375 C 24.035156 -22.109375 26.050781 -21.816406 28.03125 -21.484375 C 30.007812 -21.148438 31.796875 -20.617188 33.390625 -19.890625 C 34.984375 -19.171875 36.253906 -18.15625 37.203125 -16.84375 C 38.160156 -15.539062 38.640625 -13.78125 38.640625 -11.5625 C 38.640625 -8.6875 37.710938 -6.320312 35.859375 -4.46875 C 34.015625 -2.625 31.726562 -1.289062 29 -0.46875 C 27.039062 0.101562 25.035156 0.390625 22.984375 0.390625 C 21.742188 0.390625 20.492188 0.3125 19.234375 0.15625 C 17.984375 0 16.765625 -0.253906 15.578125 -0.609375 C 12.703125 -1.484375 10.257812 -2.9375 8.25 -4.96875 C 6.25 -7 5.25 -9.609375 5.25 -12.796875 L 6.78125 -12.796875 C 6.78125 -10.023438 7.679688 -7.738281 9.484375 -5.9375 C 11.285156 -4.132812 13.445312 -2.847656 15.96875 -2.078125 C 17.96875 -1.460938 20.097656 -1.15625 22.359375 -1.15625 C 24.421875 -1.101562 26.503906 -1.382812 28.609375 -2 C 31.023438 -2.71875 33.039062 -3.875 34.65625 -5.46875 C 36.28125 -7.0625 37.09375 -9.09375 37.09375 -11.5625 C 37.09375 -13.414062 36.65625 -14.90625 35.78125 -16.03125 C 34.90625 -17.164062 33.734375 -18.03125 32.265625 -18.625 C 30.804688 -19.21875 29.175781 -19.679688 27.375 -20.015625 C 25.582031 -20.347656 23.734375 -20.617188 21.828125 -20.828125 C 19.816406 -21.078125 17.859375 -21.367188 15.953125 -21.703125 C 14.054688 -22.046875 12.363281 -22.535156 10.875 -23.171875 C 9.382812 -23.816406 8.1875 -24.742188 7.28125 -25.953125 C 6.382812 -27.160156 5.9375 -28.765625 5.9375 -30.765625 C 5.9375 -33.546875 6.835938 -35.820312 8.640625 -37.59375 C 10.441406 -39.375 12.625 -40.625 15.1875 -41.34375 C 16.21875 -41.644531 17.269531 -41.859375 18.34375 -41.984375 C 19.425781 -42.117188 20.507812 -42.1875 21.59375 -42.1875 C 23.75 -42.1875 25.882812 -41.90625 28 -41.34375 C 30.71875 -40.519531 33.015625 -39.207031 34.890625 -37.40625 C 36.773438 -35.601562 37.71875 -33.34375 37.71875 -30.625 Z M 36.171875 -30.625 "/></g></g></g></svg>