<svg xmlns="http://www.w3.org/2000/svg" xmlns:xlink="http://www.w3.org/1999/xlink" width="158" zoomAndPan="magnify" viewBox="0 0 118.5 116.999995" height="156" preserveAspectRatio="xMidYMid meet" version="1.0"><defs><clipPath id="e47d6a114e"><path d="M 11.761719 0.246094 L 106.148438 0.246094 L 106.148438 116.753906 L 11.761719 116.753906 Z M 11.761719 0.246094 " clip-rule="nonzero"/></clipPath><clipPath id="25fd9f931d"><path d="M 46.378906 28.769531 L 105.992188 28.769531 L 105.992188 88.378906 L 46.378906 88.378906 Z M 46.378906 28.769531 " clip-rule="nonzero"/></clipPath></defs><g clip-path="url(#e47d6a114e)"><path fill="#000000" d="M 69.792969 19.414062 L 69.703125 19.417969 L 69.519531 19.417969 L 69.414062 19.421875 L 69.246094 19.421875 L 69.136719 19.425781 L 68.976562 19.429688 L 68.867188 19.433594 L 68.699219 19.4375 L 68.59375 19.441406 L 68.417969 19.449219 L 68.324219 19.453125 L 68.105469 19.464844 L 68.058594 19.464844 L 67.789062 19.480469 L 67.710938 19.484375 L 67.523438 19.496094 L 67.421875 19.503906 C 67.421875 19.503906 67.300781 19.511719 67.253906 19.515625 C 67.21875 19.519531 67.183594 19.519531 67.144531 19.523438 C 67.101562 19.527344 67.03125 19.53125 66.988281 19.535156 C 66.949219 19.539062 66.914062 19.539062 66.875 19.542969 C 66.832031 19.546875 66.761719 19.554688 66.714844 19.554688 C 66.679688 19.558594 66.644531 19.5625 66.609375 19.566406 C 66.5625 19.570312 66.488281 19.578125 66.441406 19.582031 C 66.410156 19.585938 66.375 19.585938 66.34375 19.589844 C 66.296875 19.59375 66.195312 19.605469 66.148438 19.609375 C 66.125 19.613281 66.101562 19.613281 66.078125 19.617188 C 66.023438 19.621094 65.871094 19.636719 65.816406 19.644531 C 65.792969 19.644531 65.769531 19.648438 65.746094 19.652344 C 65.703125 19.65625 65.601562 19.667969 65.550781 19.671875 C 65.519531 19.675781 65.484375 19.679688 65.453125 19.683594 C 65.410156 19.691406 65.335938 19.699219 65.289062 19.703125 C 65.253906 19.710938 65.214844 19.714844 65.179688 19.71875 C 65.136719 19.722656 65.070312 19.730469 65.027344 19.738281 C 64.988281 19.742188 64.953125 19.746094 64.914062 19.753906 C 64.871094 19.757812 64.804688 19.765625 64.761719 19.773438 C 64.722656 19.777344 64.6875 19.78125 64.652344 19.789062 C 64.605469 19.792969 64.539062 19.804688 64.492188 19.808594 C 64.460938 19.816406 64.421875 19.820312 64.386719 19.824219 C 64.34375 19.832031 64.261719 19.84375 64.214844 19.851562 C 64.1875 19.855469 64.15625 19.859375 64.128906 19.863281 C 64.070312 19.871094 63.921875 19.894531 63.871094 19.902344 C 63.851562 19.90625 63.832031 19.910156 63.816406 19.914062 C 63.773438 19.921875 63.664062 19.9375 63.609375 19.945312 C 63.578125 19.953125 63.542969 19.957031 63.511719 19.960938 C 63.46875 19.96875 63.398438 19.984375 63.351562 19.992188 C 63.316406 19.996094 63.277344 20.003906 63.242188 20.007812 C 63.199219 20.015625 63.136719 20.027344 63.09375 20.035156 C 63.058594 20.042969 63.019531 20.050781 62.980469 20.058594 C 62.9375 20.0625 62.878906 20.074219 62.835938 20.082031 C 62.796875 20.089844 62.757812 20.097656 62.722656 20.105469 C 62.679688 20.113281 62.617188 20.125 62.574219 20.132812 C 62.539062 20.140625 62.5 20.148438 62.464844 20.15625 C 62.417969 20.164062 62.351562 20.175781 62.308594 20.1875 C 62.277344 20.191406 62.242188 20.199219 62.207031 20.207031 C 62.15625 20.21875 62.050781 20.238281 62.007812 20.25 C 61.988281 20.25 61.96875 20.257812 61.953125 20.257812 C 61.945312 20.261719 61.933594 20.261719 61.925781 20.265625 C 61.882812 20.273438 61.757812 20.300781 61.703125 20.3125 C 61.667969 20.320312 61.636719 20.328125 61.601562 20.335938 C 61.558594 20.34375 61.492188 20.359375 61.449219 20.371094 C 61.410156 20.378906 61.375 20.386719 61.335938 20.394531 C 61.296875 20.402344 61.238281 20.417969 61.195312 20.425781 C 61.15625 20.4375 61.117188 20.445312 61.082031 20.457031 C 61.035156 20.464844 60.984375 20.476562 60.941406 20.488281 C 60.902344 20.496094 60.863281 20.507812 60.824219 20.515625 C 60.78125 20.527344 60.730469 20.539062 60.6875 20.550781 C 60.648438 20.558594 60.609375 20.566406 60.574219 20.578125 C 60.53125 20.589844 60.472656 20.601562 60.429688 20.613281 C 60.394531 20.625 60.359375 20.632812 60.320312 20.640625 C 60.277344 20.652344 60.199219 20.671875 60.160156 20.683594 C 60.128906 20.691406 60.101562 20.699219 60.070312 20.707031 C 60.015625 20.722656 59.886719 20.757812 59.828125 20.773438 C 59.796875 20.78125 59.761719 20.789062 59.730469 20.796875 C 59.6875 20.808594 59.621094 20.828125 59.578125 20.839844 C 59.542969 20.851562 59.503906 20.859375 59.46875 20.871094 C 59.425781 20.882812 59.371094 20.898438 59.328125 20.910156 C 59.292969 20.921875 59.253906 20.933594 59.214844 20.941406 C 59.171875 20.957031 59.121094 20.96875 59.082031 20.980469 C 59.042969 20.992188 59.003906 21.003906 58.964844 21.015625 C 58.925781 21.027344 58.875 21.042969 58.832031 21.054688 C 58.792969 21.066406 58.757812 21.078125 58.71875 21.089844 C 58.675781 21.101562 58.621094 21.121094 58.582031 21.132812 C 58.542969 21.144531 58.507812 21.15625 58.472656 21.164062 C 58.429688 21.179688 58.359375 21.199219 58.320312 21.214844 C 58.289062 21.222656 58.257812 21.234375 58.226562 21.242188 C 58.171875 21.261719 58.042969 21.304688 57.988281 21.320312 C 57.960938 21.328125 57.933594 21.339844 57.90625 21.347656 C 57.863281 21.359375 57.789062 21.386719 57.742188 21.398438 C 57.710938 21.410156 57.675781 21.421875 57.640625 21.433594 C 57.601562 21.449219 57.542969 21.46875 57.5 21.480469 C 57.464844 21.496094 57.429688 21.507812 57.390625 21.519531 C 57.351562 21.53125 57.296875 21.550781 57.253906 21.566406 C 57.21875 21.578125 57.148438 21.605469 57.148438 21.605469 L 57.011719 21.652344 L 56.90625 21.691406 L 56.761719 21.742188 L 56.664062 21.777344 L 56.503906 21.835938 L 56.421875 21.863281 L 56.183594 21.957031 L 56.160156 21.964844 L 55.945312 22.046875 L 55.867188 22.078125 L 55.703125 22.140625 L 55.617188 22.175781 L 55.464844 22.238281 L 55.375 22.273438 L 55.222656 22.335938 L 55.136719 22.371094 L 54.976562 22.4375 L 54.902344 22.46875 L 54.714844 22.550781 L 54.664062 22.570312 L 54.429688 22.675781 L 54.183594 22.78125 L 54.164062 22.789062 L 53.949219 22.886719 L 53.902344 22.910156 L 53.710938 22.996094 L 53.660156 23.019531 L 53.46875 23.109375 L 53.421875 23.132812 L 53.222656 23.226562 L 53.1875 23.242188 L 52.957031 23.351562 C 39.957031 29.703125 30.992188 43.054688 30.992188 58.488281 C 30.992188 73.929688 39.972656 87.292969 52.992188 93.636719 L 53.226562 93.746094 L 53.246094 93.757812 L 53.460938 93.859375 L 53.488281 93.871094 L 53.707031 93.972656 L 53.726562 93.984375 L 53.964844 94.09375 C 54.046875 94.128906 54.128906 94.167969 54.210938 94.203125 L 54.449219 94.308594 L 54.496094 94.328125 L 54.683594 94.410156 L 54.757812 94.441406 L 54.917969 94.507812 L 55.003906 94.546875 L 55.152344 94.609375 L 55.246094 94.644531 L 55.390625 94.703125 L 55.484375 94.742188 L 55.632812 94.800781 L 55.722656 94.839844 L 55.898438 94.90625 L 55.964844 94.933594 L 56.195312 95.019531 L 56.296875 95.058594 L 56.433594 95.109375 L 56.546875 95.152344 L 56.671875 95.199219 L 56.792969 95.242188 L 56.910156 95.285156 L 57.035156 95.328125 L 57.152344 95.371094 L 57.277344 95.414062 L 57.390625 95.453125 L 57.519531 95.496094 L 57.632812 95.535156 L 57.761719 95.578125 L 57.992188 95.65625 L 58.125 95.695312 L 58.234375 95.730469 L 58.367188 95.773438 L 58.476562 95.808594 L 58.609375 95.847656 L 58.722656 95.882812 L 58.855469 95.921875 L 58.96875 95.957031 L 59.101562 95.996094 L 59.214844 96.027344 L 59.347656 96.066406 L 59.703125 96.167969 L 59.835938 96.203125 L 59.964844 96.238281 L 60.074219 96.269531 L 60.210938 96.300781 L 60.324219 96.332031 L 60.457031 96.367188 L 60.578125 96.394531 L 60.707031 96.429688 L 60.828125 96.457031 L 60.957031 96.488281 L 61.082031 96.519531 L 61.210938 96.546875 L 61.335938 96.578125 L 61.464844 96.605469 L 61.597656 96.636719 L 61.714844 96.664062 L 61.957031 96.714844 L 62.210938 96.765625 L 62.335938 96.792969 L 62.46875 96.820312 L 62.59375 96.84375 L 62.726562 96.867188 L 62.847656 96.890625 L 62.984375 96.917969 L 63.105469 96.9375 L 63.246094 96.964844 L 63.363281 96.984375 L 63.515625 97.011719 L 63.621094 97.027344 L 63.871094 97.070312 L 63.949219 97.082031 L 64.132812 97.109375 L 64.238281 97.125 L 64.394531 97.148438 L 64.507812 97.164062 L 64.65625 97.183594 L 64.769531 97.203125 L 64.917969 97.21875 L 65.035156 97.234375 L 65.183594 97.253906 L 65.296875 97.269531 L 65.457031 97.289062 L 65.558594 97.300781 L 65.765625 97.324219 L 65.820312 97.328125 L 66.082031 97.355469 L 66.167969 97.367188 L 66.347656 97.382812 L 66.449219 97.390625 L 66.613281 97.40625 L 66.722656 97.417969 L 66.878906 97.429688 L 66.992188 97.4375 L 67.148438 97.449219 L 67.257812 97.457031 L 67.425781 97.46875 L 67.527344 97.476562 L 67.71875 97.488281 L 67.792969 97.492188 L 68.058594 97.507812 L 68.117188 97.507812 L 68.328125 97.519531 L 68.425781 97.523438 L 68.597656 97.53125 L 68.703125 97.535156 L 68.867188 97.539062 L 68.976562 97.542969 L 69.140625 97.546875 L 69.25 97.550781 L 69.414062 97.550781 L 69.519531 97.554688 L 69.703125 97.554688 L 69.792969 97.558594 L 70.0625 97.558594 C 70.0625 97.558594 70.3125 97.558594 70.3125 97.558594 L 70.378906 97.554688 L 70.632812 97.554688 L 70.882812 97.550781 L 70.945312 97.546875 L 71.164062 97.542969 L 71.203125 97.542969 L 71.449219 97.53125 L 71.511719 97.53125 L 71.722656 97.523438 L 71.769531 97.519531 L 72.015625 97.507812 L 72.070312 97.507812 L 72.28125 97.496094 L 72.332031 97.492188 L 72.578125 97.476562 L 72.628906 97.472656 L 72.835938 97.460938 L 72.894531 97.457031 L 73.140625 97.4375 L 73.179688 97.433594 L 73.398438 97.417969 L 73.453125 97.410156 L 73.703125 97.390625 L 73.722656 97.386719 L 73.953125 97.367188 L 74.007812 97.359375 L 74.261719 97.335938 L 74.507812 97.308594 L 74.5625 97.300781 L 74.808594 97.269531 L 75.0625 97.238281 L 75.109375 97.234375 L 75.359375 97.199219 L 75.617188 97.164062 L 75.65625 97.160156 L 75.894531 97.125 L 75.90625 97.121094 L 76.164062 97.082031 L 76.195312 97.078125 L 76.4375 97.039062 L 76.453125 97.035156 L 76.714844 96.992188 L 76.730469 96.988281 L 76.976562 96.945312 L 76.996094 96.941406 L 77.257812 96.894531 L 77.519531 96.84375 L 77.53125 96.84375 L 77.796875 96.792969 L 78.058594 96.738281 L 78.066406 96.734375 L 78.332031 96.679688 L 78.597656 96.621094 C 81.519531 95.96875 84.324219 94.988281 86.960938 93.71875 C 88.707031 92.878906 90.382812 91.914062 91.972656 90.832031 C 92.15625 90.707031 92.371094 90.640625 92.59375 90.640625 C 94.21875 90.640625 101.226562 90.640625 105.027344 90.640625 C 105.472656 90.640625 105.871094 90.902344 106.046875 91.308594 C 106.222656 91.710938 106.140625 92.183594 105.835938 92.503906 C 104.273438 94.152344 102.601562 95.695312 100.824219 97.121094 C 100.824219 97.121094 102.03125 100.75 102.890625 103.332031 C 103.398438 104.859375 102.8125 106.539062 101.464844 107.417969 C 99.839844 108.460938 98.167969 109.425781 96.453125 110.304688 C 95.015625 111.03125 93.273438 110.703125 92.207031 109.5 C 90.394531 107.46875 87.855469 104.609375 87.855469 104.609375 C 86.984375 104.949219 86.101562 105.261719 85.210938 105.550781 C 85.011719 105.660156 84.804688 105.746094 84.582031 105.816406 C 82.28125 106.515625 79.929688 107.054688 77.550781 107.417969 C 77.550781 107.417969 76.78125 111.164062 76.226562 113.832031 C 75.90625 115.40625 74.558594 116.566406 72.957031 116.652344 C 71.960938 116.703125 70.964844 116.726562 69.96875 116.726562 C 68.972656 116.726562 67.976562 116.703125 66.980469 116.652344 C 65.375 116.566406 64.03125 115.40625 63.707031 113.832031 C 63.15625 111.164062 62.386719 107.417969 62.386719 107.417969 C 60.003906 107.054688 57.652344 106.515625 55.351562 105.816406 C 55.128906 105.746094 54.921875 105.660156 54.722656 105.550781 C 53.832031 105.261719 52.953125 104.949219 52.078125 104.609375 C 52.078125 104.609375 49.539062 107.46875 47.726562 109.5 C 46.660156 110.703125 44.917969 111.03125 43.484375 110.304688 C 41.765625 109.425781 40.09375 108.460938 38.46875 107.417969 C 37.121094 106.539062 36.535156 104.859375 37.046875 103.332031 C 37.902344 100.75 39.109375 97.121094 39.109375 97.121094 C 36.277344 94.847656 33.699219 92.273438 31.429688 89.4375 C 31.429688 89.4375 27.796875 90.644531 25.214844 91.5 C 23.6875 92.003906 22.011719 91.421875 21.136719 90.074219 C 20.089844 88.453125 19.121094 86.78125 18.238281 85.066406 C 17.507812 83.628906 17.839844 81.886719 19.042969 80.816406 C 21.082031 79.007812 23.941406 76.46875 23.941406 76.46875 C 22.621094 73.082031 21.679688 69.5625 21.128906 65.972656 C 21.128906 65.972656 17.382812 65.203125 14.714844 64.652344 C 13.140625 64.328125 11.984375 62.984375 11.894531 61.378906 C 11.800781 59.453125 11.800781 57.519531 11.890625 55.59375 C 11.976562 53.984375 13.136719 52.640625 14.714844 52.316406 C 17.382812 51.769531 21.128906 51 21.128906 51 C 21.679688 47.410156 22.621094 43.890625 23.941406 40.503906 C 23.941406 40.503906 21.082031 37.964844 19.046875 36.152344 C 17.847656 35.085938 17.515625 33.34375 18.242188 31.90625 C 19.121094 30.191406 20.089844 28.519531 21.128906 26.894531 C 22.007812 25.546875 23.6875 24.960938 25.214844 25.46875 C 27.796875 26.328125 31.429688 27.535156 31.429688 27.535156 C 33.699219 24.699219 36.277344 22.125 39.109375 19.851562 C 39.109375 19.851562 37.902344 16.222656 37.046875 13.636719 C 36.542969 12.113281 37.128906 10.4375 38.472656 9.558594 C 40.09375 8.511719 41.765625 7.546875 43.480469 6.660156 C 44.917969 5.933594 46.664062 6.265625 47.730469 7.46875 C 48.601562 8.449219 49.640625 9.621094 50.492188 10.570312 C 51.4375 11.636719 52.933594 12.027344 54.28125 11.566406 C 54.4375 11.515625 54.59375 11.460938 54.753906 11.410156 C 54.941406 11.308594 55.144531 11.226562 55.351562 11.160156 C 57.136719 10.613281 58.949219 10.167969 60.78125 9.828125 C 61.574219 9.542969 62.230469 8.988281 62.648438 8.273438 L 63.703125 3.140625 C 64.027344 1.5625 65.371094 0.402344 66.980469 0.316406 C 67.976562 0.269531 68.972656 0.246094 69.96875 0.25 C 70.964844 0.246094 71.960938 0.269531 72.957031 0.316406 C 74.5625 0.402344 75.910156 1.5625 76.230469 3.140625 L 77.285156 8.273438 C 77.703125 8.988281 78.363281 9.542969 79.152344 9.828125 C 80.988281 10.167969 82.800781 10.613281 84.582031 11.160156 C 84.792969 11.226562 84.992188 11.308594 85.183594 11.410156 C 85.339844 11.460938 85.496094 11.515625 85.65625 11.566406 C 87.003906 12.027344 88.496094 11.636719 89.445312 10.570312 C 90.292969 9.621094 91.332031 8.449219 92.203125 7.46875 C 93.273438 6.265625 95.019531 5.933594 96.453125 6.660156 C 98.167969 7.546875 99.839844 8.511719 101.460938 9.558594 C 102.808594 10.4375 103.394531 12.113281 102.886719 13.636719 C 102.03125 16.222656 100.824219 19.851562 100.824219 19.851562 C 102.601562 21.277344 104.273438 22.820312 105.835938 24.46875 C 106.136719 24.792969 106.21875 25.261719 106.042969 25.664062 C 105.867188 26.070312 105.46875 26.332031 105.027344 26.332031 C 101.226562 26.332031 94.21875 26.332031 92.59375 26.332031 C 92.371094 26.332031 92.15625 26.265625 91.972656 26.140625 C 90.390625 25.066406 88.730469 24.105469 86.996094 23.269531 C 86.835938 23.195312 86.675781 23.117188 86.515625 23.042969 L 86.511719 23.042969 L 86.269531 22.929688 L 86.039062 22.828125 L 86.019531 22.816406 L 85.785156 22.710938 L 85.558594 22.613281 L 85.523438 22.597656 L 85.292969 22.5 L 85.070312 22.40625 L 85.023438 22.386719 L 84.796875 22.292969 L 84.574219 22.203125 L 84.523438 22.183594 L 84.308594 22.097656 L 84.296875 22.09375 L 84.078125 22.007812 L 84.019531 21.984375 L 83.824219 21.914062 L 83.792969 21.898438 L 83.574219 21.820312 L 83.511719 21.796875 L 83.332031 21.730469 L 83.28125 21.710938 L 83.066406 21.636719 L 83 21.613281 L 82.828125 21.550781 L 82.769531 21.53125 L 82.554688 21.457031 L 82.488281 21.4375 L 82.320312 21.378906 L 82.253906 21.359375 L 82.039062 21.289062 L 81.976562 21.265625 L 81.804688 21.214844 L 81.734375 21.191406 L 81.519531 21.125 L 81.460938 21.105469 L 81.289062 21.054688 L 81.214844 21.03125 L 81 20.96875 L 80.945312 20.953125 L 80.765625 20.902344 L 80.691406 20.882812 L 80.472656 20.820312 L 80.429688 20.808594 L 80.242188 20.757812 L 80.164062 20.734375 L 79.964844 20.683594 L 79.9375 20.675781 L 79.917969 20.671875 L 79.710938 20.617188 L 79.636719 20.597656 L 79.449219 20.550781 L 79.402344 20.542969 L 79.179688 20.488281 L 79.105469 20.46875 L 78.921875 20.425781 L 78.871094 20.414062 L 78.644531 20.363281 L 78.574219 20.347656 L 78.390625 20.308594 L 78.332031 20.292969 L 78.105469 20.246094 L 78.039062 20.230469 L 77.855469 20.195312 L 77.792969 20.183594 L 77.566406 20.136719 L 77.253906 20.078125 L 77.023438 20.035156 L 76.964844 20.023438 L 76.777344 19.992188 L 76.710938 19.980469 L 76.476562 19.941406 L 76.425781 19.933594 L 76.230469 19.902344 L 76.164062 19.890625 L 75.925781 19.851562 L 75.890625 19.847656 L 75.683594 19.816406 L 75.613281 19.808594 L 75.375 19.773438 L 75.355469 19.773438 L 75.128906 19.742188 L 75.0625 19.734375 L 74.835938 19.703125 L 74.820312 19.703125 L 74.578125 19.671875 L 74.511719 19.667969 L 74.296875 19.644531 L 74.261719 19.640625 L 74.019531 19.613281 L 73.957031 19.605469 L 73.746094 19.585938 L 73.703125 19.582031 L 73.460938 19.5625 L 73.398438 19.554688 L 73.144531 19.535156 L 72.902344 19.515625 L 72.84375 19.511719 L 72.636719 19.5 L 72.582031 19.496094 L 72.335938 19.480469 L 72.285156 19.476562 L 72.078125 19.46875 L 72.019531 19.464844 L 71.769531 19.453125 L 71.726562 19.449219 L 71.515625 19.441406 L 71.453125 19.4375 L 71.203125 19.429688 L 71.167969 19.429688 L 70.949219 19.425781 L 70.882812 19.421875 L 70.632812 19.417969 L 70.378906 19.417969 L 70.316406 19.414062 Z M 69.792969 19.414062 " fill-opacity="1" fill-rule="evenodd"/></g><g clip-path="url(#25fd9f931d)"><path fill="#000000" d="M 105.992188 52.792969 L 81.96875 52.792969 L 81.96875 28.769531 L 70.402344 28.769531 L 70.402344 52.792969 L 46.378906 52.792969 L 46.378906 64.355469 L 70.402344 64.355469 L 70.402344 88.378906 L 81.96875 88.378906 L 81.96875 64.355469 L 105.992188 64.355469 Z M 105.992188 52.792969 " fill-opacity="1" fill-rule="nonzero"/></g></svg>