<svg xmlns="http://www.w3.org/2000/svg" xmlns:xlink="http://www.w3.org/1999/xlink" width="1500" zoomAndPan="magnify" viewBox="0 0 1125 374.999991" height="500" preserveAspectRatio="xMidYMid meet" version="1.0"><defs><clipPath id="badd2833a9"><path d="M 296 1 L 547 1 L 547 374 L 296 374 Z M 296 1 " clip-rule="nonzero"/></clipPath><clipPath id="f88859a187"><path d="M 280.949219 345.910156 L 487.773438 -14 L 562.5625 28.980469 L 355.734375 388.886719 Z M 280.949219 345.910156 " clip-rule="nonzero"/></clipPath><clipPath id="db8e8a3f7a"><path d="M 466.226562 23.496094 C 478.09375 2.84375 504.457031 -4.277344 525.109375 7.59375 C 545.761719 19.460938 552.882812 45.820312 541.015625 66.472656 L 377.222656 351.492188 C 365.355469 372.144531 338.992188 379.265625 318.339844 367.398438 C 297.6875 355.53125 290.566406 329.167969 302.4375 308.515625 Z M 466.226562 23.496094 " clip-rule="nonzero"/></clipPath><clipPath id="8d946f5fd0"><path d="M 437 1 L 688 1 L 688 374 L 437 374 Z M 437 1 " clip-rule="nonzero"/></clipPath><clipPath id="9c55fff03f"><path d="M 421.726562 345.910156 L 628.550781 -14 L 703.339844 28.980469 L 496.511719 388.886719 Z M 421.726562 345.910156 " clip-rule="nonzero"/></clipPath><clipPath id="47bc81040a"><path d="M 607.003906 23.496094 C 618.875 2.84375 645.234375 -4.277344 665.886719 7.59375 C 686.539062 19.460938 693.660156 45.820312 681.792969 66.472656 L 518 351.492188 C 506.132812 372.144531 479.769531 379.265625 459.117188 367.398438 C 438.464844 355.53125 431.347656 329.167969 443.214844 308.515625 Z M 607.003906 23.496094 " clip-rule="nonzero"/></clipPath><clipPath id="9dfa503037"><path d="M 155 1 L 406 1 L 406 374 L 155 374 Z M 155 1 " clip-rule="nonzero"/></clipPath><clipPath id="aadef1d919"><path d="M 140.171875 345.910156 L 346.996094 -14 L 421.785156 28.980469 L 214.957031 388.886719 Z M 140.171875 345.910156 " clip-rule="nonzero"/></clipPath><clipPath id="156381fcef"><path d="M 325.449219 23.496094 C 337.316406 2.84375 363.679688 -4.277344 384.332031 7.59375 C 404.984375 19.460938 412.105469 45.820312 400.238281 66.472656 L 236.445312 351.492188 C 224.578125 372.144531 198.214844 379.265625 177.5625 367.398438 C 156.910156 355.53125 149.789062 329.167969 161.660156 308.515625 Z M 325.449219 23.496094 " clip-rule="nonzero"/></clipPath><clipPath id="70a720ab61"><path d="M 578 1 L 829 1 L 829 374 L 578 374 Z M 578 1 " clip-rule="nonzero"/></clipPath><clipPath id="873ea7945f"><path d="M 562.503906 345.910156 L 769.328125 -14 L 844.117188 28.980469 L 637.289062 388.886719 Z M 562.503906 345.910156 " clip-rule="nonzero"/></clipPath><clipPath id="ce2e41a821"><path d="M 747.78125 23.496094 C 759.652344 2.84375 786.011719 -4.277344 806.664062 7.59375 C 827.316406 19.460938 834.4375 45.820312 822.570312 66.472656 L 658.777344 351.492188 C 646.910156 372.144531 620.546875 379.265625 599.894531 367.398438 C 579.242188 355.53125 572.125 329.167969 583.992188 308.515625 Z M 747.78125 23.496094 " clip-rule="nonzero"/></clipPath><clipPath id="7a1049033f"><path d="M 719 1 L 970 1 L 970 374 L 719 374 Z M 719 1 " clip-rule="nonzero"/></clipPath><clipPath id="9036bafe84"><path d="M 703.28125 345.910156 L 910.105469 -14 L 984.894531 28.980469 L 778.066406 388.886719 Z M 703.28125 345.910156 " clip-rule="nonzero"/></clipPath><clipPath id="4bf641d91f"><path d="M 888.558594 23.496094 C 900.429688 2.84375 926.789062 -4.277344 947.441406 7.59375 C 968.09375 19.460938 975.214844 45.820312 963.347656 66.472656 L 799.554688 351.492188 C 787.6875 372.144531 761.324219 379.265625 740.671875 367.398438 C 720.019531 355.53125 712.902344 329.167969 724.769531 308.515625 Z M 888.558594 23.496094 " clip-rule="nonzero"/></clipPath></defs><g clip-path="url(#badd2833a9)"><g clip-path="url(#f88859a187)"><g clip-path="url(#db8e8a3f7a)"><path fill="#ffbd59" d="M 280.949219 345.910156 L 487.773438 -14 L 562.5625 28.980469 L 355.734375 388.886719 Z M 280.949219 345.910156 " fill-opacity="1" fill-rule="nonzero"/></g></g></g><g clip-path="url(#8d946f5fd0)"><g clip-path="url(#9c55fff03f)"><g clip-path="url(#47bc81040a)"><path fill="#0cc0df" d="M 421.726562 345.910156 L 628.550781 -14 L 703.339844 28.980469 L 496.511719 388.886719 Z M 421.726562 345.910156 " fill-opacity="1" fill-rule="nonzero"/></g></g></g><g clip-path="url(#9dfa503037)"><g clip-path="url(#aadef1d919)"><g clip-path="url(#156381fcef)"><path fill="#8c52ff" d="M 140.171875 345.910156 L 346.996094 -14 L 421.785156 28.980469 L 214.957031 388.886719 Z M 140.171875 345.910156 " fill-opacity="1" fill-rule="nonzero"/></g></g></g><g clip-path="url(#70a720ab61)"><g clip-path="url(#873ea7945f)"><g clip-path="url(#ce2e41a821)"><path fill="#7ed957" d="M 562.503906 345.910156 L 769.328125 -14 L 844.117188 28.980469 L 637.289062 388.886719 Z M 562.503906 345.910156 " fill-opacity="1" fill-rule="nonzero"/></g></g></g><g clip-path="url(#7a1049033f)"><g clip-path="url(#9036bafe84)"><g clip-path="url(#4bf641d91f)"><path fill="#ff5757" d="M 703.28125 345.910156 L 910.105469 -14 L 984.894531 28.980469 L 778.066406 388.886719 Z M 703.28125 345.910156 " fill-opacity="1" fill-rule="nonzero"/></g></g></g></svg>