<svg xmlns="http://www.w3.org/2000/svg" xmlns:xlink="http://www.w3.org/1999/xlink" width="158" zoomAndPan="magnify" viewBox="0 0 118.5 116.999995" height="156" preserveAspectRatio="xMidYMid meet" version="1.0"><defs><g/><clipPath id="77a48d0909"><path d="M 46.71875 0.246094 L 71.285156 0.246094 L 71.285156 24.808594 L 46.71875 24.808594 Z M 46.71875 0.246094 " clip-rule="nonzero"/></clipPath><clipPath id="23354a9fb2"><path d="M 46.71875 24.808594 L 46.71875 12.527344 L 59 0.242188 L 71.285156 12.527344 L 71.285156 24.808594 L 59 12.527344 Z M 46.71875 24.808594 " clip-rule="nonzero"/></clipPath><clipPath id="c662f421c0"><path d="M 46.71875 49.375 L 71.28125 49.375 L 71.28125 73.9375 L 46.71875 73.9375 Z M 46.71875 49.375 " clip-rule="nonzero"/></clipPath><clipPath id="56c20a01c7"><path d="M 71.28125 49.375 L 71.28125 61.65625 L 59 73.9375 L 46.71875 61.65625 L 46.71875 49.375 L 59 61.65625 Z M 71.28125 49.375 " clip-rule="nonzero"/></clipPath><clipPath id="f784737b86"><path d="M 71.285156 24.808594 L 95.847656 24.808594 L 95.847656 49.375 L 71.285156 49.375 Z M 71.285156 24.808594 " clip-rule="nonzero"/></clipPath><clipPath id="703c58e09d"><path d="M 71.285156 24.808594 L 83.566406 24.808594 L 95.847656 37.09375 L 83.566406 49.375 L 71.285156 49.375 L 83.566406 37.09375 Z M 71.285156 24.808594 " clip-rule="nonzero"/></clipPath><clipPath id="0564ff47b4"><path d="M 22.152344 24.808594 L 46.71875 24.808594 L 46.71875 49.371094 L 22.152344 49.371094 Z M 22.152344 24.808594 " clip-rule="nonzero"/></clipPath><clipPath id="3c64e698c8"><path d="M 46.71875 49.371094 L 34.433594 49.371094 L 22.152344 37.089844 L 34.433594 24.808594 L 46.71875 24.808594 L 34.433594 37.089844 Z M 46.71875 49.371094 " clip-rule="nonzero"/></clipPath><clipPath id="0560b1e488"><path d="M 52.828125 30.921875 L 65.171875 30.921875 L 65.171875 43.265625 L 52.828125 43.265625 Z M 52.828125 30.921875 " clip-rule="nonzero"/></clipPath><clipPath id="a90b215000"><path d="M 59 30.921875 C 55.59375 30.921875 52.828125 33.683594 52.828125 37.09375 C 52.828125 40.5 55.59375 43.265625 59 43.265625 C 62.410156 43.265625 65.171875 40.5 65.171875 37.09375 C 65.171875 33.683594 62.410156 30.921875 59 30.921875 Z M 59 30.921875 " clip-rule="nonzero"/></clipPath></defs><g clip-path="url(#77a48d0909)"><g clip-path="url(#23354a9fb2)"><path fill="#ffffff" d="M 46.71875 24.808594 L 46.71875 0.242188 L 71.285156 0.242188 L 71.285156 24.808594 Z M 46.71875 24.808594 " fill-opacity="1" fill-rule="nonzero"/></g></g><g clip-path="url(#c662f421c0)"><g clip-path="url(#56c20a01c7)"><path fill="#ffffff" d="M 71.28125 49.375 L 71.28125 73.9375 L 46.71875 73.9375 L 46.71875 49.375 Z M 71.28125 49.375 " fill-opacity="1" fill-rule="nonzero"/></g></g><g clip-path="url(#f784737b86)"><g clip-path="url(#703c58e09d)"><path fill="#ffffff" d="M 71.285156 24.808594 L 95.847656 24.808594 L 95.847656 49.375 L 71.285156 49.375 Z M 71.285156 24.808594 " fill-opacity="1" fill-rule="nonzero"/></g></g><g clip-path="url(#0564ff47b4)"><g clip-path="url(#3c64e698c8)"><path fill="#ffffff" d="M 46.71875 49.371094 L 22.152344 49.371094 L 22.152344 24.808594 L 46.71875 24.808594 Z M 46.71875 49.371094 " fill-opacity="1" fill-rule="nonzero"/></g></g><g clip-path="url(#0560b1e488)"><g clip-path="url(#a90b215000)"><path fill="#ffffff" d="M 52.828125 30.921875 L 65.171875 30.921875 L 65.171875 43.265625 L 52.828125 43.265625 Z M 52.828125 30.921875 " fill-opacity="1" fill-rule="nonzero"/></g></g><g fill="#ffffff" fill-opacity="1"><g transform="translate(24.416457, 108.685366)"><g><path d="M 8.890625 0.328125 C 7.992188 0.328125 7.140625 0.191406 6.328125 -0.078125 C 5.515625 -0.347656 4.769531 -0.726562 4.09375 -1.21875 C 3.414062 -1.71875 2.828125 -2.300781 2.328125 -2.96875 C 1.828125 -3.632812 1.441406 -4.367188 1.171875 -5.171875 C 0.898438 -5.984375 0.765625 -6.832031 0.765625 -7.71875 C 0.765625 -8.613281 0.898438 -9.46875 1.171875 -10.28125 C 1.441406 -11.09375 1.828125 -11.832031 2.328125 -12.5 C 2.828125 -13.164062 3.414062 -13.742188 4.09375 -14.234375 C 4.78125 -14.722656 5.53125 -15.101562 6.34375 -15.375 C 7.164062 -15.644531 8.03125 -15.78125 8.9375 -15.78125 C 9.582031 -15.78125 10.234375 -15.703125 10.890625 -15.546875 C 11.546875 -15.390625 12.175781 -15.160156 12.78125 -14.859375 C 13.382812 -14.554688 13.9375 -14.179688 14.4375 -13.734375 C 14.9375 -13.296875 15.359375 -12.789062 15.703125 -12.21875 C 16.054688 -11.65625 16.304688 -11.023438 16.453125 -10.328125 L 13.578125 -10.328125 C 13.179688 -11.222656 12.570312 -11.925781 11.75 -12.4375 C 10.925781 -12.945312 9.960938 -13.203125 8.859375 -13.203125 C 8.140625 -13.203125 7.457031 -13.070312 6.8125 -12.8125 C 6.164062 -12.550781 5.601562 -12.175781 5.125 -11.6875 C 4.644531 -11.207031 4.265625 -10.628906 3.984375 -9.953125 C 3.710938 -9.285156 3.578125 -8.539062 3.578125 -7.71875 C 3.578125 -6.882812 3.710938 -6.128906 3.984375 -5.453125 C 4.265625 -4.785156 4.644531 -4.210938 5.125 -3.734375 C 5.601562 -3.265625 6.164062 -2.898438 6.8125 -2.640625 C 7.457031 -2.390625 8.140625 -2.265625 8.859375 -2.265625 C 9.785156 -2.265625 10.582031 -2.421875 11.25 -2.734375 C 11.925781 -3.046875 12.472656 -3.476562 12.890625 -4.03125 C 13.316406 -4.582031 13.597656 -5.21875 13.734375 -5.9375 L 8.75 -5.9375 L 8.75 -8.296875 L 16.796875 -8.296875 C 16.804688 -7.035156 16.632812 -5.878906 16.28125 -4.828125 C 15.9375 -3.773438 15.425781 -2.859375 14.75 -2.078125 C 14.070312 -1.304688 13.238281 -0.710938 12.25 -0.296875 C 11.269531 0.117188 10.148438 0.328125 8.890625 0.328125 Z M 8.890625 0.328125 "/></g></g></g><g fill="#ffffff" fill-opacity="1"><g transform="translate(44.293579, 108.685366)"><g><path d="M 8.15625 0.34375 C 7.21875 0.34375 6.347656 0.195312 5.546875 -0.09375 C 4.753906 -0.394531 4.054688 -0.816406 3.453125 -1.359375 C 2.859375 -1.910156 2.394531 -2.578125 2.0625 -3.359375 C 1.726562 -4.140625 1.5625 -5.007812 1.5625 -5.96875 L 1.5625 -15.421875 L 4.375 -15.421875 L 4.375 -6.171875 C 4.375 -5.441406 4.519531 -4.78125 4.8125 -4.1875 C 5.101562 -3.59375 5.53125 -3.117188 6.09375 -2.765625 C 6.65625 -2.421875 7.34375 -2.25 8.15625 -2.25 C 8.945312 -2.25 9.617188 -2.421875 10.171875 -2.765625 C 10.734375 -3.109375 11.164062 -3.578125 11.46875 -4.171875 C 11.769531 -4.765625 11.921875 -5.425781 11.921875 -6.15625 L 11.921875 -15.421875 L 14.734375 -15.421875 L 14.734375 -5.96875 C 14.734375 -5.039062 14.570312 -4.191406 14.25 -3.421875 C 13.9375 -2.660156 13.488281 -2 12.90625 -1.4375 C 12.332031 -0.875 11.640625 -0.4375 10.828125 -0.125 C 10.015625 0.1875 9.125 0.34375 8.15625 0.34375 Z M 8.15625 0.34375 "/></g></g></g><g fill="#ffffff" fill-opacity="1"><g transform="translate(62.901339, 108.685366)"><g><path d="M 11.625 0 L 1.84375 0 L 1.84375 -15.421875 L 4.65625 -15.421875 L 4.65625 -2.53125 L 11.625 -2.53125 Z M 11.625 0 "/></g></g></g><g fill="#ffffff" fill-opacity="1"><g transform="translate(77.292997, 108.685366)"><g><path d="M 8.15625 0.34375 C 7.21875 0.34375 6.347656 0.195312 5.546875 -0.09375 C 4.753906 -0.394531 4.054688 -0.816406 3.453125 -1.359375 C 2.859375 -1.910156 2.394531 -2.578125 2.0625 -3.359375 C 1.726562 -4.140625 1.5625 -5.007812 1.5625 -5.96875 L 1.5625 -15.421875 L 4.375 -15.421875 L 4.375 -6.171875 C 4.375 -5.441406 4.519531 -4.78125 4.8125 -4.1875 C 5.101562 -3.59375 5.53125 -3.117188 6.09375 -2.765625 C 6.65625 -2.421875 7.34375 -2.25 8.15625 -2.25 C 8.945312 -2.25 9.617188 -2.421875 10.171875 -2.765625 C 10.734375 -3.109375 11.164062 -3.578125 11.46875 -4.171875 C 11.769531 -4.765625 11.921875 -5.425781 11.921875 -6.15625 L 11.921875 -15.421875 L 14.734375 -15.421875 L 14.734375 -5.96875 C 14.734375 -5.039062 14.570312 -4.191406 14.25 -3.421875 C 13.9375 -2.660156 13.488281 -2 12.90625 -1.4375 C 12.332031 -0.875 11.640625 -0.4375 10.828125 -0.125 C 10.015625 0.1875 9.125 0.34375 8.15625 0.34375 Z M 8.15625 0.34375 "/></g></g></g></svg>