<svg xmlns="http://www.w3.org/2000/svg" xmlns:xlink="http://www.w3.org/1999/xlink" width="158" zoomAndPan="magnify" viewBox="0 0 118.5 116.999995" height="156" preserveAspectRatio="xMidYMid meet" version="1.0"><defs><clipPath id="838d025c03"><path d="M 6.066406 0.246094 L 100.472656 0.246094 L 100.472656 116.484375 L 6.066406 116.484375 Z M 6.066406 0.246094 " clip-rule="nonzero"/></clipPath><clipPath id="7f0fd395f8"><path d="M 39 36.488281 L 112 36.488281 L 112 80.800781 L 39 80.800781 Z M 39 36.488281 " clip-rule="nonzero"/></clipPath></defs><g clip-path="url(#838d025c03)"><path fill="#000000" d="M 64.101562 19.414062 L 64.011719 19.414062 L 63.828125 19.417969 L 63.722656 19.417969 L 63.558594 19.421875 L 63.449219 19.425781 L 63.285156 19.429688 L 63.175781 19.433594 L 63.011719 19.4375 L 62.902344 19.441406 L 62.730469 19.449219 L 62.636719 19.453125 L 62.414062 19.460938 L 62.367188 19.464844 L 62.101562 19.480469 L 62.019531 19.484375 L 61.832031 19.496094 L 61.730469 19.5 C 61.730469 19.5 61.609375 19.511719 61.5625 19.511719 C 61.527344 19.515625 61.492188 19.519531 61.457031 19.523438 C 61.410156 19.523438 61.339844 19.53125 61.296875 19.535156 C 61.261719 19.535156 61.222656 19.539062 61.1875 19.542969 C 61.140625 19.546875 61.070312 19.550781 61.027344 19.554688 C 60.992188 19.558594 60.953125 19.5625 60.917969 19.566406 C 60.875 19.566406 60.796875 19.574219 60.75 19.578125 C 60.71875 19.582031 60.6875 19.585938 60.652344 19.589844 C 60.605469 19.59375 60.503906 19.605469 60.460938 19.609375 C 60.4375 19.609375 60.414062 19.613281 60.386719 19.613281 C 60.332031 19.621094 60.179688 19.636719 60.125 19.640625 C 60.101562 19.644531 60.078125 19.648438 60.058594 19.648438 C 60.011719 19.65625 59.910156 19.667969 59.863281 19.671875 C 59.828125 19.675781 59.796875 19.679688 59.761719 19.683594 C 59.71875 19.6875 59.644531 19.699219 59.597656 19.703125 C 59.5625 19.707031 59.527344 19.710938 59.492188 19.714844 C 59.445312 19.722656 59.378906 19.730469 59.335938 19.738281 C 59.296875 19.742188 59.261719 19.746094 59.222656 19.75 C 59.179688 19.757812 59.113281 19.765625 59.070312 19.769531 C 59.035156 19.777344 58.996094 19.78125 58.960938 19.785156 C 58.917969 19.792969 58.847656 19.800781 58.804688 19.808594 C 58.769531 19.8125 58.734375 19.816406 58.699219 19.824219 C 58.652344 19.832031 58.570312 19.84375 58.527344 19.847656 C 58.496094 19.855469 58.464844 19.859375 58.4375 19.863281 C 58.378906 19.871094 58.234375 19.894531 58.179688 19.902344 C 58.164062 19.90625 58.144531 19.90625 58.125 19.910156 C 58.082031 19.917969 57.972656 19.9375 57.921875 19.945312 C 57.886719 19.949219 57.855469 19.957031 57.820312 19.960938 C 57.777344 19.96875 57.707031 19.980469 57.664062 19.988281 C 57.625 19.996094 57.589844 20 57.550781 20.007812 C 57.507812 20.015625 57.449219 20.027344 57.40625 20.035156 C 57.367188 20.039062 57.328125 20.046875 57.289062 20.054688 C 57.246094 20.0625 57.1875 20.074219 57.144531 20.082031 C 57.105469 20.089844 57.070312 20.097656 57.03125 20.105469 C 56.988281 20.113281 56.925781 20.125 56.882812 20.132812 C 56.847656 20.140625 56.8125 20.144531 56.773438 20.152344 C 56.730469 20.164062 56.660156 20.175781 56.617188 20.183594 C 56.585938 20.191406 56.550781 20.199219 56.519531 20.203125 C 56.46875 20.214844 56.359375 20.238281 56.320312 20.246094 C 56.300781 20.25 56.277344 20.253906 56.261719 20.257812 C 56.253906 20.261719 56.246094 20.261719 56.234375 20.261719 C 56.195312 20.273438 56.066406 20.300781 56.011719 20.3125 C 55.980469 20.320312 55.945312 20.328125 55.914062 20.332031 C 55.871094 20.34375 55.804688 20.359375 55.757812 20.367188 C 55.722656 20.375 55.683594 20.386719 55.648438 20.394531 C 55.605469 20.402344 55.546875 20.414062 55.503906 20.425781 C 55.464844 20.433594 55.429688 20.445312 55.390625 20.453125 C 55.347656 20.464844 55.292969 20.476562 55.253906 20.484375 C 55.214844 20.496094 55.175781 20.503906 55.136719 20.515625 C 55.09375 20.523438 55.039062 20.539062 54.996094 20.546875 C 54.957031 20.558594 54.921875 20.566406 54.882812 20.578125 C 54.839844 20.585938 54.78125 20.601562 54.738281 20.613281 C 54.703125 20.621094 54.667969 20.628906 54.632812 20.640625 C 54.585938 20.652344 54.511719 20.671875 54.46875 20.683594 C 54.4375 20.691406 54.410156 20.695312 54.378906 20.703125 C 54.324219 20.71875 54.195312 20.753906 54.136719 20.769531 C 54.105469 20.777344 54.074219 20.789062 54.039062 20.796875 C 54 20.808594 53.933594 20.828125 53.890625 20.839844 C 53.851562 20.847656 53.816406 20.859375 53.777344 20.871094 C 53.734375 20.882812 53.683594 20.894531 53.640625 20.910156 C 53.601562 20.917969 53.5625 20.929688 53.527344 20.941406 C 53.484375 20.953125 53.433594 20.96875 53.390625 20.980469 C 53.351562 20.992188 53.3125 21.003906 53.277344 21.015625 C 53.234375 21.027344 53.183594 21.042969 53.140625 21.054688 C 53.105469 21.066406 53.066406 21.078125 53.027344 21.089844 C 52.988281 21.101562 52.929688 21.117188 52.890625 21.128906 C 52.855469 21.140625 52.820312 21.152344 52.78125 21.164062 C 52.738281 21.179688 52.671875 21.199219 52.628906 21.210938 C 52.597656 21.222656 52.566406 21.230469 52.535156 21.242188 C 52.480469 21.257812 52.351562 21.300781 52.296875 21.316406 C 52.269531 21.328125 52.242188 21.335938 52.214844 21.34375 C 52.175781 21.359375 52.097656 21.382812 52.054688 21.398438 C 52.019531 21.410156 51.984375 21.421875 51.949219 21.433594 C 51.910156 21.445312 51.851562 21.464844 51.808594 21.480469 C 51.773438 21.492188 51.738281 21.503906 51.703125 21.515625 C 51.660156 21.53125 51.605469 21.550781 51.566406 21.566406 C 51.53125 21.578125 51.457031 21.601562 51.457031 21.601562 L 51.320312 21.652344 L 51.214844 21.6875 L 51.074219 21.738281 L 50.972656 21.773438 L 50.816406 21.832031 L 50.734375 21.863281 L 50.496094 21.953125 L 50.472656 21.960938 L 50.253906 22.046875 L 50.179688 22.074219 L 50.015625 22.140625 L 49.929688 22.175781 L 49.777344 22.234375 L 49.6875 22.273438 L 49.53125 22.335938 L 49.449219 22.371094 L 49.289062 22.4375 L 49.210938 22.46875 L 49.027344 22.546875 L 48.976562 22.566406 L 48.738281 22.671875 L 48.492188 22.78125 L 48.476562 22.789062 L 48.257812 22.886719 L 48.214844 22.90625 L 48.019531 22.996094 L 47.96875 23.019531 L 47.78125 23.105469 L 47.734375 23.128906 L 47.535156 23.222656 L 47.5 23.238281 L 47.269531 23.351562 C 34.265625 29.699219 25.304688 43.050781 25.304688 58.480469 C 25.304688 73.925781 34.28125 87.285156 47.304688 93.628906 L 47.535156 93.738281 L 47.554688 93.75 L 47.773438 93.851562 L 47.800781 93.863281 L 48.015625 93.96875 L 48.039062 93.976562 L 48.277344 94.085938 C 48.359375 94.121094 48.441406 94.160156 48.523438 94.195312 L 48.761719 94.300781 L 48.804688 94.320312 L 48.996094 94.402344 L 49.066406 94.433594 L 49.226562 94.5 L 49.3125 94.539062 L 49.464844 94.601562 L 49.554688 94.636719 L 49.703125 94.695312 L 49.796875 94.734375 L 49.945312 94.792969 L 50.035156 94.832031 L 50.207031 94.898438 L 50.277344 94.925781 L 50.503906 95.015625 L 50.609375 95.050781 L 50.742188 95.101562 L 50.859375 95.144531 L 50.980469 95.191406 L 51.34375 95.320312 L 51.460938 95.363281 L 51.585938 95.40625 L 51.703125 95.445312 L 51.828125 95.488281 L 51.941406 95.527344 L 52.074219 95.570312 L 52.300781 95.648438 L 52.433594 95.6875 L 52.542969 95.722656 L 52.675781 95.765625 L 52.789062 95.800781 L 52.921875 95.839844 L 53.03125 95.875 L 53.167969 95.914062 L 53.277344 95.949219 L 53.410156 95.988281 L 53.523438 96.019531 L 53.90625 96.128906 L 54.011719 96.160156 L 54.144531 96.195312 L 54.273438 96.230469 L 54.386719 96.261719 L 54.519531 96.292969 L 54.636719 96.324219 L 54.769531 96.359375 L 54.886719 96.386719 L 55.019531 96.421875 L 55.136719 96.449219 L 55.269531 96.480469 L 55.390625 96.511719 L 55.519531 96.539062 L 55.644531 96.570312 L 55.773438 96.597656 L 55.90625 96.628906 L 56.027344 96.65625 L 56.265625 96.707031 L 56.382812 96.730469 L 56.523438 96.757812 L 56.644531 96.785156 L 56.777344 96.8125 L 56.902344 96.835938 L 57.035156 96.859375 L 57.160156 96.882812 L 57.292969 96.910156 L 57.414062 96.929688 L 57.554688 96.957031 L 57.671875 96.976562 L 57.824219 97.003906 L 57.929688 97.019531 L 58.183594 97.0625 L 58.257812 97.074219 L 58.441406 97.101562 L 58.546875 97.117188 L 58.703125 97.140625 L 58.816406 97.15625 L 58.964844 97.175781 L 59.078125 97.195312 L 59.226562 97.210938 L 59.34375 97.226562 L 59.496094 97.246094 L 59.605469 97.261719 L 59.769531 97.28125 L 59.867188 97.292969 L 60.078125 97.316406 L 60.132812 97.320312 L 60.390625 97.347656 L 60.480469 97.359375 L 60.65625 97.375 L 60.761719 97.382812 L 60.921875 97.398438 L 61.03125 97.410156 L 61.1875 97.421875 L 61.300781 97.429688 L 61.460938 97.441406 L 61.566406 97.449219 L 61.734375 97.460938 L 61.835938 97.46875 L 62.027344 97.480469 L 62.101562 97.484375 L 62.367188 97.5 L 62.429688 97.5 L 62.636719 97.511719 L 62.734375 97.515625 L 62.90625 97.523438 L 63.011719 97.527344 L 63.175781 97.53125 L 63.289062 97.535156 L 63.449219 97.539062 L 63.558594 97.542969 L 63.726562 97.542969 L 63.828125 97.546875 L 64.011719 97.546875 L 64.101562 97.550781 L 64.371094 97.550781 C 64.371094 97.550781 64.621094 97.550781 64.621094 97.550781 L 64.6875 97.546875 L 64.941406 97.546875 L 65.191406 97.542969 L 65.253906 97.539062 L 65.472656 97.535156 L 65.511719 97.535156 L 65.757812 97.523438 L 65.820312 97.523438 L 66.03125 97.515625 L 66.078125 97.511719 L 66.324219 97.5 L 66.382812 97.5 L 66.589844 97.488281 L 66.640625 97.484375 L 66.890625 97.46875 L 66.9375 97.464844 L 67.148438 97.453125 L 67.203125 97.449219 L 67.453125 97.429688 L 67.488281 97.425781 L 67.707031 97.410156 L 67.761719 97.402344 L 68.011719 97.382812 L 68.035156 97.378906 L 68.261719 97.359375 L 68.316406 97.351562 L 68.570312 97.328125 L 68.816406 97.300781 L 68.871094 97.292969 L 69.117188 97.261719 L 69.371094 97.230469 L 69.417969 97.226562 L 69.667969 97.191406 L 69.925781 97.15625 L 69.964844 97.152344 L 70.203125 97.117188 L 70.214844 97.113281 L 70.472656 97.074219 L 70.503906 97.070312 L 70.746094 97.03125 L 70.761719 97.027344 L 71.023438 96.984375 L 71.039062 96.980469 L 71.285156 96.9375 L 71.304688 96.933594 L 71.566406 96.886719 L 71.828125 96.835938 L 71.839844 96.835938 L 72.105469 96.785156 L 72.367188 96.730469 L 72.375 96.726562 L 72.640625 96.671875 L 72.90625 96.613281 C 75.828125 95.960938 78.632812 94.980469 81.269531 93.710938 C 83.015625 92.871094 84.6875 91.90625 86.277344 90.824219 C 86.460938 90.699219 86.679688 90.632812 86.902344 90.632812 C 88.527344 90.632812 95.53125 90.632812 99.335938 90.632812 C 99.777344 90.632812 100.175781 90.894531 100.351562 91.300781 C 100.527344 91.703125 100.445312 92.175781 100.144531 92.496094 C 98.582031 94.144531 96.90625 95.6875 95.128906 97.113281 C 95.128906 97.113281 96.339844 100.742188 97.195312 103.324219 C 97.707031 104.851562 97.121094 106.53125 95.773438 107.410156 C 94.148438 108.449219 92.476562 109.417969 90.757812 110.296875 C 89.324219 111.023438 87.582031 110.691406 86.511719 109.492188 C 84.703125 107.457031 82.164062 104.597656 82.164062 104.597656 C 81.289062 104.9375 80.410156 105.253906 79.519531 105.542969 C 79.320312 105.648438 79.113281 105.738281 78.890625 105.808594 C 76.589844 106.507812 74.238281 107.046875 71.859375 107.410156 C 71.859375 107.410156 71.089844 111.15625 70.535156 113.824219 C 70.214844 115.398438 68.867188 116.554688 67.265625 116.644531 C 66.269531 116.691406 65.273438 116.714844 64.277344 116.714844 C 63.28125 116.714844 62.285156 116.691406 61.289062 116.644531 C 59.683594 116.554688 58.339844 115.398438 58.015625 113.824219 C 57.464844 111.15625 56.695312 107.410156 56.695312 107.410156 C 54.3125 107.046875 51.964844 106.507812 49.664062 105.808594 C 49.441406 105.738281 49.230469 105.648438 49.035156 105.542969 C 48.144531 105.253906 47.261719 104.9375 46.390625 104.597656 C 46.390625 104.597656 43.851562 107.457031 42.039062 109.492188 C 40.972656 110.691406 39.226562 111.023438 37.796875 110.296875 C 36.078125 109.417969 34.40625 108.449219 32.78125 107.410156 C 31.433594 106.53125 30.847656 104.851562 31.355469 103.324219 C 32.214844 100.742188 33.421875 97.113281 33.421875 97.113281 C 30.589844 94.839844 28.011719 92.265625 25.742188 89.429688 C 25.742188 89.429688 22.113281 90.636719 19.527344 91.492188 C 18 92 16.324219 91.414062 15.449219 90.066406 C 14.402344 88.445312 13.4375 86.773438 12.550781 85.058594 C 11.824219 83.625 12.152344 81.878906 13.359375 80.808594 C 15.394531 79 18.253906 76.460938 18.253906 76.460938 C 16.933594 73.078125 15.992188 69.558594 15.441406 65.96875 C 15.441406 65.96875 11.695312 65.199219 9.027344 64.648438 C 7.453125 64.324219 6.296875 62.980469 6.210938 61.375 C 6.113281 59.445312 6.113281 57.515625 6.203125 55.589844 C 6.292969 53.980469 7.453125 52.636719 9.027344 52.3125 C 11.695312 51.761719 15.441406 50.996094 15.441406 50.996094 C 15.992188 47.40625 16.933594 43.886719 18.253906 40.5 C 18.253906 40.5 15.394531 37.960938 13.363281 36.152344 C 12.160156 35.082031 11.828125 33.339844 12.554688 31.90625 C 13.4375 30.1875 14.402344 28.515625 15.441406 26.894531 C 16.324219 25.542969 18 24.960938 19.527344 25.46875 C 22.113281 26.324219 25.742188 27.535156 25.742188 27.535156 C 28.011719 24.699219 30.589844 22.121094 33.421875 19.851562 C 33.421875 19.851562 32.214844 16.222656 31.359375 13.636719 C 30.855469 12.113281 31.4375 10.4375 32.785156 9.558594 C 34.40625 8.511719 36.078125 7.546875 37.792969 6.660156 C 39.226562 5.933594 40.976562 6.265625 42.042969 7.46875 C 42.914062 8.449219 43.953125 9.621094 44.800781 10.566406 C 45.75 11.632812 47.242188 12.027344 48.589844 11.566406 C 48.75 11.511719 48.90625 11.460938 49.0625 11.410156 C 49.253906 11.308594 49.453125 11.226562 49.664062 11.160156 C 51.445312 10.613281 53.257812 10.167969 55.089844 9.824219 C 55.882812 9.542969 56.542969 8.988281 56.957031 8.273438 L 58.011719 3.140625 C 58.335938 1.5625 59.683594 0.402344 61.289062 0.316406 C 62.285156 0.269531 63.28125 0.246094 64.277344 0.25 C 65.273438 0.246094 66.269531 0.269531 67.265625 0.316406 C 68.871094 0.402344 70.21875 1.5625 70.539062 3.140625 L 71.59375 8.273438 C 72.011719 8.988281 72.671875 9.542969 73.460938 9.824219 C 75.296875 10.167969 77.109375 10.613281 78.890625 11.160156 C 79.101562 11.226562 79.300781 11.308594 79.488281 11.410156 C 79.648438 11.460938 79.804688 11.511719 79.960938 11.566406 C 81.308594 12.027344 82.804688 11.632812 83.75 10.566406 C 84.597656 9.621094 85.640625 8.449219 86.511719 7.46875 C 87.578125 6.265625 89.324219 5.933594 90.761719 6.660156 C 92.476562 7.546875 94.148438 8.511719 95.769531 9.558594 C 97.113281 10.4375 97.699219 12.113281 97.191406 13.636719 C 96.339844 16.222656 95.128906 19.851562 95.128906 19.851562 C 96.90625 21.273438 98.582031 22.816406 100.144531 24.46875 C 100.445312 24.789062 100.527344 25.257812 100.347656 25.664062 C 100.175781 26.066406 99.777344 26.328125 99.335938 26.328125 C 95.53125 26.328125 88.527344 26.328125 86.902344 26.328125 C 86.679688 26.328125 86.460938 26.261719 86.28125 26.136719 C 84.699219 25.066406 83.035156 24.105469 81.300781 23.269531 C 81.144531 23.191406 80.984375 23.117188 80.824219 23.042969 L 80.820312 23.039062 L 80.578125 22.929688 L 80.347656 22.824219 L 80.328125 22.816406 L 80.09375 22.710938 L 79.867188 22.609375 L 79.832031 22.597656 L 79.601562 22.5 L 79.378906 22.40625 L 79.332031 22.386719 L 79.105469 22.292969 L 78.882812 22.203125 L 78.832031 22.179688 L 78.617188 22.097656 L 78.605469 22.09375 L 78.386719 22.007812 L 78.324219 21.984375 L 78.132812 21.910156 L 77.820312 21.792969 L 77.640625 21.726562 L 77.589844 21.710938 L 77.375 21.632812 L 77.308594 21.609375 L 77.136719 21.550781 L 77.078125 21.53125 L 76.863281 21.457031 L 76.796875 21.433594 L 76.628906 21.378906 L 76.5625 21.355469 L 76.347656 21.285156 L 76.28125 21.265625 L 76.113281 21.210938 L 76.042969 21.191406 L 75.828125 21.125 L 75.769531 21.105469 L 75.597656 21.054688 L 75.523438 21.03125 L 75.308594 20.96875 L 75.253906 20.953125 L 75.074219 20.902344 L 75 20.878906 L 74.78125 20.820312 L 74.738281 20.804688 L 74.550781 20.753906 L 74.472656 20.734375 L 74.273438 20.679688 L 74.246094 20.675781 L 74.226562 20.667969 L 74.019531 20.617188 L 73.945312 20.597656 L 73.710938 20.539062 L 73.488281 20.484375 L 73.414062 20.46875 L 73.230469 20.425781 L 73.179688 20.414062 L 72.953125 20.363281 L 72.882812 20.34375 L 72.699219 20.304688 L 72.640625 20.292969 L 72.414062 20.246094 L 72.347656 20.230469 L 72.164062 20.195312 L 72.101562 20.179688 L 71.875 20.132812 L 71.5625 20.074219 L 71.332031 20.03125 L 71.273438 20.023438 L 71.085938 19.988281 L 71.019531 19.976562 L 70.785156 19.9375 L 70.734375 19.929688 L 70.539062 19.898438 L 70.472656 19.886719 L 70.234375 19.851562 L 70.199219 19.847656 L 69.992188 19.816406 L 69.921875 19.804688 L 69.683594 19.773438 L 69.664062 19.769531 L 69.441406 19.738281 L 69.371094 19.730469 L 69.148438 19.703125 L 69.128906 19.699219 L 68.886719 19.671875 L 68.820312 19.664062 L 68.605469 19.640625 L 68.574219 19.636719 L 68.328125 19.613281 L 68.265625 19.605469 L 68.054688 19.585938 L 68.011719 19.582031 L 67.769531 19.558594 L 67.710938 19.554688 L 67.503906 19.539062 L 67.453125 19.535156 L 67.210938 19.515625 L 67.152344 19.511719 L 66.949219 19.496094 L 66.890625 19.492188 L 66.648438 19.480469 L 66.59375 19.476562 L 66.386719 19.464844 L 66.328125 19.460938 L 66.082031 19.449219 L 66.035156 19.449219 L 65.824219 19.441406 L 65.761719 19.4375 L 65.511719 19.429688 L 65.476562 19.429688 L 65.257812 19.421875 L 65.195312 19.421875 L 64.941406 19.417969 L 64.921875 19.417969 L 64.6875 19.414062 Z M 64.101562 19.414062 " fill-opacity="1" fill-rule="evenodd"/></g><g clip-path="url(#7f0fd395f8)"><path fill="#000000" d="M 75.480469 51.054688 C 79.644531 51.054688 83.019531 54.445312 83.019531 58.628906 C 83.019531 62.816406 79.644531 66.207031 75.480469 66.207031 C 71.3125 66.207031 67.9375 62.816406 67.9375 58.628906 C 67.9375 54.445312 71.3125 51.054688 75.480469 51.054688 Z M 88 49.785156 C 87.394531 48.917969 87.597656 47.71875 88.464844 47.109375 C 89.328125 46.5 90.519531 46.707031 91.125 47.578125 C 92.242188 49.171875 93.125 50.9375 93.722656 52.832031 C 94.300781 54.664062 94.609375 56.609375 94.609375 58.628906 C 94.609375 60.648438 94.296875 62.59375 93.722656 64.429688 C 93.125 66.320312 92.242188 68.085938 91.125 69.683594 C 90.519531 70.550781 89.328125 70.757812 88.464844 70.148438 C 87.601562 69.539062 87.394531 68.34375 88 67.472656 C 88.890625 66.207031 89.589844 64.792969 90.070312 63.269531 C 90.53125 61.8125 90.78125 60.25 90.78125 58.628906 C 90.78125 57.007812 90.53125 55.449219 90.070312 53.988281 C 89.589844 52.46875 88.890625 51.054688 88 49.785156 Z M 45.648438 37.554688 C 46.253906 36.6875 47.445312 36.476562 48.308594 37.085938 C 49.171875 37.695312 49.378906 38.894531 48.773438 39.761719 C 46.875 42.472656 45.371094 45.484375 44.351562 48.726562 C 43.371094 51.847656 42.839844 55.175781 42.839844 58.628906 C 42.839844 62.082031 43.371094 65.410156 44.351562 68.53125 C 45.371094 71.769531 46.875 74.789062 48.773438 77.496094 C 49.378906 78.367188 49.175781 79.5625 48.308594 80.171875 C 47.445312 80.78125 46.253906 80.574219 45.648438 79.707031 C 43.519531 76.671875 41.839844 73.296875 40.699219 69.691406 C 39.601562 66.199219 39.007812 62.484375 39.007812 58.632812 C 39.007812 54.78125 39.601562 51.066406 40.699219 47.578125 C 41.835938 43.96875 43.515625 40.59375 45.648438 37.558594 Z M 52.980469 42.734375 C 53.585938 41.867188 54.777344 41.65625 55.644531 42.265625 C 56.507812 42.875 56.714844 44.070312 56.105469 44.941406 C 54.726562 46.90625 53.640625 49.09375 52.898438 51.445312 C 52.183594 53.707031 51.800781 56.121094 51.800781 58.628906 C 51.800781 61.136719 52.183594 63.550781 52.898438 65.816406 C 53.640625 68.164062 54.726562 70.351562 56.105469 72.320312 C 56.714844 73.183594 56.507812 74.382812 55.644531 74.992188 C 54.78125 75.601562 53.585938 75.394531 52.980469 74.527344 C 51.375 72.238281 50.105469 69.695312 49.25 66.972656 C 48.417969 64.339844 47.972656 61.535156 47.972656 58.632812 C 47.972656 55.730469 48.417969 52.925781 49.25 50.292969 C 50.105469 47.574219 51.375 45.03125 52.980469 42.738281 Z M 59.835938 47.578125 C 60.441406 46.707031 61.632812 46.5 62.496094 47.109375 C 63.359375 47.71875 63.566406 48.917969 62.960938 49.785156 C 62.070312 51.054688 61.371094 52.46875 60.890625 53.988281 C 60.429688 55.449219 60.179688 57.007812 60.179688 58.628906 C 60.179688 60.25 60.429688 61.8125 60.890625 63.269531 C 61.371094 64.792969 62.070312 66.207031 62.960938 67.472656 C 63.566406 68.339844 63.363281 69.539062 62.496094 70.148438 C 61.632812 70.757812 60.441406 70.550781 59.835938 69.683594 C 58.71875 68.085938 57.835938 66.320312 57.238281 64.429688 C 56.660156 62.59375 56.351562 60.648438 56.351562 58.628906 C 56.351562 56.609375 56.664062 54.664062 57.238281 52.832031 C 57.835938 50.9375 58.71875 49.171875 59.835938 47.578125 Z M 102.1875 39.765625 C 101.582031 38.894531 101.785156 37.699219 102.652344 37.089844 C 103.515625 36.480469 104.707031 36.6875 105.3125 37.558594 C 107.441406 40.589844 109.121094 43.964844 110.261719 47.574219 C 111.359375 51.0625 111.953125 54.78125 111.953125 58.628906 C 111.953125 62.480469 111.359375 66.195312 110.261719 69.6875 C 109.125 73.292969 107.445312 76.667969 105.3125 79.703125 C 104.707031 80.570312 103.515625 80.777344 102.652344 80.167969 C 101.789062 79.558594 101.582031 78.363281 102.1875 77.496094 C 104.085938 74.785156 105.589844 71.769531 106.609375 68.527344 C 107.589844 65.410156 108.121094 62.082031 108.121094 58.625 C 108.121094 55.175781 107.589844 51.847656 106.609375 48.722656 C 105.589844 45.484375 104.085938 42.46875 102.1875 39.757812 Z M 94.855469 44.945312 C 94.246094 44.078125 94.453125 42.878906 95.316406 42.269531 C 96.179688 41.660156 97.375 41.867188 97.980469 42.734375 C 99.585938 45.027344 100.855469 47.570312 101.710938 50.292969 C 102.542969 52.921875 102.988281 55.726562 102.988281 58.628906 C 102.988281 61.53125 102.542969 64.335938 101.710938 66.96875 C 100.855469 69.691406 99.585938 72.234375 97.980469 74.523438 C 97.375 75.390625 96.183594 75.597656 95.316406 74.992188 C 94.453125 74.382812 94.246094 73.183594 94.855469 72.316406 C 96.234375 70.347656 97.320312 68.160156 98.0625 65.8125 C 98.777344 63.550781 99.160156 61.132812 99.160156 58.625 C 99.160156 56.117188 98.777344 53.707031 98.0625 51.441406 C 97.320312 49.089844 96.234375 46.902344 94.855469 44.9375 Z M 94.855469 44.945312 " fill-opacity="1" fill-rule="evenodd"/></g></svg>