<svg xmlns="http://www.w3.org/2000/svg" xmlns:xlink="http://www.w3.org/1999/xlink" width="1500" zoomAndPan="magnify" viewBox="0 0 1125 374.999991" height="500" preserveAspectRatio="xMidYMid meet" version="1.0"><defs><g/></defs><g fill="#8c52ff" fill-opacity="1"><g transform="translate(22.296727, 261.220956)"><g><path d="M 134.953125 -98.34375 C 132.929688 -106.71875 129.210938 -113.320312 123.796875 -118.15625 C 118.378906 -123 112.238281 -126.46875 105.375 -128.5625 C 98.519531 -130.65625 91.773438 -131.703125 85.140625 -131.703125 C 75.023438 -131.703125 65.921875 -129.28125 57.828125 -124.4375 C 49.742188 -119.601562 43.316406 -112.960938 38.546875 -104.515625 C 33.785156 -96.066406 31.40625 -86.429688 31.40625 -75.609375 C 31.40625 -64.773438 33.785156 -55.0625 38.546875 -46.46875 C 43.316406 -37.875 49.742188 -31.117188 57.828125 -26.203125 C 65.921875 -21.296875 75.023438 -18.84375 85.140625 -18.84375 C 91.492188 -18.84375 97.8125 -20.035156 104.09375 -22.421875 C 110.375 -24.804688 116.113281 -28.414062 121.3125 -33.25 C 126.507812 -38.09375 130.625 -44.265625 133.65625 -51.765625 L 76.46875 -51.765625 L 76.46875 -74.078125 L 159.875 -74.078125 C 159.289062 -67.585938 158.707031 -62.140625 158.125 -57.734375 C 157.550781 -53.328125 156.6875 -49.820312 155.53125 -47.21875 L 155.53125 -47.4375 C 152.070312 -37.613281 146.550781 -28.945312 138.96875 -21.4375 C 131.382812 -13.9375 122.863281 -8.054688 113.40625 -3.796875 C 103.945312 0.460938 94.523438 2.59375 85.140625 2.59375 C 74.304688 2.59375 64.265625 0.679688 55.015625 -3.140625 C 45.773438 -6.960938 37.722656 -12.375 30.859375 -19.375 C 24.003906 -26.382812 18.660156 -34.65625 14.828125 -44.1875 C 11.003906 -53.71875 9.09375 -64.191406 9.09375 -75.609375 C 9.09375 -87.015625 11.039062 -97.519531 14.9375 -107.125 C 18.84375 -116.726562 24.257812 -125.03125 31.1875 -132.03125 C 38.125 -139.039062 46.175781 -144.457031 55.34375 -148.28125 C 64.519531 -152.101562 74.453125 -154.015625 85.140625 -154.015625 C 92.503906 -154.015625 100.082031 -153.039062 107.875 -151.09375 C 115.675781 -149.144531 123.039062 -146.003906 129.96875 -141.671875 C 136.90625 -137.335938 142.9375 -131.597656 148.0625 -124.453125 C 153.1875 -117.304688 156.757812 -108.601562 158.78125 -98.34375 Z M 134.953125 -98.34375 "/></g></g></g><g fill="#ffbd59" fill-opacity="1"><g transform="translate(235.878087, 261.220956)"><g><path d="M 73.875 -76.90625 C 80.082031 -76.90625 85.207031 -78.203125 89.25 -80.796875 C 93.289062 -83.398438 96.320312 -86.722656 98.34375 -90.765625 C 100.363281 -94.804688 101.375 -98.992188 101.375 -103.328125 C 101.375 -107.660156 100.363281 -111.992188 98.34375 -116.328125 C 96.320312 -120.660156 93.289062 -124.269531 89.25 -127.15625 C 85.207031 -130.039062 80.082031 -131.484375 73.875 -131.484375 L 40.296875 -131.484375 L 40.296875 0 L 18.625 0 L 18.625 -153.59375 L 73.875 -153.59375 C 82.101562 -153.59375 89.320312 -152.109375 95.53125 -149.140625 C 101.738281 -146.179688 106.898438 -142.28125 111.015625 -137.4375 C 115.128906 -132.601562 118.195312 -127.222656 120.21875 -121.296875 C 122.25 -115.378906 123.265625 -109.390625 123.265625 -103.328125 C 123.265625 -96.253906 121.816406 -89.429688 118.921875 -82.859375 C 116.035156 -76.285156 111.664062 -70.722656 105.8125 -66.171875 C 99.96875 -61.628906 92.710938 -58.5625 84.046875 -56.96875 L 131.921875 0 L 103.546875 0 L 48.3125 -66.5 L 48.3125 -76.90625 Z M 73.875 -76.90625 "/></g></g></g><g fill="#0cc0df" fill-opacity="1"><g transform="translate(407.237441, 261.220956)"><g><path d="M 37.46875 -38.34375 L 22.75 0 L -0.859375 0 L 60 -153.59375 L 76.03125 -153.59375 L 136.90625 0 L 113.515625 0 L 99 -38.34375 Z M 90.984375 -58.921875 L 68.234375 -118.703125 L 45.484375 -58.921875 Z M 90.984375 -58.921875 "/></g></g></g><g fill="#7ed957" fill-opacity="1"><g transform="translate(586.848516, 261.220956)"><g><path d="M 73 -152.9375 C 85.414062 -152.9375 96.28125 -150.734375 105.59375 -146.328125 C 114.914062 -141.921875 122.679688 -136 128.890625 -128.5625 C 135.097656 -121.125 139.753906 -112.820312 142.859375 -103.65625 C 145.960938 -94.488281 147.515625 -85.140625 147.515625 -75.609375 C 147.515625 -66.078125 145.960938 -56.832031 142.859375 -47.875 C 139.753906 -38.914062 135.097656 -30.828125 128.890625 -23.609375 C 122.679688 -16.390625 114.914062 -10.648438 105.59375 -6.390625 C 96.28125 -2.128906 85.414062 0 73 0 L 18.625 0 L 18.625 -152.9375 Z M 73 -21.875 C 84.695312 -21.875 94.476562 -24.472656 102.34375 -29.671875 C 110.21875 -34.867188 116.101562 -41.582031 120 -49.8125 C 123.90625 -58.050781 125.859375 -66.648438 125.859375 -75.609375 C 125.859375 -82.390625 124.738281 -89.03125 122.5 -95.53125 C 120.257812 -102.03125 116.9375 -107.988281 112.53125 -113.40625 C 108.125 -118.820312 102.632812 -123.117188 96.0625 -126.296875 C 89.5 -129.472656 81.8125 -131.0625 73 -131.0625 L 40.515625 -131.0625 L 40.515625 -21.875 Z M 73 -21.875 "/></g></g></g><g fill="#ff5757" fill-opacity="1"><g transform="translate(786.146439, 261.220956)"><g><path d="M 72.78125 1.515625 C 66.144531 1.515625 59.503906 0.503906 52.859375 -1.515625 C 46.210938 -3.535156 40.179688 -6.492188 34.765625 -10.390625 C 29.347656 -14.296875 24.976562 -19.171875 21.65625 -25.015625 C 18.34375 -30.867188 16.6875 -37.691406 16.6875 -45.484375 L 16.6875 -153.15625 L 38.78125 -153.15625 L 38.78125 -45.28125 C 38.78125 -39.789062 40.507812 -35.164062 43.96875 -31.40625 C 47.4375 -27.65625 51.769531 -24.875 56.96875 -23.0625 C 62.164062 -21.257812 67.4375 -20.359375 72.78125 -20.359375 C 78.125 -20.359375 83.359375 -21.296875 88.484375 -23.171875 C 93.617188 -25.054688 97.914062 -27.875 101.375 -31.625 C 104.84375 -35.382812 106.578125 -40.003906 106.578125 -45.484375 L 106.578125 -153.15625 L 128.671875 -153.15625 L 128.671875 -45.28125 C 128.671875 -37.625 127.007812 -30.867188 123.6875 -25.015625 C 120.363281 -19.171875 115.957031 -14.296875 110.46875 -10.390625 C 104.988281 -6.492188 98.960938 -3.535156 92.390625 -1.515625 C 85.816406 0.503906 79.28125 1.515625 72.78125 1.515625 Z M 72.78125 1.515625 "/></g></g></g><g fill="#000000" fill-opacity="1"><g transform="translate(973.757927, 261.220956)"><g><path d="M 94.453125 -112.421875 C 93.441406 -116.898438 91.347656 -120.546875 88.171875 -123.359375 C 84.992188 -126.179688 81.273438 -128.273438 77.015625 -129.640625 C 72.753906 -131.015625 68.457031 -131.703125 64.125 -131.703125 C 58.925781 -131.703125 53.722656 -130.800781 48.515625 -129 C 43.316406 -127.195312 39.128906 -124.273438 35.953125 -120.234375 C 34.660156 -118.640625 33.722656 -116.796875 33.140625 -114.703125 C 32.566406 -112.609375 32.28125 -110.476562 32.28125 -108.3125 C 32.28125 -102.53125 33.972656 -98.195312 37.359375 -95.3125 C 40.753906 -92.425781 45.085938 -90.476562 50.359375 -89.46875 C 55.628906 -88.457031 61.082031 -87.660156 66.71875 -87.078125 C 71.914062 -86.503906 77.257812 -85.601562 82.75 -84.375 C 88.238281 -83.144531 93.472656 -81.375 98.453125 -79.0625 C 103.429688 -76.757812 107.765625 -73.65625 111.453125 -69.75 C 115.140625 -65.851562 117.703125 -60.875 119.140625 -54.8125 C 119.867188 -51.195312 120.234375 -47.875 120.234375 -44.84375 C 120.234375 -37.476562 118.609375 -30.941406 115.359375 -25.234375 C 112.109375 -19.535156 107.773438 -14.695312 102.359375 -10.71875 C 96.941406 -6.75 90.875 -3.753906 84.15625 -1.734375 C 77.4375 0.285156 70.6875 1.296875 63.90625 1.296875 C 58.125 1.296875 52.164062 0.429688 46.03125 -1.296875 C 39.894531 -3.035156 34.191406 -5.597656 28.921875 -8.984375 C 23.648438 -12.378906 19.242188 -16.640625 15.703125 -21.765625 C 12.160156 -26.898438 10.03125 -32.859375 9.3125 -39.640625 L 9.09375 -43.765625 L 31.1875 -44.1875 L 31.40625 -40.9375 L 31.40625 -41.8125 C 31.988281 -37.1875 33.972656 -33.25 37.359375 -30 C 40.753906 -26.75 44.90625 -24.328125 49.8125 -22.734375 C 54.726562 -21.148438 59.5 -20.359375 64.125 -20.359375 C 69.613281 -20.359375 74.957031 -21.332031 80.15625 -23.28125 C 85.351562 -25.238281 89.644531 -28.054688 93.03125 -31.734375 C 96.425781 -35.421875 98.125 -39.863281 98.125 -45.0625 C 98.125 -46.644531 97.910156 -48.375 97.484375 -50.25 C 96.617188 -54.15625 94.488281 -57.082031 91.09375 -59.03125 C 87.695312 -60.976562 83.613281 -62.382812 78.84375 -63.25 C 74.082031 -64.113281 69.175781 -64.765625 64.125 -65.203125 C 58.195312 -65.785156 52.203125 -66.6875 46.140625 -67.90625 C 40.078125 -69.132812 34.445312 -71.117188 29.25 -73.859375 C 24.050781 -76.609375 19.753906 -80.398438 16.359375 -85.234375 C 12.960938 -90.078125 10.972656 -96.46875 10.390625 -104.40625 L 10.390625 -104.203125 C 10.390625 -104.921875 10.351562 -105.566406 10.28125 -106.140625 C 10.21875 -106.722656 10.1875 -107.300781 10.1875 -107.875 C 10.1875 -117.257812 13 -125.632812 18.625 -133 C 23.6875 -139.644531 30.40625 -144.664062 38.78125 -148.0625 C 47.15625 -151.457031 55.742188 -153.15625 64.546875 -153.15625 C 72.347656 -153.15625 79.96875 -151.742188 87.40625 -148.921875 C 94.84375 -146.109375 101.160156 -141.773438 106.359375 -135.921875 C 111.554688 -130.078125 114.804688 -122.535156 116.109375 -113.296875 Z M 94.453125 -112.421875 "/></g></g></g></svg>