<svg xmlns="http://www.w3.org/2000/svg" xmlns:xlink="http://www.w3.org/1999/xlink" width="158" zoomAndPan="magnify" viewBox="0 0 118.5 116.999995" height="156" preserveAspectRatio="xMidYMid meet" version="1.0"><defs><clipPath id="74d3bd2bad"><path d="M 11.703125 0.246094 L 106.109375 0.246094 L 106.109375 116.484375 L 11.703125 116.484375 Z M 11.703125 0.246094 " clip-rule="nonzero"/></clipPath><clipPath id="36f3c6834e"><path d="M 47 26.746094 L 104 26.746094 L 104 90.324219 L 47 90.324219 Z M 47 26.746094 " clip-rule="nonzero"/></clipPath></defs><g clip-path="url(#74d3bd2bad)"><path fill="#8c52ff" d="M 69.738281 19.414062 L 69.648438 19.414062 L 69.464844 19.417969 L 69.359375 19.417969 L 69.195312 19.421875 L 69.085938 19.425781 L 68.921875 19.429688 L 68.8125 19.433594 L 68.648438 19.4375 L 68.539062 19.441406 L 68.367188 19.449219 L 68.273438 19.453125 L 68.050781 19.460938 L 68.003906 19.464844 L 67.734375 19.480469 L 67.65625 19.484375 L 67.46875 19.496094 L 67.367188 19.5 C 67.367188 19.5 67.246094 19.511719 67.199219 19.511719 C 67.164062 19.515625 67.128906 19.519531 67.09375 19.523438 C 67.046875 19.523438 66.976562 19.53125 66.933594 19.535156 C 66.894531 19.535156 66.859375 19.539062 66.820312 19.542969 C 66.777344 19.546875 66.707031 19.550781 66.664062 19.554688 C 66.628906 19.558594 66.589844 19.5625 66.554688 19.566406 C 66.511719 19.566406 66.433594 19.574219 66.386719 19.578125 C 66.355469 19.582031 66.324219 19.585938 66.289062 19.589844 C 66.242188 19.59375 66.140625 19.605469 66.097656 19.609375 C 66.074219 19.609375 66.046875 19.613281 66.023438 19.613281 C 65.96875 19.621094 65.816406 19.636719 65.761719 19.640625 C 65.738281 19.644531 65.714844 19.648438 65.695312 19.648438 C 65.648438 19.65625 65.546875 19.667969 65.5 19.671875 C 65.464844 19.675781 65.433594 19.679688 65.398438 19.683594 C 65.355469 19.6875 65.28125 19.699219 65.234375 19.703125 C 65.199219 19.707031 65.164062 19.710938 65.125 19.714844 C 65.082031 19.722656 65.015625 19.730469 64.972656 19.738281 C 64.933594 19.742188 64.898438 19.746094 64.859375 19.75 C 64.816406 19.757812 64.75 19.765625 64.707031 19.769531 C 64.667969 19.777344 64.632812 19.78125 64.597656 19.785156 C 64.550781 19.792969 64.484375 19.800781 64.441406 19.808594 C 64.40625 19.8125 64.371094 19.816406 64.335938 19.824219 C 64.289062 19.832031 64.207031 19.84375 64.164062 19.847656 C 64.132812 19.855469 64.101562 19.859375 64.074219 19.863281 C 64.015625 19.871094 63.871094 19.894531 63.816406 19.902344 C 63.800781 19.90625 63.78125 19.90625 63.761719 19.910156 C 63.71875 19.917969 63.609375 19.9375 63.558594 19.945312 C 63.523438 19.949219 63.492188 19.957031 63.457031 19.960938 C 63.414062 19.96875 63.34375 19.980469 63.300781 19.988281 C 63.261719 19.996094 63.226562 20 63.1875 20.007812 C 63.144531 20.015625 63.085938 20.027344 63.039062 20.035156 C 63.003906 20.039062 62.964844 20.046875 62.925781 20.054688 C 62.882812 20.0625 62.824219 20.074219 62.78125 20.082031 C 62.742188 20.089844 62.707031 20.097656 62.667969 20.105469 C 62.625 20.113281 62.5625 20.125 62.519531 20.132812 C 62.484375 20.140625 62.449219 20.144531 62.410156 20.152344 C 62.367188 20.164062 62.296875 20.175781 62.253906 20.183594 C 62.222656 20.191406 62.1875 20.199219 62.15625 20.203125 C 62.105469 20.214844 61.996094 20.238281 61.957031 20.246094 C 61.9375 20.25 61.914062 20.253906 61.898438 20.257812 C 61.890625 20.261719 61.882812 20.261719 61.871094 20.261719 C 61.832031 20.273438 61.703125 20.300781 61.648438 20.3125 C 61.617188 20.320312 61.582031 20.328125 61.550781 20.332031 C 61.507812 20.34375 61.441406 20.359375 61.394531 20.367188 C 61.359375 20.375 61.320312 20.386719 61.285156 20.394531 C 61.242188 20.402344 61.183594 20.414062 61.140625 20.425781 C 61.101562 20.433594 61.066406 20.445312 61.027344 20.453125 C 60.984375 20.464844 60.929688 20.476562 60.886719 20.484375 C 60.851562 20.496094 60.8125 20.503906 60.773438 20.515625 C 60.730469 20.523438 60.675781 20.539062 60.632812 20.546875 C 60.59375 20.558594 60.558594 20.566406 60.519531 20.578125 C 60.476562 20.585938 60.417969 20.601562 60.375 20.613281 C 60.339844 20.621094 60.304688 20.628906 60.269531 20.640625 C 60.222656 20.652344 60.148438 20.671875 60.105469 20.683594 C 60.074219 20.691406 60.046875 20.695312 60.015625 20.703125 C 59.960938 20.71875 59.832031 20.753906 59.773438 20.769531 C 59.742188 20.777344 59.707031 20.789062 59.675781 20.796875 C 59.636719 20.808594 59.570312 20.828125 59.523438 20.839844 C 59.488281 20.847656 59.449219 20.859375 59.414062 20.871094 C 59.371094 20.882812 59.316406 20.894531 59.277344 20.910156 C 59.238281 20.917969 59.199219 20.929688 59.164062 20.941406 C 59.121094 20.953125 59.070312 20.96875 59.027344 20.980469 C 58.988281 20.992188 58.949219 21.003906 58.914062 21.015625 C 58.871094 21.027344 58.820312 21.042969 58.777344 21.054688 C 58.742188 21.066406 58.703125 21.078125 58.664062 21.089844 C 58.625 21.101562 58.566406 21.117188 58.527344 21.128906 C 58.492188 21.140625 58.457031 21.152344 58.417969 21.164062 C 58.375 21.179688 58.308594 21.199219 58.265625 21.210938 C 58.234375 21.222656 58.203125 21.230469 58.171875 21.242188 C 58.117188 21.257812 57.988281 21.300781 57.933594 21.316406 C 57.90625 21.328125 57.878906 21.335938 57.851562 21.34375 C 57.8125 21.359375 57.734375 21.382812 57.691406 21.398438 C 57.65625 21.410156 57.621094 21.421875 57.585938 21.433594 C 57.546875 21.445312 57.488281 21.464844 57.445312 21.480469 C 57.410156 21.492188 57.375 21.503906 57.339844 21.515625 C 57.296875 21.53125 57.242188 21.550781 57.203125 21.566406 C 57.164062 21.578125 57.09375 21.601562 57.09375 21.601562 L 56.957031 21.652344 L 56.851562 21.6875 L 56.710938 21.738281 L 56.609375 21.773438 L 56.453125 21.832031 L 56.371094 21.863281 L 56.132812 21.953125 L 56.109375 21.960938 L 55.890625 22.046875 L 55.816406 22.074219 L 55.652344 22.140625 L 55.566406 22.175781 L 55.410156 22.234375 L 55.324219 22.273438 L 55.167969 22.335938 L 55.085938 22.371094 L 54.925781 22.4375 L 54.847656 22.46875 L 54.664062 22.546875 L 54.613281 22.566406 L 54.375 22.671875 L 54.128906 22.78125 L 54.113281 22.789062 L 53.894531 22.886719 L 53.847656 22.90625 L 53.65625 22.996094 L 53.605469 23.019531 L 53.417969 23.105469 L 53.371094 23.128906 L 53.171875 23.222656 L 53.136719 23.238281 L 52.90625 23.351562 C 39.902344 29.699219 30.941406 43.050781 30.941406 58.480469 C 30.941406 73.925781 39.917969 87.285156 52.941406 93.628906 L 53.171875 93.738281 L 53.191406 93.75 L 53.410156 93.851562 L 53.4375 93.863281 L 53.652344 93.96875 L 53.675781 93.976562 L 53.914062 94.085938 C 53.996094 94.121094 54.078125 94.160156 54.160156 94.195312 L 54.398438 94.300781 L 54.441406 94.320312 L 54.628906 94.402344 L 54.703125 94.433594 L 54.863281 94.5 L 54.949219 94.539062 L 55.101562 94.601562 L 55.191406 94.636719 L 55.339844 94.695312 L 55.433594 94.734375 L 55.582031 94.792969 L 55.671875 94.832031 L 55.84375 94.898438 L 55.914062 94.925781 L 56.140625 95.015625 L 56.246094 95.050781 L 56.378906 95.101562 L 56.496094 95.144531 L 56.617188 95.191406 L 56.980469 95.320312 L 57.097656 95.363281 L 57.222656 95.40625 L 57.339844 95.445312 L 57.464844 95.488281 L 57.578125 95.527344 L 57.710938 95.570312 L 57.9375 95.648438 L 58.070312 95.6875 L 58.179688 95.722656 L 58.3125 95.765625 L 58.425781 95.800781 L 58.558594 95.839844 L 58.667969 95.875 L 58.800781 95.914062 L 58.914062 95.949219 L 59.046875 95.988281 L 59.160156 96.019531 L 59.542969 96.128906 L 59.648438 96.160156 L 59.78125 96.195312 L 59.910156 96.230469 L 60.023438 96.261719 L 60.15625 96.292969 L 60.273438 96.324219 L 60.40625 96.359375 L 60.523438 96.386719 L 60.65625 96.421875 L 60.773438 96.449219 L 60.90625 96.480469 L 61.027344 96.511719 L 61.15625 96.539062 L 61.28125 96.570312 L 61.410156 96.597656 L 61.542969 96.628906 L 61.664062 96.65625 L 61.902344 96.707031 L 62.019531 96.730469 L 62.160156 96.757812 L 62.28125 96.785156 L 62.414062 96.8125 L 62.539062 96.835938 L 62.671875 96.859375 L 62.796875 96.882812 L 62.929688 96.910156 L 63.050781 96.929688 L 63.191406 96.957031 L 63.308594 96.976562 L 63.460938 97.003906 L 63.566406 97.019531 L 63.820312 97.0625 L 63.894531 97.074219 L 64.078125 97.101562 L 64.183594 97.117188 L 64.339844 97.140625 L 64.453125 97.15625 L 64.601562 97.175781 L 64.714844 97.195312 L 64.863281 97.210938 L 64.980469 97.226562 L 65.132812 97.246094 L 65.242188 97.261719 L 65.40625 97.28125 L 65.503906 97.292969 L 65.714844 97.316406 L 65.769531 97.320312 L 66.027344 97.347656 L 66.113281 97.359375 L 66.292969 97.375 L 66.398438 97.382812 L 66.558594 97.398438 L 66.667969 97.410156 L 66.824219 97.421875 L 66.9375 97.429688 L 67.09375 97.441406 L 67.203125 97.449219 L 67.371094 97.460938 L 67.472656 97.46875 L 67.664062 97.480469 L 67.738281 97.484375 L 68.003906 97.5 L 68.066406 97.5 L 68.273438 97.511719 L 68.371094 97.515625 L 68.542969 97.523438 L 68.648438 97.527344 L 68.8125 97.53125 L 68.921875 97.535156 L 69.085938 97.539062 L 69.195312 97.542969 L 69.363281 97.542969 L 69.464844 97.546875 L 69.648438 97.546875 L 69.738281 97.550781 L 70.007812 97.550781 C 70.007812 97.550781 70.257812 97.550781 70.257812 97.550781 L 70.324219 97.546875 L 70.578125 97.546875 L 70.828125 97.542969 L 70.890625 97.539062 L 71.109375 97.535156 L 71.148438 97.535156 L 71.394531 97.523438 L 71.457031 97.523438 L 71.667969 97.515625 L 71.714844 97.511719 L 71.960938 97.5 L 72.019531 97.5 L 72.226562 97.488281 L 72.277344 97.484375 L 72.527344 97.46875 L 72.574219 97.464844 L 72.785156 97.453125 L 72.839844 97.449219 L 73.085938 97.429688 L 73.125 97.425781 L 73.34375 97.410156 L 73.398438 97.402344 L 73.648438 97.382812 L 73.667969 97.378906 L 73.898438 97.359375 L 73.953125 97.351562 L 74.207031 97.328125 L 74.453125 97.300781 L 74.507812 97.292969 L 74.753906 97.261719 L 75.007812 97.230469 L 75.054688 97.226562 L 75.304688 97.191406 L 75.5625 97.15625 L 75.601562 97.152344 L 75.839844 97.117188 L 75.851562 97.113281 L 76.109375 97.074219 L 76.140625 97.070312 L 76.382812 97.03125 L 76.398438 97.027344 L 76.660156 96.984375 L 76.675781 96.980469 L 76.921875 96.9375 L 76.941406 96.933594 L 77.203125 96.886719 L 77.464844 96.835938 L 77.476562 96.835938 L 77.742188 96.785156 L 78.003906 96.730469 L 78.011719 96.726562 L 78.277344 96.671875 L 78.542969 96.613281 C 81.464844 95.960938 84.269531 94.980469 86.90625 93.710938 C 88.652344 92.871094 90.324219 91.90625 91.914062 90.824219 C 92.097656 90.699219 92.316406 90.632812 92.539062 90.632812 C 94.160156 90.632812 101.167969 90.632812 104.972656 90.632812 C 105.414062 90.632812 105.8125 90.894531 105.988281 91.300781 C 106.164062 91.703125 106.082031 92.175781 105.78125 92.496094 C 104.21875 94.144531 102.542969 95.6875 100.765625 97.113281 C 100.765625 97.113281 101.976562 100.742188 102.832031 103.324219 C 103.34375 104.851562 102.757812 106.53125 101.40625 107.410156 C 99.785156 108.449219 98.113281 109.417969 96.394531 110.296875 C 94.960938 111.023438 93.21875 110.691406 92.148438 109.492188 C 90.339844 107.457031 87.800781 104.597656 87.800781 104.597656 C 86.925781 104.9375 86.046875 105.253906 85.15625 105.542969 C 84.957031 105.648438 84.75 105.738281 84.527344 105.808594 C 82.226562 106.507812 79.875 107.046875 77.496094 107.410156 C 77.496094 107.410156 76.726562 111.15625 76.171875 113.824219 C 75.851562 115.398438 74.503906 116.554688 72.902344 116.644531 C 71.90625 116.691406 70.910156 116.714844 69.914062 116.714844 C 68.917969 116.714844 67.921875 116.691406 66.925781 116.644531 C 65.320312 116.554688 63.976562 115.398438 63.652344 113.824219 C 63.101562 111.15625 62.332031 107.410156 62.332031 107.410156 C 59.949219 107.046875 57.601562 106.507812 55.300781 105.808594 C 55.078125 105.738281 54.867188 105.648438 54.671875 105.542969 C 53.78125 105.253906 52.898438 104.9375 52.027344 104.597656 C 52.027344 104.597656 49.488281 107.457031 47.675781 109.492188 C 46.609375 110.691406 44.863281 111.023438 43.433594 110.296875 C 41.714844 109.417969 40.042969 108.449219 38.417969 107.410156 C 37.070312 106.53125 36.484375 104.851562 36.992188 103.324219 C 37.851562 100.742188 39.058594 97.113281 39.058594 97.113281 C 36.222656 94.839844 33.648438 92.265625 31.378906 89.429688 C 31.378906 89.429688 27.746094 90.636719 25.164062 91.492188 C 23.636719 92 21.960938 91.414062 21.085938 90.066406 C 20.039062 88.445312 19.070312 86.773438 18.1875 85.058594 C 17.457031 83.625 17.789062 81.878906 18.996094 80.808594 C 21.03125 79 23.890625 76.460938 23.890625 76.460938 C 22.570312 73.078125 21.628906 69.558594 21.078125 65.96875 C 21.078125 65.96875 17.332031 65.199219 14.664062 64.648438 C 13.089844 64.324219 11.933594 62.980469 11.847656 61.375 C 11.75 59.445312 11.75 57.515625 11.839844 55.589844 C 11.929688 53.980469 13.085938 52.636719 14.664062 52.3125 C 17.332031 51.761719 21.078125 50.996094 21.078125 50.996094 C 21.628906 47.40625 22.570312 43.886719 23.890625 40.5 C 23.890625 40.5 21.03125 37.960938 19 36.152344 C 17.796875 35.082031 17.464844 33.339844 18.191406 31.90625 C 19.070312 30.1875 20.039062 28.515625 21.078125 26.894531 C 21.960938 25.542969 23.636719 24.960938 25.164062 25.46875 C 27.746094 26.324219 31.378906 27.535156 31.378906 27.535156 C 33.648438 24.699219 36.222656 22.121094 39.058594 19.851562 C 39.058594 19.851562 37.851562 16.222656 36.996094 13.636719 C 36.488281 12.113281 37.074219 10.4375 38.421875 9.558594 C 40.042969 8.511719 41.714844 7.546875 43.429688 6.660156 C 44.863281 5.933594 46.609375 6.265625 47.679688 7.46875 C 48.550781 8.449219 49.589844 9.621094 50.4375 10.566406 C 51.386719 11.632812 52.878906 12.027344 54.226562 11.566406 C 54.386719 11.511719 54.542969 11.460938 54.699219 11.410156 C 54.890625 11.308594 55.089844 11.226562 55.300781 11.160156 C 57.082031 10.613281 58.894531 10.167969 60.726562 9.824219 C 61.519531 9.542969 62.179688 8.988281 62.59375 8.273438 L 63.648438 3.140625 C 63.972656 1.5625 65.316406 0.402344 66.925781 0.316406 C 67.921875 0.269531 68.917969 0.246094 69.914062 0.25 C 70.910156 0.246094 71.90625 0.269531 72.902344 0.316406 C 74.507812 0.402344 75.855469 1.5625 76.175781 3.140625 L 77.230469 8.273438 C 77.648438 8.988281 78.308594 9.542969 79.097656 9.824219 C 80.933594 10.167969 82.742188 10.613281 84.527344 11.160156 C 84.738281 11.226562 84.9375 11.308594 85.125 11.410156 C 85.285156 11.460938 85.441406 11.511719 85.597656 11.566406 C 86.945312 12.027344 88.441406 11.632812 89.386719 10.566406 C 90.234375 9.621094 91.277344 8.449219 92.148438 7.46875 C 93.214844 6.265625 94.960938 5.933594 96.398438 6.660156 C 98.113281 7.546875 99.785156 8.511719 101.40625 9.558594 C 102.75 10.4375 103.335938 12.113281 102.828125 13.636719 C 101.976562 16.222656 100.765625 19.851562 100.765625 19.851562 C 102.542969 21.273438 104.21875 22.816406 105.777344 24.46875 C 106.082031 24.789062 106.160156 25.257812 105.984375 25.664062 C 105.8125 26.066406 105.414062 26.328125 104.972656 26.328125 C 101.167969 26.328125 94.160156 26.328125 92.539062 26.328125 C 92.316406 26.328125 92.097656 26.261719 91.917969 26.136719 C 90.335938 25.066406 88.671875 24.105469 86.9375 23.269531 C 86.78125 23.191406 86.621094 23.117188 86.460938 23.042969 L 86.457031 23.039062 L 86.214844 22.929688 L 85.984375 22.824219 L 85.964844 22.816406 L 85.730469 22.710938 L 85.503906 22.609375 L 85.46875 22.597656 L 85.238281 22.5 L 85.015625 22.40625 L 84.96875 22.386719 L 84.742188 22.292969 L 84.519531 22.203125 L 84.46875 22.179688 L 84.253906 22.097656 L 84.242188 22.09375 L 84.023438 22.007812 L 83.960938 21.984375 L 83.769531 21.910156 L 83.457031 21.792969 L 83.273438 21.726562 L 83.226562 21.710938 L 83.011719 21.632812 L 82.945312 21.609375 L 82.773438 21.550781 L 82.714844 21.53125 L 82.5 21.457031 L 82.433594 21.433594 L 82.265625 21.378906 L 82.199219 21.355469 L 81.984375 21.285156 L 81.917969 21.265625 L 81.75 21.210938 L 81.679688 21.191406 L 81.464844 21.125 L 81.40625 21.105469 L 81.234375 21.054688 L 81.160156 21.03125 L 80.945312 20.96875 L 80.890625 20.953125 L 80.710938 20.902344 L 80.636719 20.878906 L 80.417969 20.820312 L 80.375 20.804688 L 80.1875 20.753906 L 80.109375 20.734375 L 79.910156 20.679688 L 79.882812 20.675781 L 79.863281 20.667969 L 79.65625 20.617188 L 79.582031 20.597656 L 79.347656 20.539062 L 79.125 20.484375 L 79.050781 20.46875 L 78.867188 20.425781 L 78.816406 20.414062 L 78.589844 20.363281 L 78.519531 20.34375 L 78.335938 20.304688 L 78.277344 20.292969 L 78.050781 20.246094 L 77.984375 20.230469 L 77.800781 20.195312 L 77.738281 20.179688 L 77.511719 20.132812 L 77.199219 20.074219 L 76.96875 20.03125 L 76.910156 20.023438 L 76.722656 19.988281 L 76.65625 19.976562 L 76.421875 19.9375 L 76.371094 19.929688 L 76.175781 19.898438 L 76.109375 19.886719 L 75.871094 19.851562 L 75.835938 19.847656 L 75.628906 19.816406 L 75.558594 19.804688 L 75.320312 19.773438 L 75.300781 19.769531 L 75.078125 19.738281 L 75.007812 19.730469 L 74.78125 19.703125 L 74.765625 19.699219 L 74.523438 19.671875 L 74.457031 19.664062 L 74.242188 19.640625 L 74.207031 19.636719 L 73.964844 19.613281 L 73.902344 19.605469 L 73.691406 19.585938 L 73.648438 19.582031 L 73.40625 19.558594 L 73.34375 19.554688 L 73.089844 19.535156 L 72.847656 19.515625 L 72.789062 19.511719 L 72.585938 19.496094 L 72.527344 19.492188 L 72.285156 19.480469 L 72.230469 19.476562 L 72.023438 19.464844 L 71.964844 19.460938 L 71.714844 19.449219 L 71.671875 19.449219 L 71.460938 19.441406 L 71.398438 19.4375 L 71.148438 19.429688 L 71.113281 19.429688 L 70.894531 19.421875 L 70.832031 19.421875 L 70.578125 19.417969 L 70.558594 19.417969 L 70.324219 19.414062 Z M 69.738281 19.414062 " fill-opacity="1" fill-rule="evenodd"/></g><g clip-path="url(#36f3c6834e)"><path fill="#8c52ff" d="M 81.328125 48.210938 C 83.011719 47.53125 84.621094 46.929688 86.09375 46.480469 C 87.683594 47.488281 89.25 48.523438 90.746094 49.613281 C 91.929688 50.476562 93.058594 51.359375 94.160156 52.257812 C 95.527344 53.375 96.816406 54.511719 98.023438 55.664062 C 102.601562 50.507812 104.605469 45.6875 102.832031 42.621094 C 99.550781 36.933594 84.597656 39.414062 69.425781 48.15625 C 69.675781 46.367188 69.964844 44.667969 70.308594 43.171875 C 71.976562 42.296875 73.65625 41.460938 75.347656 40.707031 C 76.683594 40.117188 78.015625 39.578125 79.34375 39.074219 C 80.992188 38.453125 82.621094 37.902344 84.226562 37.433594 C 82.046875 30.886719 78.875 26.746094 75.335938 26.746094 C 68.765625 26.746094 63.4375 40.933594 63.425781 58.449219 C 61.996094 57.335938 60.671875 56.238281 59.546875 55.191406 C 59.621094 53.308594 59.738281 51.433594 59.929688 49.59375 C 60.085938 48.140625 60.289062 46.71875 60.515625 45.316406 C 60.796875 43.574219 61.136719 41.886719 61.53125 40.265625 C 54.777344 38.878906 49.601562 39.558594 47.832031 42.621094 C 44.546875 48.3125 54.171875 60.019531 69.339844 68.785156 C 67.65625 69.46875 66.042969 70.066406 64.574219 70.519531 C 62.980469 69.511719 61.414062 68.476562 59.917969 67.382812 C 58.738281 66.523438 57.605469 65.640625 56.503906 64.742188 C 55.140625 63.625 53.851562 62.488281 52.640625 61.335938 C 48.066406 66.492188 46.0625 71.3125 47.832031 74.375 C 51.117188 80.066406 66.066406 77.582031 81.238281 68.839844 C 80.992188 70.632812 80.703125 72.328125 80.359375 73.824219 C 78.6875 74.703125 77.007812 75.539062 75.316406 76.289062 C 73.980469 76.882812 72.652344 77.421875 71.324219 77.925781 C 69.671875 78.546875 68.042969 79.097656 66.441406 79.566406 C 68.621094 86.109375 71.792969 90.253906 75.332031 90.253906 C 81.902344 90.253906 87.226562 76.0625 87.242188 58.546875 C 88.667969 59.664062 89.996094 60.761719 91.121094 61.808594 C 91.042969 63.691406 90.929688 65.5625 90.734375 67.40625 C 90.582031 68.859375 90.378906 70.28125 90.152344 71.683594 C 89.867188 73.421875 89.527344 75.109375 89.132812 76.734375 C 95.890625 78.117188 101.0625 77.441406 102.832031 74.375 C 106.117188 68.6875 96.496094 56.980469 81.328125 48.210938 Z M 75.332031 62.46875 C 73.140625 62.46875 71.363281 60.6875 71.363281 58.5 C 71.363281 56.3125 73.140625 54.53125 75.332031 54.53125 C 77.527344 54.53125 79.300781 56.3125 79.300781 58.5 C 79.300781 60.6875 77.527344 62.46875 75.332031 62.46875 Z M 75.332031 62.46875 " fill-opacity="1" fill-rule="nonzero"/></g></svg>