<svg xmlns="http://www.w3.org/2000/svg" xmlns:xlink="http://www.w3.org/1999/xlink" width="158" zoomAndPan="magnify" viewBox="0 0 118.5 116.999995" height="156" preserveAspectRatio="xMidYMid meet" version="1.0"><defs><g/><clipPath id="37c24b3be2"><path d="M 47.367188 0.246094 L 70.632812 0.246094 L 70.632812 23.511719 L 47.367188 23.511719 Z M 47.367188 0.246094 " clip-rule="nonzero"/></clipPath><clipPath id="26e9efafdf"><path d="M 59 0.246094 C 52.578125 0.246094 47.367188 5.453125 47.367188 11.878906 C 47.367188 18.304688 52.578125 23.511719 59 23.511719 C 65.425781 23.511719 70.632812 18.304688 70.632812 11.878906 C 70.632812 5.453125 65.425781 0.246094 59 0.246094 Z M 59 0.246094 " clip-rule="nonzero"/></clipPath><clipPath id="536050045e"><path d="M 42.332031 28.066406 L 75.667969 28.066406 L 75.667969 80.160156 L 42.332031 80.160156 Z M 42.332031 28.066406 " clip-rule="nonzero"/></clipPath><clipPath id="0937c1e781"><path d="M 75.667969 28.066406 L 75.667969 63.386719 L 59 80.058594 L 42.332031 63.386719 L 42.332031 28.066406 L 59 44.738281 Z M 75.667969 28.066406 " clip-rule="nonzero"/></clipPath></defs><g clip-path="url(#37c24b3be2)"><g clip-path="url(#26e9efafdf)"><path fill="#ffffff" d="M 47.367188 0.246094 L 70.632812 0.246094 L 70.632812 23.511719 L 47.367188 23.511719 Z M 47.367188 0.246094 " fill-opacity="1" fill-rule="nonzero"/></g></g><g clip-path="url(#536050045e)"><g clip-path="url(#0937c1e781)"><path fill="#ffffff" d="M 75.667969 28.066406 L 75.667969 80.03125 L 42.332031 80.03125 L 42.332031 28.066406 Z M 75.667969 28.066406 " fill-opacity="1" fill-rule="nonzero"/></g></g><g fill="#ffffff" fill-opacity="1"><g transform="translate(36.831823, 109.93462)"><g><path d="M 6.609375 0 L 1.546875 0 L 1.546875 -13.03125 L 6.578125 -13.03125 C 7.617188 -13.03125 8.5625 -12.875 9.40625 -12.5625 C 10.257812 -12.257812 10.988281 -11.816406 11.59375 -11.234375 C 12.207031 -10.660156 12.675781 -9.972656 13 -9.171875 C 13.332031 -8.378906 13.5 -7.5 13.5 -6.53125 C 13.5 -5.550781 13.332031 -4.660156 13 -3.859375 C 12.675781 -3.054688 12.207031 -2.363281 11.59375 -1.78125 C 10.988281 -1.207031 10.265625 -0.765625 9.421875 -0.453125 C 8.578125 -0.148438 7.640625 0 6.609375 0 Z M 3.90625 -10.921875 L 3.90625 -2.125 L 6.53125 -2.125 C 7.476562 -2.125 8.289062 -2.300781 8.96875 -2.65625 C 9.65625 -3.007812 10.179688 -3.507812 10.546875 -4.15625 C 10.910156 -4.8125 11.09375 -5.585938 11.09375 -6.484375 C 11.09375 -7.367188 10.910156 -8.144531 10.546875 -8.8125 C 10.191406 -9.476562 9.671875 -9.992188 8.984375 -10.359375 C 8.304688 -10.734375 7.476562 -10.921875 6.5 -10.921875 Z M 3.90625 -10.921875 "/></g></g></g><g fill="#ffffff" fill-opacity="1"><g transform="translate(52.932229, 109.93462)"><g><path d="M 7.65625 0.28125 C 6.882812 0.28125 6.144531 0.164062 5.4375 -0.0625 C 4.738281 -0.289062 4.097656 -0.609375 3.515625 -1.015625 C 2.929688 -1.429688 2.421875 -1.925781 1.984375 -2.5 C 1.554688 -3.070312 1.222656 -3.695312 0.984375 -4.375 C 0.742188 -5.0625 0.625 -5.78125 0.625 -6.53125 C 0.625 -7.289062 0.742188 -8.007812 0.984375 -8.6875 C 1.222656 -9.375 1.554688 -10 1.984375 -10.5625 C 2.421875 -11.125 2.929688 -11.613281 3.515625 -12.03125 C 4.097656 -12.445312 4.738281 -12.769531 5.4375 -13 C 6.144531 -13.226562 6.882812 -13.34375 7.65625 -13.34375 C 8.425781 -13.34375 9.160156 -13.226562 9.859375 -13 C 10.566406 -12.769531 11.210938 -12.445312 11.796875 -12.03125 C 12.390625 -11.613281 12.898438 -11.125 13.328125 -10.5625 C 13.765625 -10 14.097656 -9.375 14.328125 -8.6875 C 14.566406 -8.007812 14.6875 -7.289062 14.6875 -6.53125 C 14.6875 -5.78125 14.566406 -5.0625 14.328125 -4.375 C 14.097656 -3.695312 13.765625 -3.070312 13.328125 -2.5 C 12.898438 -1.925781 12.390625 -1.429688 11.796875 -1.015625 C 11.210938 -0.609375 10.570312 -0.289062 9.875 -0.0625 C 9.175781 0.164062 8.4375 0.28125 7.65625 0.28125 Z M 7.65625 -1.921875 C 8.300781 -1.921875 8.90625 -2.035156 9.46875 -2.265625 C 10.03125 -2.492188 10.523438 -2.816406 10.953125 -3.234375 C 11.378906 -3.648438 11.710938 -4.132812 11.953125 -4.6875 C 12.191406 -5.25 12.3125 -5.863281 12.3125 -6.53125 C 12.3125 -7.1875 12.191406 -7.796875 11.953125 -8.359375 C 11.710938 -8.929688 11.378906 -9.425781 10.953125 -9.84375 C 10.523438 -10.257812 10.03125 -10.582031 9.46875 -10.8125 C 8.90625 -11.039062 8.300781 -11.15625 7.65625 -11.15625 C 7.019531 -11.15625 6.421875 -11.039062 5.859375 -10.8125 C 5.296875 -10.582031 4.800781 -10.253906 4.375 -9.828125 C 3.945312 -9.410156 3.613281 -8.921875 3.375 -8.359375 C 3.132812 -7.796875 3.015625 -7.1875 3.015625 -6.53125 C 3.015625 -5.863281 3.132812 -5.25 3.375 -4.6875 C 3.613281 -4.132812 3.945312 -3.648438 4.375 -3.234375 C 4.800781 -2.816406 5.296875 -2.492188 5.859375 -2.265625 C 6.421875 -2.035156 7.019531 -1.921875 7.65625 -1.921875 Z M 7.65625 -1.921875 "/></g></g></g><g fill="#ffffff" fill-opacity="1"><g transform="translate(70.210838, 109.93462)"><g><path d="M 6.671875 0 L 4.296875 0 L 4.296875 -10.90625 L 0.40625 -10.90625 L 0.40625 -13.03125 L 10.546875 -13.03125 L 10.546875 -10.90625 L 6.671875 -10.90625 Z M 6.671875 0 "/></g></g></g></svg>